<svg xmlns="http://www.w3.org/2000/svg" xmlns:xlink="http://www.w3.org/1999/xlink" width="338.523" height="20.082" viewBox="0 0 338.523 20.082">
  <defs>
    <clipPath id="clip-path">
      <rect id="Rectangle_2935" data-name="Rectangle 2935" width="87.342" height="19.943" fill="#707070"/>
    </clipPath>
    <clipPath id="clip-path-2">
      <rect id="Rectangle_2937" data-name="Rectangle 2937" width="92.171" height="20.082" fill="#707070"/>
    </clipPath>
    <clipPath id="clip-path-3">
      <rect id="Rectangle_2939" data-name="Rectangle 2939" width="63.079" height="19.501" fill="#707070"/>
    </clipPath>
  </defs>
  <g id="Group_5713" data-name="Group 5713" transform="translate(61)">
    <g id="Group_5707" data-name="Group 5707" transform="translate(190.181 0)">
      <g id="Group_5706" data-name="Group 5706" transform="translate(0 0)" clip-path="url(#clip-path)">
        <path id="Path_3945" data-name="Path 3945" d="M7.63,24.366a.647.647,0,0,1-.686.607h0a.648.648,0,1,1,.687-.607" transform="translate(-3.804 -14.218)" fill="#707070"/>
        <path id="Path_3946" data-name="Path 3946" d="M19.2,10.944a.643.643,0,0,1-.6.68h0a.644.644,0,1,1,.605-.681h0" transform="translate(-10.759 -6.208)" fill="#707070"/>
        <path id="Path_3947" data-name="Path 3947" d="M20.167,27.3a.559.559,0,1,1-.59-.525.559.559,0,0,1,.59.525" transform="translate(-11.439 -16.075)" fill="#707070"/>
        <path id="Path_3948" data-name="Path 3948" d="M19.422,38.327a.5.5,0,0,1-.471.532h0a.5.5,0,1,1,.471-.532" transform="translate(-11.061 -22.732)" fill="#707070"/>
        <path id="Path_3949" data-name="Path 3949" d="M13.945,44.227a.656.656,0,1,1-.655-.656.656.656,0,0,1,.655.656" transform="translate(-7.586 -26.163)" fill="#707070"/>
        <path id="Path_3950" data-name="Path 3950" d="M10.114,6.07V5.586a.223.223,0,0,0-.01-.072l-.034-2.005c.006-.348,0-.811.008-1.438C10.092-.247,8.7.008,8.7.008A6.39,6.39,0,0,0,6.55.576a5.044,5.044,0,0,0-1.5,1.232.646.646,0,0,0,.159.9l.025.016,1.143.9a1.06,1.06,0,0,0,.735.05h0a1.3,1.3,0,1,1-.607,1.174,1.262,1.262,0,0,1,.011-.243A1.03,1.03,0,0,0,6.2,3.974l-1.218-.89c-.559-.332-.875-.109-1,.019A13,13,0,0,0,1.475,5.866c-.254.346-.547,3.5-.311,3.553.2.043.477.129.8.223l.018,0a.312.312,0,0,0,.337-.108,1.033,1.033,0,0,1,1.893.628v.006a1.033,1.033,0,0,1-2.029.2c0-.006,0-.012-.006-.02-.049-.187-.291-.262-.291-.262-.24-.059-.509-.129-.509-.129s-.6-.23-.719.183A9.717,9.717,0,0,0,.023,13.11a13.077,13.077,0,0,0,1.263,2.645c.331.583,1.076-.02,1.076-.02s4.293-3.661,4.71-4.159a1.129,1.129,0,0,1-.045-.255,1.146,1.146,0,1,1,1.891.8.211.211,0,0,1-.064.052h0a1.14,1.14,0,0,1-1.413-.04c-.515.463-3.6,3.245-3.965,3.561a5.878,5.878,0,0,0-.859.806c-.2.26.277,1.273.653,1.7a2.323,2.323,0,0,0,1.219.677.2.2,0,0,0,.068,0c.24-.072.132-.356.124-.378a1.1,1.1,0,0,1-.091-.436A1.114,1.114,0,0,1,5.7,16.947h0a1.114,1.114,0,0,1,1.115,1.114h0a1.105,1.105,0,0,1-.292.75s-.4.383-.338.427a.809.809,0,0,0,.245.11c.215.08,1.239.451,1.392.461A3.5,3.5,0,0,0,9.292,19c.459-.443-.217-1.072-.6-1.734-.1-.167-.117-.193-.225-.36a.5.5,0,0,0-.439-.183c-.033,0-.065.008-.1.01a1.113,1.113,0,1,1,1-.791c-.145.6.807,1.575,1.034,1.867.2.253.143-.739.143-.739s.017-8.638.013-9.283c0-.332,0-1.146,0-1.718Z" transform="translate(0 0)" fill="#707070"/>
        <path id="Path_3951" data-name="Path 3951" d="M27.7,21.962c.032-.023.076-.207.282-.185s.544.109.435.391-.228.5-.5.477-.4-.216-.391-.324a1.371,1.371,0,0,1,.173-.36" transform="translate(-16.526 -13.076)" fill="#707070"/>
        <path id="Path_3952" data-name="Path 3952" d="M49.671,31.6c.037-.038.089-.36.331-.32s.639.189.512.679-.268.869-.588.83a.563.563,0,0,1-.46-.566,2.952,2.952,0,0,1,.2-.624" transform="translate(-29.703 -18.781)" fill="#707070"/>
        <path id="Path_3953" data-name="Path 3953" d="M44.929,42.343c.013-.013.032-.125.117-.112s.223.066.179.238-.067.245-.179.232-.194-.073-.187-.14a1.016,1.016,0,0,1,.07-.217" transform="translate(-26.936 -25.358)" fill="#707070"/>
        <path id="Path_3954" data-name="Path 3954" d="M28.754,41.574s-.375-.777.158-.907.841-.178,1.11.036a1.588,1.588,0,0,1,.431,1.241c-.027.544-.545,1.712-1.267,1.312a1.293,1.293,0,0,1-.431-1.683" transform="translate(-17.182 -24.353)" fill="#707070"/>
        <path id="Path_3955" data-name="Path 3955" d="M38.3,34.313c-.354-.206-.916.08-1.675.153a11.39,11.39,0,0,1-1.294-.082c-.635-.01-.511.443-.563.682-.04.195-.259.406-1.186.431a4.8,4.8,0,0,1-.525-.02.647.647,0,0,0-.639.569.256.256,0,0,0,.1.247,1.821,1.821,0,0,1,.821,1.066,2.01,2.01,0,0,1-.277,1.713,5.249,5.249,0,0,1-.512.586c-.145.146-.072.35.093.606.076.116.307.25.976.24a2.466,2.466,0,0,0,2.066-1.189c.011-.275-.689-.917-.785-.992a2.611,2.611,0,0,1-.471-.429.839.839,0,0,1-.223-.775l.015-.058a.527.527,0,0,1,.741-.075L34.98,37c.314.316.16.632.457.956.211.229.28.545.742.657s.469-.274.573-.444a8.162,8.162,0,0,0,.188-1.075c.068-.256.618-.123.959-.19s.761-.457.914-1.315a1.254,1.254,0,0,0-.509-1.277" transform="translate(-19.466 -20.56)" fill="#707070"/>
        <path id="Path_3956" data-name="Path 3956" d="M36.208,10.47c-.328.12-.945.36-.947.345l-.01,0c-.353.058-.133-.034-.2-.258s.132-.139.3-.463-.1-.264-.351-.509-.452.06-.565.094-.563.344-.747.227-.475.143-.655.2-.237-.126-.2-.259a.622.622,0,0,0,.019-.427c-.063-.2.179-.227.416-.422a1.324,1.324,0,0,0,.185-.134c.332-.469.577,0,.577,0l0,0a.911.911,0,0,0,.062.262c.1.245.225,0,.378-.143s.479-.046.7-.211.261-.525.364-.679.264-.1.65-.3.258-.374.272-.65-.58-.37-.835-.472-.36.04-.589.16-.207.063-.5,0-.123-.4-.106-.509a.3.3,0,0,0-.01-.1c-.029-.082-.046-.163-.058-.2a8.91,8.91,0,0,1-.649-.839c-.243-.443-.938-.433-1.226-.411-.661.05-.508.448-1.06.542s-.654-.2-.612-.5c.03-.228.53-.581.873-.628a2.3,2.3,0,0,1,.946.026,4.38,4.38,0,0,1,1.385.513h.006a.563.563,0,0,0,.727-.141,3.208,3.208,0,0,0,.339-.649c.025-.165.307-.132.542-.173s.217-.1.338-.108.264-.1.164-.272-.245-.073-.351-.016a2.454,2.454,0,0,1-.451.259.216.216,0,0,1-.249-.121s.014-.276.027-.479a1.8,1.8,0,0,0-.2-.679c-.08-.173-.352-.264-.529-.357a1.437,1.437,0,0,0-.867-.01c-.346.08-.459.36-.587.425,0,0-.184.034-.148-.224s-.018-.4-.276-.429-.869.307-.742.467c.07.085.089.123.123.16.006.008.256.354.167.565-.08.187-.334-.064-.392-.153-.28-.434.426-1.612.137-1.994S31.028.709,30.727.454A2.488,2.488,0,0,0,29.3.219a4.353,4.353,0,0,0-1.632.494.919.919,0,0,0-.425,1.044,2.351,2.351,0,0,0,.839,1.056c.345.24.369.479.171,1.134a.767.767,0,0,0,.391.967c.132.109.16.125.1.34s-.656.2-1.061.494a.986.986,0,0,0-.269,1.069c.061.28.275.337.346.489a1.556,1.556,0,0,1,.142.55.638.638,0,0,0,.109.362.887.887,0,0,0,.692.3,1.28,1.28,0,0,0,.791-.484L29.535,8a1.8,1.8,0,0,1,1.321-.6h.175c.143.006.287.038.331.151.08.2-.008.379-.271.372a1.453,1.453,0,0,0-1.217.328,1.32,1.32,0,0,0,.512,2.066.473.473,0,0,1,.062.552.566.566,0,0,1-.5.252.43.43,0,0,1-.412-.262.6.6,0,0,1-.021-.08c0-.008-.008-.014-.011-.022a.071.071,0,0,0,0-.016v.009a.853.853,0,0,0-.532-.525c-.046-.013-.093-.026-.14-.036a1.791,1.791,0,0,0-.788,0c-.264.08-.531.038-.728.764a1.908,1.908,0,0,0,.086.691,3.974,3.974,0,0,1-.178,1.042c-.045.261.429.685.593.735s.381.28.992.663a3.125,3.125,0,0,0,2.128,0c.27-.107.257-.275.27-.477a1.728,1.728,0,0,0-.484-.94,1.465,1.465,0,0,1-.45-.926c.04-.185.294-.16.4-.16a3.533,3.533,0,0,1,.5.174,1.2,1.2,0,0,1,.509.755c.345,1.14,2.268.834,2.268.834a3.574,3.574,0,0,0,1.125-.433,12.477,12.477,0,0,0,1.22-1.066c.3-.322.456-1.338-.075-1.37" transform="translate(-16.339 -0.131)" fill="#707070"/>
        <path id="Path_3957" data-name="Path 3957" d="M80.667,14.262H79.5v2.011H77.359V8.706h3.46c2.065,0,3.362,1.07,3.362,2.8A2.512,2.512,0,0,1,82.7,13.9l1.632,2.378H82.04Zm.022-3.87H79.5V12.61h1.189c.886,0,1.329-.412,1.329-1.1s-.443-1.114-1.329-1.114" transform="translate(-46.452 -5.228)" fill="#707070"/>
        <path id="Path_3958" data-name="Path 3958" d="M95.138,15.752a3.32,3.32,0,1,1,3.308,3.036,3.062,3.062,0,0,1-3.308-3.036m4.541,0a1.24,1.24,0,1,0-2.463,0,1.242,1.242,0,1,0,2.463,0" transform="translate(-57.128 -7.648)" fill="#707070"/>
        <path id="Path_3959" data-name="Path 3959" d="M116.921,12.727v1.849a3.7,3.7,0,0,0-.465-.032,1.278,1.278,0,0,0-1.405,1.448v2.692H113V12.825h1.958v.7a2.4,2.4,0,0,1,1.967-.8" transform="translate(-67.851 -7.639)" fill="#707070"/>
        <path id="Path_3960" data-name="Path 3960" d="M123.253,18.185l.616-1.407a4.1,4.1,0,0,0,2.043.542c.692,0,.919-.151.919-.4,0-.789-3.458.108-3.458-2.238,0-1.1,1.016-1.946,2.855-1.946a5.146,5.146,0,0,1,2.311.5l-.616,1.395a3.429,3.429,0,0,0-1.686-.433c-.692,0-.94.195-.94.411,0,.811,3.448-.065,3.448,2.259,0,1.081-.994,1.925-2.9,1.925a5.374,5.374,0,0,1-2.594-.606" transform="translate(-74.01 -7.647)" fill="#707070"/>
        <path id="Path_3961" data-name="Path 3961" d="M137.757,15.752a3.079,3.079,0,0,1,3.362-3.016,2.752,2.752,0,0,1,2.746,1.611l-1.59.811a1.27,1.27,0,0,0-1.167-.789,1.255,1.255,0,0,0-1.274,1.384,1.272,1.272,0,0,0,2.441.616l1.59.813a2.751,2.751,0,0,1-2.746,1.61,3.084,3.084,0,0,1-3.362-3.04" transform="translate(-82.719 -7.648)" fill="#707070"/>
        <path id="Path_3962" data-name="Path 3962" d="M160.635,12.239V15.59h-2.054V12.575c0-.843-.368-1.2-.962-1.2-.66,0-1.167.411-1.167,1.384v2.832H154.4V7.569h2.054v2.7a2.539,2.539,0,0,1,1.761-.638,2.293,2.293,0,0,1,2.422,2.606" transform="translate(-92.711 -4.545)" fill="#707070"/>
        <path id="Path_3963" data-name="Path 3963" d="M177.138,15.441v3.254h-1.913v-.756a1.777,1.777,0,0,1-1.73.854c-1.405,0-2.184-.789-2.184-1.805,0-1.081.789-1.751,2.606-1.751h1.167c-.034-.594-.434-.93-1.243-.93a2.729,2.729,0,0,0-1.589.508l-.692-1.395a4.922,4.922,0,0,1,2.583-.679c1.9,0,3,.843,3,2.7m-2.056,1.371v-.508H174.2c-.66,0-.9.238-.9.594s.28.594.767.594a1.013,1.013,0,0,0,1.016-.679" transform="translate(-102.868 -7.65)" fill="#707070"/>
        <path id="Path_3964" data-name="Path 3964" d="M186.817,15.752a3.079,3.079,0,0,1,3.362-3.016,2.754,2.754,0,0,1,2.746,1.611l-1.589.811a1.272,1.272,0,0,0-1.167-.789,1.257,1.257,0,0,0-1.28,1.234,1.165,1.165,0,0,0,.006.149,1.272,1.272,0,0,0,2.442.616l1.589.813a2.752,2.752,0,0,1-2.746,1.61,3.084,3.084,0,0,1-3.362-3.04" transform="translate(-112.179 -7.648)" fill="#707070"/>
        <path id="Path_3965" data-name="Path 3965" d="M209.154,12.239V15.59H207.1V12.575c0-.843-.367-1.2-.962-1.2-.66,0-1.168.411-1.168,1.384v2.832h-2.054V7.569h2.054v2.7a2.541,2.541,0,0,1,1.761-.638,2.293,2.293,0,0,1,2.423,2.606" transform="translate(-121.846 -4.545)" fill="#707070"/>
        <rect id="Rectangle_2932" data-name="Rectangle 2932" width="0.543" height="2.563" transform="translate(30.843 14.647)" fill="#707070"/>
        <path id="Path_3966" data-name="Path 3966" d="M84.691,39.227H84l-1.114-1.938h-.016c.022.342.033.586.033.732v1.206h-.485V36.665H83.1l1.113,1.918h.012q-.028-.5-.026-.7V36.665h.489Z" transform="translate(-49.49 -22.017)" fill="#707070"/>
        <path id="Path_3967" data-name="Path 3967" d="M94.24,39.227H93.55l-1.114-1.938H92.42q.034.514.034.732v1.206h-.486V36.665h.685l1.113,1.918h.012q-.028-.5-.026-.7V36.665h.489Z" transform="translate(-55.224 -22.017)" fill="#707070"/>
        <path id="Path_3968" data-name="Path 3968" d="M103.666,37.878a1.391,1.391,0,0,1-.315.977,1.368,1.368,0,0,1-1.809,0,1.676,1.676,0,0,1,0-1.958,1.184,1.184,0,0,1,.907-.337,1.165,1.165,0,0,1,.9.34,1.394,1.394,0,0,1,.313.978m-1.869,0a1.07,1.07,0,0,0,.163.647.568.568,0,0,0,.487.217q.65,0,.65-.864t-.647-.866a.573.573,0,0,0-.489.218,1.064,1.064,0,0,0-.165.648" transform="translate(-60.782 -21.952)" fill="#707070"/>
        <path id="Path_3969" data-name="Path 3969" d="M111.889,36.664h.549l-.871,2.562h-.593l-.869-2.562h.549l.482,1.525c.026.09.054.2.083.314s.047.2.054.25a4.553,4.553,0,0,1,.131-.565Z" transform="translate(-66.115 -22.016)" fill="#707070"/>
        <path id="Path_3970" data-name="Path 3970" d="M120.079,39.21l-.185-.61h-.934l-.186.61h-.585l.9-2.572h.665l.908,2.572Zm-.316-1.065q-.257-.829-.292-.938c-.02-.072-.035-.13-.044-.173q-.058.227-.332,1.111Z" transform="translate(-70.969 -22)" fill="#707070"/>
        <path id="Path_3971" data-name="Path 3971" d="M128.051,39.227h-.543V37.117h-.7v-.452h1.935v.452h-.7Z" transform="translate(-76.147 -22.016)" fill="#707070"/>
        <rect id="Rectangle_2933" data-name="Rectangle 2933" width="0.543" height="2.563" transform="translate(53.891 14.647)" fill="#707070"/>
        <path id="Path_3972" data-name="Path 3972" d="M142.256,37.878a1.387,1.387,0,0,1-.316.977,1.368,1.368,0,0,1-1.809,0,1.393,1.393,0,0,1-.316-.98,1.375,1.375,0,0,1,.316-.977,1.184,1.184,0,0,1,.907-.337,1.165,1.165,0,0,1,.9.34,1.394,1.394,0,0,1,.313.978m-1.87,0a1.071,1.071,0,0,0,.163.647.57.57,0,0,0,.487.217q.65,0,.65-.864t-.647-.866a.573.573,0,0,0-.489.218,1.062,1.062,0,0,0-.165.648" transform="translate(-83.954 -21.952)" fill="#707070"/>
        <path id="Path_3973" data-name="Path 3973" d="M151.776,39.227h-.69l-1.115-1.938h-.016q.034.514.034.732v1.206H149.5V36.665h.685l1.113,1.918h.012c-.018-.332-.028-.569-.028-.7V36.665h.491Z" transform="translate(-89.773 -22.017)" fill="#707070"/>
        <path id="Path_3974" data-name="Path 3974" d="M164.9,38.458a.661.661,0,0,1-.249.547,1.083,1.083,0,0,1-.7.2,1.637,1.637,0,0,1-.727-.153v-.506a2.916,2.916,0,0,0,.439.163,1.287,1.287,0,0,0,.328.048.468.468,0,0,0,.276-.068.234.234,0,0,0,.1-.2.22.22,0,0,0-.042-.134.458.458,0,0,0-.123-.113,3.153,3.153,0,0,0-.332-.173,1.564,1.564,0,0,1-.353-.211.808.808,0,0,1-.187-.236.674.674,0,0,1-.07-.316.661.661,0,0,1,.231-.535.955.955,0,0,1,.636-.195,1.523,1.523,0,0,1,.38.047,2.5,2.5,0,0,1,.379.134l-.173.422a2.487,2.487,0,0,0-.34-.117,1.087,1.087,0,0,0-.264-.034.35.35,0,0,0-.236.072.237.237,0,0,0-.082.187.231.231,0,0,0,.033.125.372.372,0,0,0,.106.1,3.3,3.3,0,0,0,.345.182,1.365,1.365,0,0,1,.493.342.674.674,0,0,1,.133.423" transform="translate(-98.016 -21.959)" fill="#707070"/>
        <path id="Path_3975" data-name="Path 3975" d="M172.3,39.227h-1.476V36.665H172.3v.445h-.933v.563h.868v.445h-.868v.66h.933Z" transform="translate(-102.575 -22.016)" fill="#707070"/>
        <path id="Path_3976" data-name="Path 3976" d="M178.644,38.238v.983H178.1V36.659h.747a1.272,1.272,0,0,1,.772.19.756.756,0,0,1,.126.98.821.821,0,0,1-.352.276q.578.864.754,1.116h-.6l-.613-.983Zm0-.442h.175a.666.666,0,0,0,.38-.086.307.307,0,0,0,.123-.27.28.28,0,0,0-.125-.259.755.755,0,0,0-.388-.078h-.164Z" transform="translate(-106.944 -22.011)" fill="#707070"/>
        <path id="Path_3977" data-name="Path 3977" d="M187.254,36.664h.549l-.871,2.562h-.592l-.869-2.562h.549l.482,1.525c.027.09.054.2.083.314s.046.2.053.25a4.4,4.4,0,0,1,.132-.565Z" transform="translate(-111.37 -22.016)" fill="#707070"/>
        <rect id="Rectangle_2934" data-name="Rectangle 2934" width="0.543" height="2.563" transform="translate(77.652 14.647)" fill="#707070"/>
        <path id="Path_3978" data-name="Path 3978" d="M200.493,37.025a.555.555,0,0,0-.475.231,1.077,1.077,0,0,0-.167.642q0,.858.643.857a2.025,2.025,0,0,0,.654-.135v.455a1.819,1.819,0,0,1-.7.132,1.075,1.075,0,0,1-.855-.34,1.437,1.437,0,0,1-.3-.973,1.6,1.6,0,0,1,.146-.7,1.049,1.049,0,0,1,.418-.458,1.23,1.23,0,0,1,.639-.16,1.731,1.731,0,0,1,.75.179l-.175.443a2.9,2.9,0,0,0-.289-.119.849.849,0,0,0-.286-.051" transform="translate(-119.667 -21.961)" fill="#707070"/>
        <path id="Path_3979" data-name="Path 3979" d="M209.026,39.227H207.55V36.665h1.476v.445h-.933v.563h.868v.445h-.868v.66h.933Z" transform="translate(-124.628 -22.016)" fill="#707070"/>
        <path id="Path_3980" data-name="Path 3980" d="M216.1,38.458a.661.661,0,0,1-.249.547,1.083,1.083,0,0,1-.7.2,1.637,1.637,0,0,1-.727-.153v-.506a2.917,2.917,0,0,0,.439.163,1.256,1.256,0,0,0,.329.048.465.465,0,0,0,.275-.068.234.234,0,0,0,.1-.2.225.225,0,0,0-.04-.134.467.467,0,0,0-.124-.113,3.151,3.151,0,0,0-.332-.173,1.552,1.552,0,0,1-.354-.211.8.8,0,0,1-.187-.236.737.737,0,0,1,.161-.85.956.956,0,0,1,.636-.195,1.523,1.523,0,0,1,.38.047,2.613,2.613,0,0,1,.38.134l-.174.422a2.486,2.486,0,0,0-.34-.117,1.087,1.087,0,0,0-.264-.034.349.349,0,0,0-.236.072.237.237,0,0,0-.082.187.227.227,0,0,0,.034.125.347.347,0,0,0,.106.1,3.152,3.152,0,0,0,.344.182,1.377,1.377,0,0,1,.492.342.674.674,0,0,1,.133.423" transform="translate(-128.758 -21.959)" fill="#707070"/>
      </g>
    </g>
    <g id="Group_5710" data-name="Group 5710" transform="translate(-61 0)">
      <rect id="Rectangle_2936" data-name="Rectangle 2936" width="0.958" height="7.472" transform="translate(61.31 5.979)" fill="#707070"/>
      <path id="Path_3981" data-name="Path 3981" d="M219.029,14.678v.958h1.853v6.629h.958V15.636h1.853v-.958Z" transform="translate(-131.521 -8.814)" fill="#707070"/>
      <path id="Path_3982" data-name="Path 3982" d="M91.168,14.678H86.5v.958h1.853v6.629h.958V15.636h1.853Z" transform="translate(-51.944 -8.814)" fill="#707070"/>
      <g id="Group_5709" data-name="Group 5709" transform="translate(0 0)">
        <g id="Group_5708" data-name="Group 5708" clip-path="url(#clip-path-2)">
          <path id="Path_3983" data-name="Path 3983" d="M188.7,14.2a4.043,4.043,0,1,0,4.043,4.043A4.043,4.043,0,0,0,188.7,14.2m0,7.108a3.066,3.066,0,1,1,3.066-3.066,3.065,3.065,0,0,1-3.066,3.066" transform="translate(-110.884 -8.525)" fill="#707070"/>
          <path id="Path_3984" data-name="Path 3984" d="M101.639,14.2a4.043,4.043,0,1,0,4.043,4.043,4.043,4.043,0,0,0-4.043-4.043m0,7.108a3.066,3.066,0,1,1,3.066-3.066,3.065,3.065,0,0,1-3.066,3.066" transform="translate(-58.604 -8.525)" fill="#707070"/>
          <path id="Path_3985" data-name="Path 3985" d="M174.511,15.019l-2.424.027-.023,7.424h.958V20.006l1.489-.01a2.562,2.562,0,0,0,0-4.977m0,4.112-1.489-.007V15.88H174.5a1.733,1.733,0,0,1,.012,3.251" transform="translate(-103.32 -9.018)" fill="#707070"/>
          <path id="Path_3986" data-name="Path 3986" d="M162.116,18.138c-.177-.146-1.866-1.032-1.866-1.032l0,0a.954.954,0,0,1-.6-.853.911.911,0,0,1,1.821-.006l.855-.364a1.8,1.8,0,1,0-3.094,1.59l.068.067c.27.23,2.03,1.149,2.191,1.292l0,0h0a1.4,1.4,0,1,1-2.34,1.047c0-.032,0-.064,0-.1l-.925.331a2.338,2.338,0,0,0,4.663-.235,2.019,2.019,0,0,0-.783-1.74" transform="translate(-95.016 -8.674)" fill="#707070"/>
          <path id="Path_3987" data-name="Path 3987" d="M122.725,18.376l-2.567-3.41H119.2v7.472h.958V16.364c0,.058,2.414,3.2,2.414,3.2h.211l2.338-3.056v5.93h.958V14.966h-.958Z" transform="translate(-71.576 -8.987)" fill="#707070"/>
          <path id="Path_3988" data-name="Path 3988" d="M74.037,20.9l-4.33-5.94h-.958v7.473h.958v-5.85l4.33,5.85h.958V14.965h-.958Z" transform="translate(-41.282 -8.986)" fill="#707070"/>
          <path id="Path_3989" data-name="Path 3989" d="M142.693,17.665a1.641,1.641,0,0,0-.649-2.642,1.281,1.281,0,0,0-.308-.057h-2.573v7.472h.659v.007h2.261l0,0a1.207,1.207,0,0,0,.328-.05,2.6,2.6,0,0,0,.284-4.729M140.026,15.7H141.8a.919.919,0,0,1,.068,1.687h0a.229.229,0,0,1-.065.03h-1.775Zm2.07,6.038h-2.07V18.159h1.982a1.884,1.884,0,0,1,.088,3.583" transform="translate(-83.564 -8.987)" fill="#707070"/>
          <path id="Path_3990" data-name="Path 3990" d="M10.041,0A10.041,10.041,0,1,0,20.082,10.041,10.041,10.041,0,0,0,10.041,0m3.5,15.7h0a3.617,3.617,0,0,1-7.183-.6c0-.047,0-.093,0-.139H7.971c0,.046-.007.092-.007.139a2.007,2.007,0,0,0,4.014,0c0-.06,0-.119-.009-.177L4.282,7.72h-.34v6.275H2.3V6.152l2.894,0,8.464,8.05Zm4.138-3.793v1.567l-2.894,0L6.317,5.424l.117-1.5h0a3.617,3.617,0,0,1,7.183.6c0,.046,0,.093,0,.139H12c0-.046.007-.092.007-.139a2.007,2.007,0,0,0-4.014,0c0,.06,0,.119.009.177l7.688,7.2h.34V5.633h1.645Z" transform="translate(0 0)" fill="#707070"/>
          <path id="Path_3991" data-name="Path 3991" d="M210.48,18.371a3.468,3.468,0,0,0,.158-2.3,2.487,2.487,0,0,0-2.16-1.553h-2.05v7.715h.987V19.755l.836-.009,1.438,2.483h1.162l-1.63-2.76a2.84,2.84,0,0,0,1.259-1.1m-3.066.485V15.413l.968,0a1.5,1.5,0,0,1,1.537,1.554,1.816,1.816,0,0,1-1.406,1.893Z" transform="translate(-123.955 -8.715)" fill="#707070"/>
        </g>
      </g>
    </g>
    <g id="Group_5712" data-name="Group 5712" transform="translate(74.533 0.443)">
      <g id="Group_5711" data-name="Group 5711" transform="translate(0 0)" clip-path="url(#clip-path-3)">
        <path id="Path_3992" data-name="Path 3992" d="M8.279,2h6.873a.716.716,0,0,1,.761.563,16.113,16.113,0,0,1,.532,2.7,17.224,17.224,0,0,1,.028,3.7,15.951,15.951,0,0,1-1.015,4.23A13.939,13.939,0,0,1,12.95,17.35a12.837,12.837,0,0,1-3.676,2.919c-.225.118-.455.226-.688.326a.758.758,0,0,1-.624,0A11.517,11.517,0,0,1,5.9,19.422a13.147,13.147,0,0,1-2.117-1.873,13.6,13.6,0,0,1-2-2.856A15.451,15.451,0,0,1,.3,10.447a16.83,16.83,0,0,1-.291-2.5,17.427,17.427,0,0,1,.14-3.017,16.589,16.589,0,0,1,.474-2.32A.738.738,0,0,1,1.439,2H8.279m.007.553H1.628a.455.455,0,0,0-.5.369A15.994,15.994,0,0,0,.61,5.664,16.4,16.4,0,0,0,.59,8.908a15.343,15.343,0,0,0,.456,2.541,14.371,14.371,0,0,0,1.281,3.22,12.722,12.722,0,0,0,3.1,3.757,11.283,11.283,0,0,0,2.637,1.634.49.49,0,0,0,.406.007c.151-.066.3-.133.448-.206a11.793,11.793,0,0,0,2.686-1.85,12.82,12.82,0,0,0,2.8-3.674,14.653,14.653,0,0,0,1.17-3.137,15.555,15.555,0,0,0,.454-3.264,16.34,16.34,0,0,0-.114-2.548,15.9,15.9,0,0,0-.492-2.467.451.451,0,0,0-.492-.372H8.286" transform="translate(0 -1.31)" fill="#707070"/>
        <path id="Path_3993" data-name="Path 3993" d="M10.035,21.518a8.171,8.171,0,0,1-.9-.457A12.023,12.023,0,0,1,4.429,16a14.056,14.056,0,0,1-1.218-3.492A15.4,15.4,0,0,1,2.9,9.884,16.027,16.027,0,0,1,2.955,7.87a15.186,15.186,0,0,1,.507-2.806.116.116,0,0,1,.127-.1H3.6q1.52,0,3.039,0,1.638,0,3.275-.005c.1,0,.126.022.126.123q0,8.155,0,16.31v.127M5.805,10.276c.048-.046.1-.093.146-.137a.128.128,0,0,1,.105-.043.748.748,0,0,0,.673-.3A.22.22,0,0,1,6.9,9.714a2.49,2.49,0,0,1,.627.066.753.753,0,0,1,.568.426.4.4,0,0,1-.089.49,1.2,1.2,0,0,1-.321.229.117.117,0,0,0-.074.116c0,.143,0,.286-.017.428-.009.085.02.1.092.086a1.393,1.393,0,0,0,.783-.454,1.105,1.105,0,0,0,.154-1.048.927.927,0,0,0-.553-.666,2.712,2.712,0,0,0-1.16-.211.693.693,0,0,1-.181,0,.844.844,0,0,0-.9.4.3.3,0,0,0,.083.464c.012.007.02.019.015.03-.059.063-.153.03-.228.1.082.005.123.032.1.112m.969,1.241c0-.1,0-.18,0-.262s-.023-.076-.083-.052a1.939,1.939,0,0,0-.542.338,1.055,1.055,0,0,0,.36,1.787c.274.081.548.159.826.222a.573.573,0,0,1,.3.14c.207.212.293.469-.033.609a.352.352,0,0,0-.224.387c0,.251-.006.254.225.143a1.284,1.284,0,0,0,.446-.27A1,1,0,0,0,8,13.307a1.354,1.354,0,0,0-.822-.378,1.115,1.115,0,0,1-.609-.235c-.29-.237-.3-.461-.022-.712a.141.141,0,0,1,.025-.021.334.334,0,0,0,.2-.445M6.9,11.4h.017c0,.022,0,.043,0,.064.009.411.019.821.024,1.232,0,.071.018.1.1.1a1.6,1.6,0,0,1,.265.037c.072.015.1,0,.1-.081.01-.361.026-.721.042-1.081q.038-.845.079-1.69c0-.061-.014-.089-.077-.1-.159-.026-.319-.033-.48-.045-.071-.005-.092.022-.088.092q.016.353.02.706c0,.254,0,.507,0,.761M6.658,8.019a.5.5,0,0,0,.087.35.626.626,0,0,1,.108.442c0,.05,0,.1,0,.15s.02.068.07.066a3.108,3.108,0,0,1,.556.037c.057.008.08-.013.08-.068,0-.1,0-.2,0-.3a.411.411,0,0,1,.081-.255.728.728,0,0,0-.07-.933.477.477,0,0,0-.429-.145.619.619,0,0,0-.49.657m.3,6.938H7c0,.189,0,.378,0,.567,0,.243.009.486.013.728,0,.071.008.125.1.116.073-.008.128.006.132-.105.028-.792.067-1.584.1-2.375.009-.208,0-.208-.2-.26L7.1,13.614c-.145-.034-.133-.047-.133.1v1.243M6.9,14.933c0-.06,0-.1,0-.131s.016-.073-.012-.091-.065.019-.092.038a2.5,2.5,0,0,0-.578.584,1.41,1.41,0,0,0-.235.512c-.013.06-.039.137.033.175s.137-.012.186-.066a.489.489,0,0,0,.1-.209.835.835,0,0,1,.437-.542c.124-.065.2-.143.157-.27" transform="translate(-1.898 -3.257)" fill="#707070"/>
        <path id="Path_3994" data-name="Path 3994" d="M28.029,11.621c-1.124,0-2.248,0-3.372,0-.1,0-.122-.03-.122-.125q0-3.2,0-6.4c0-.156-.021-.14.145-.14h6.282c.091,0,.129.024.154.114a16.3,16.3,0,0,1,.56,4.783,15,15,0,0,1-.146,1.686c-.013.092-.068.074-.122.074H28.029m-.256-2.207-.013-.026h-.267c-.254,0-.252,0-.328-.24a1.24,1.24,0,0,0-.1-.275c-.051.155-.1.289-.139.426-.02.077-.057.094-.128.091-.141,0-.283,0-.45,0a1.958,1.958,0,0,0,.331.253.146.146,0,0,1,.077.192.123.123,0,0,1-.008.016,1.8,1.8,0,0,0-.116.4c.132-.1.245-.169.349-.255a.121.121,0,0,1,.171-.011l.012.012c.1.086.219.161.329.24l.022-.019c-.039-.121-.074-.243-.12-.362a.146.146,0,0,1,.048-.2l.018-.01c.111-.067.211-.151.316-.227m.539.8.018.022c.118-.085.238-.167.352-.257a.1.1,0,0,1,.144-.005l0,0c.114.089.234.172.354.26.005-.02.011-.027.009-.033q-.048-.158-.1-.316c-.054-.169-.053-.169.1-.275.093-.067.184-.136.276-.2a2.657,2.657,0,0,0-.452-.021.1.1,0,0,1-.11-.077V9.306c-.04-.142-.091-.281-.137-.422a1.651,1.651,0,0,0-.134.357c-.027.116-.081.164-.205.15a3.312,3.312,0,0,0-.369,0,1.71,1.71,0,0,0,.326.266.126.126,0,0,1,.062.167l-.005.01c-.046.127-.086.255-.129.383M27.939,6.4h-.025c-.04.121-.086.241-.118.365a.112.112,0,0,1-.125.1l-.011,0c-.129-.005-.259,0-.388,0l-.008.028a3.362,3.362,0,0,0,.291.209c.1.056.1.117.065.211a1.685,1.685,0,0,0-.106.363c.121-.087.225-.156.321-.235a.122.122,0,0,1,.172-.013l.011.011c.1.081.2.15.306.223a1.983,1.983,0,0,0-.1-.4.1.1,0,0,1,.041-.136l.009,0c.11-.073.215-.155.322-.234l-.011-.027c-.131,0-.261,0-.392,0a.106.106,0,0,1-.127-.08s0-.007,0-.01c-.034-.126-.08-.248-.12-.372M26.169,8.586l.02.013c.109-.079.221-.154.326-.237a.1.1,0,0,1,.137-.009l.008.009c.105.084.219.158.329.236a2.254,2.254,0,0,0-.11-.4.091.091,0,0,1,.031-.125l.009,0c.113-.075.221-.16.33-.24a1.2,1.2,0,0,0-.361-.022c-.114.012-.158-.036-.183-.137s-.071-.223-.107-.335a1.693,1.693,0,0,0-.142.369c-.021.086-.064.1-.143.1-.126-.005-.251,0-.377,0l-.005.029c.1.075.2.155.31.224a.114.114,0,0,1,.055.151l0,.008c-.045.122-.083.247-.123.371m3.023-1.248-.023,0c-.041.124-.088.247-.122.373a.113.113,0,0,1-.126.1l-.011,0c-.126-.006-.253,0-.379,0l-.007.028c.1.075.2.153.308.223a.11.11,0,0,1,.058.144l0,.01a1.95,1.95,0,0,0-.118.4c.128-.092.244-.169.353-.255a.081.081,0,0,1,.114-.007l.005.005c.112.086.228.165.343.248a1.458,1.458,0,0,0-.093-.346.152.152,0,0,1,.046-.21l.026-.013a1.41,1.41,0,0,0,.295-.226c-.162,0-.293,0-.424,0a.1.1,0,0,1-.113-.074V7.724c-.036-.13-.084-.257-.127-.386" transform="translate(-16.118 -3.26)" fill="#707070"/>
        <path id="Path_3995" data-name="Path 3995" d="M24.536,34.8v-.12q0-4.684,0-9.367c0-.111.03-.132.136-.132q3.323,0,6.646,0c.161,0,.159,0,.132.157a14.036,14.036,0,0,1-.793,2.807A12.306,12.306,0,0,1,25.9,34.068a10.082,10.082,0,0,1-1.275.7c-.022.01-.046.017-.087.032m1.651-4.147c-.1-.113-.2-.139-.283-.077s-.1.164-.024.287a.583.583,0,0,0,.619.263.263.263,0,0,0,.21-.172,8.148,8.148,0,0,1,.889-1.717c.039-.058.062-.1,0-.165a.234.234,0,0,1-.064-.209c.03-.13-.054-.162-.143-.193-.18-.064-.259-.045-.365.087a13.014,13.014,0,0,1-1.409,1.5.187.187,0,0,0-.071.1.829.829,0,0,0,.045.493,1.01,1.01,0,0,0,1.286.477.151.151,0,0,0,.082-.1c.054-.155.107-.31.167-.462a8.011,8.011,0,0,1,.741-1.433c.015-.024.066-.058.016-.086a.081.081,0,0,0-.114.017v0l-.03.045a7.941,7.941,0,0,0-.946,1.771.146.146,0,0,1-.078.094.79.79,0,0,1-.964-.314.286.286,0,0,1,.238-.449.43.43,0,0,1,.4.3c.033.082.082.186.008.251s-.176,0-.252-.052c-.057-.039-.132-.081-.127-.16s.105-.062.168-.1m1.178-2.324c.212.038.37.224.6.159a.07.07,0,0,1,.052.008c.093.065.148.014.2-.059a.551.551,0,0,1,.05-.056c.414-.446.858-.861,1.293-1.285a.124.124,0,0,0,.037-.15.876.876,0,0,0-.872-.549.163.163,0,0,0-.141.092q-.394.671-.84,1.307l-.375.533m2.586-1.224a.429.429,0,0,0-.345.1c-.349.322-.69.653-1.005,1.008-.109.123-.212.251-.322.373-.046.05-.051.1,0,.139s.059-.034.083-.058c.043-.043.08-.091.12-.137a15.159,15.159,0,0,1,1.163-1.123,2.979,2.979,0,0,0,.311-.306m-2.037,1.508a.247.247,0,1,0,.008,0h-.008m.257.545a.112.112,0,0,0-.1.119.084.084,0,0,0,0,.013c.043.128.086.256.13.384.058.166.058.163.224.091.054-.024.073-.042.04-.1-.087-.151-.169-.3-.254-.457-.011-.02-.017-.049-.037-.05m.075-.109-.016.027c.079.057.157.114.237.17.021.014.051.041.066-.008s.046-.082,0-.1a.814.814,0,0,0-.286-.085" transform="translate(-16.116 -16.544)" fill="#707070"/>
        <path id="Path_3996" data-name="Path 3996" d="M12.635,18.355c-.022.047-.07.053-.113.063-.025.006-.059-.005-.047-.036.018-.049.07-.053.115-.061a.035.035,0,0,1,.044.022.039.039,0,0,1,0,.011" transform="translate(-8.193 -12.035)" fill="#707070"/>
        <rect id="Rectangle_2938" data-name="Rectangle 2938" width="0.178" height="19.501" transform="translate(21.1)" fill="#707070"/>
        <path id="Path_3997" data-name="Path 3997" d="M103.756,9.818c.092,0,.121-.018.12-.116,0-.718,0-1.437,0-2.156,0-.037,0-.074,0-.117.052.025.067.068.089.1.3.453.6.905.9,1.36.05.078.073.095.131,0,.219-.343.446-.682.67-1.022l.307-.461.028.011v.136c0,.719,0,1.438,0,2.156,0,.078.016.106.1.1.211-.006.422,0,.633,0,.065,0,.085-.017.085-.084q0-1.786,0-3.572c0-.076-.028-.086-.094-.085-.236,0-.472,0-.708,0a.136.136,0,0,0-.135.077q-.434.7-.871,1.4c-.02.032-.032.073-.077.09-.016-.023-.033-.046-.048-.07q-.444-.708-.882-1.42a.137.137,0,0,0-.134-.079c-.233,0-.466,0-.7,0-.071,0-.1.013-.1.093q0,1.775,0,3.551c0,.085.029.1.1.1.193,0,.387-.007.579,0" transform="translate(-67.71 -3.99)" fill="#707070"/>
        <path id="Path_3998" data-name="Path 3998" d="M94.181,28.546q.252-.007.5,0c.07,0,.1-.011.1-.092q0-1.781,0-3.561c0-.072-.023-.092-.092-.09-.2,0-.4.006-.6,0-.094,0-.12.022-.119.118,0,.679,0,1.359,0,2.038v.116l-.023.007c-.022-.027-.045-.054-.066-.081l-1.611-2.115c-.033-.044-.061-.082-.127-.081-.2,0-.408,0-.612,0-.061,0-.079.02-.079.081q0,1.791,0,3.583c0,.072.03.081.09.08.2,0,.394-.007.59,0,.1,0,.138-.017.137-.131-.007-.7,0-1.409,0-2.113,0-.035-.012-.074.018-.112.042.054.079.1.115.15q.815,1.064,1.624,2.132a.163.163,0,0,0,.152.073" transform="translate(-60.081 -16.292)" fill="#707070"/>
        <path id="Path_3999" data-name="Path 3999" d="M133.527,28.542c.293,0,.585,0,.9,0-.033-.051-.052-.084-.074-.116-.256-.374-.511-.75-.771-1.122-.053-.075-.055-.106.039-.146a1.259,1.259,0,0,0,.507-1.819,1.2,1.2,0,0,0-.975-.521c-.625-.042-1.252-.008-1.877-.018-.067,0-.074.031-.074.086q0,1.786,0,3.572c0,.077.031.087.1.086.207,0,.415-.006.622,0,.09,0,.1-.03.1-.109,0-.332,0-.665,0-1,0-.072.014-.1.093-.1.157.007.315,0,.472,0a.142.142,0,0,1,.139.074c.234.355.472.707.709,1.06.024.036.045.068.1.068m-.576-1.93c-.289.015-.579,0-.869.008-.053,0-.066-.02-.065-.07,0-.157,0-.315,0-.472s0-.307,0-.461c0-.06.015-.079.077-.079.279,0,.559,0,.837,0a.531.531,0,0,1,.525.734.52.52,0,0,1-.5.336" transform="translate(-86.188 -16.288)" fill="#707070"/>
        <path id="Path_4000" data-name="Path 4000" d="M140.6,35.713Z" transform="translate(-92.365 -23.461)" fill="#707070"/>
        <path id="Path_4001" data-name="Path 4001" d="M123.464,27.817c-.6.005-1.2,0-1.8,0-.083,0-.113-.021-.11-.107.006-.189.008-.379,0-.568,0-.1.029-.124.126-.123.512,0,1.024,0,1.535,0,.092,0,.114-.027.11-.114-.007-.168-.008-.336,0-.5,0-.087-.019-.115-.11-.114-.515,0-1.031,0-1.546,0-.086,0-.119-.017-.115-.11.007-.182.008-.365,0-.547,0-.1.031-.118.122-.117.6,0,1.2,0,1.793,0,.073,0,.1-.016.1-.094-.005-.172-.008-.343,0-.515,0-.1-.025-.118-.118-.117q-1.294,0-2.587,0c-.088,0-.115.022-.115.112,0,.587,0,1.173,0,1.76h0q0,.885,0,1.77c0,.055-.01.1.077.1q1.342,0,2.684,0c.061,0,.081-.019.08-.08,0-.175-.006-.351,0-.526,0-.1-.021-.126-.122-.125" transform="translate(-79.319 -16.294)" fill="#707070"/>
        <path id="Path_4002" data-name="Path 4002" d="M79.74,9.819c.208,0,.415,0,.623,0,.087,0,.117-.018.115-.11-.006-.315,0-.63,0-.944a.2.2,0,0,1,.059-.153c.1-.1.2-.2.3-.309.062-.072.094-.063.148.011.342.476.69.947,1.033,1.422a.171.171,0,0,0,.159.081c.261,0,.523,0,.784,0,.027,0,.058.012.082-.019-.018-.025-.035-.052-.054-.078-.48-.649-.959-1.3-1.443-1.947-.061-.081-.063-.127.009-.2q.609-.626,1.212-1.259a1.069,1.069,0,0,0,.206-.235c-.313,0-.613,0-.913,0a.137.137,0,0,0-.108.057l-.642.692-.8.864h0l-.027-.008V7.568c0-.465,0-.93,0-1.395,0-.075-.02-.1-.1-.1-.214,0-.429,0-.644,0-.068,0-.084.021-.084.085q0,1.786,0,3.573c0,.067.022.084.086.083" transform="translate(-52.327 -3.992)" fill="#707070"/>
        <path id="Path_4003" data-name="Path 4003" d="M79.484,26.913a2.563,2.563,0,0,0,.026.416,1.378,1.378,0,0,0,.766,1.106,2.084,2.084,0,0,0,1.027.157,1.434,1.434,0,0,0,1.421-1.385c.044-.775.008-1.552.019-2.327,0-.062-.023-.08-.082-.079-.215,0-.43,0-.644,0-.076,0-.1.024-.1.1,0,.368,0,.737,0,1.105h-.007c0,.365.011.73,0,1.094a.7.7,0,0,1-.42.671.814.814,0,0,1-1.19-.815c-.006-.676,0-1.352,0-2.028,0-.093-.016-.132-.121-.127-.193.01-.387.008-.579,0-.092,0-.121.019-.12.117,0,.666,0,1.331,0,2" transform="translate(-52.214 -16.291)" fill="#707070"/>
        <path id="Path_4004" data-name="Path 4004" d="M116.436,8.171a2.608,2.608,0,0,0,.044.5,1.337,1.337,0,0,0,1,1.128,2.163,2.163,0,0,0,1.166,0,1.309,1.309,0,0,0,.894-.755,2.024,2.024,0,0,0,.161-.824c0-.322,0-.644,0-.965h0c0-.361,0-.722,0-1.083,0-.083-.025-.1-.1-.1-.2.005-.4.008-.6,0-.1,0-.119.024-.118.118,0,.687,0,1.374,0,2.06a.764.764,0,0,1-.673.86.749.749,0,0,1-.915-.589,1.561,1.561,0,0,1-.039-.361c0-.658,0-1.316,0-1.974,0-.086-.017-.118-.11-.114-.192.007-.386.008-.579,0-.1,0-.132.018-.131.126.006.658,0,1.316,0,1.974" transform="translate(-76.488 -3.988)" fill="#707070"/>
        <path id="Path_4005" data-name="Path 4005" d="M139.291,7.267c0,.286,0,.572,0,.858a2.862,2.862,0,0,0,.041.544,1.353,1.353,0,0,0,.744,1.038,2.013,2.013,0,0,0,1.121.154,1.478,1.478,0,0,0,.9-.389,1.561,1.561,0,0,0,.452-1.146c.012-.722,0-1.444.007-2.167,0-.066-.019-.086-.085-.084-.208,0-.415.006-.623,0-.089,0-.113.023-.113.112,0,.672,0,1.345,0,2.017a1.468,1.468,0,0,1-.018.245.7.7,0,0,1-.494.628.823.823,0,0,1-.9-.2.956.956,0,0,1-.214-.679c0-.676,0-1.352,0-2.028,0-.07-.011-.1-.092-.1q-.316.008-.633,0c-.077,0-.1.024-.095.1,0,.365,0,.729,0,1.094Z" transform="translate(-91.502 -3.991)" fill="#707070"/>
        <path id="Path_4006" data-name="Path 4006" d="M128.3,8.907a.761.761,0,0,0-.245.665.644.644,0,0,1,0,.161c-.006.067.02.084.085.084q1.476,0,2.951,0c.069,0,.083-.025.082-.088,0-.175-.006-.35,0-.525,0-.087-.026-.106-.108-.105-.6,0-1.209,0-1.814,0h-.116a.209.209,0,0,1,.068-.108l1.623-1.886a1.579,1.579,0,0,0,.327-.406,1.616,1.616,0,0,0,.019-.52.11.11,0,0,1,0-.021c.01-.066-.019-.084-.084-.084q-1.438,0-2.877,0c-.08,0-.094.029-.092.1,0,.175.006.351,0,.526,0,.084.026.1.1.1.562,0,1.123,0,1.685,0h.2c-.033.045-.048.068-.066.089-.58.674-1.154,1.355-1.746,2.02" transform="translate(-84.117 -3.991)" fill="#707070"/>
        <path id="Path_4007" data-name="Path 4007" d="M89.945,9.768q.327-.006.655,0a.106.106,0,0,0,.117-.079c.088-.225.184-.449.272-.674a.115.115,0,0,1,.125-.086q.7,0,1.406,0a.12.12,0,0,1,.132.092c.087.226.182.45.274.674.013.031.016.072.066.072h.814c-.018-.045-.029-.078-.043-.11l-.515-1.211q-.5-1.181-1.006-2.363A.106.106,0,0,0,92.129,6c-.2,0-.4,0-.6,0a.1.1,0,0,0-.108.076c-.076.188-.158.375-.238.562q-.646,1.522-1.3,3.042c-.033.076-.015.088.06.087m1.4-1.633c.152-.365.3-.73.45-1.1,0-.009.014-.016.03-.034h0l.27.654c.064.155.125.31.191.464.027.063.022.089-.056.089-.275,0-.55,0-.825,0-.056,0-.091,0-.061-.077" transform="translate(-59.037 -3.942)" fill="#707070"/>
        <path id="Path_4008" data-name="Path 4008" d="M144.232,26.455a2.788,2.788,0,0,0-.618-.236,3.378,3.378,0,0,1-.7-.228.3.3,0,0,1-.173-.3.3.3,0,0,1,.193-.272.7.7,0,0,1,.336-.051,1.629,1.629,0,0,1,.853.315c.062.042.091.036.132-.027q.152-.234.317-.458c.046-.063.047-.094-.022-.143a2.133,2.133,0,0,0-1.627-.384,1.1,1.1,0,0,0-.995,1.168.911.911,0,0,0,.54.845,3.1,3.1,0,0,0,.522.19,4.254,4.254,0,0,1,.714.225.318.318,0,0,1,.223.33.337.337,0,0,1-.268.3,1.1,1.1,0,0,1-.531.018,1.666,1.666,0,0,1-.767-.36c-.082-.066-.124-.052-.183.025-.106.139-.22.273-.337.4-.052.059-.054.09.011.142a2.4,2.4,0,0,0,1.506.532h0a2.108,2.108,0,0,0,.342-.026,1.132,1.132,0,0,0,1.033-.984.975.975,0,0,0-.5-1.028" transform="translate(-93.152 -16.188)" fill="#707070"/>
        <path id="Path_4009" data-name="Path 4009" d="M111.776,24.8q-.338.008-.676,0a.121.121,0,0,0-.136.1q-.413,1.12-.83,2.237a1.247,1.247,0,0,1-.119.283h0c-.015-.033-.027-.058-.037-.084q-.456-1.218-.9-2.438a.122.122,0,0,0-.139-.1c-.236,0-.472,0-.708,0-.078,0-.091.018-.061.089.085.2.165.4.246.6q.6,1.494,1.2,2.99a.111.111,0,0,0,.124.086c.182,0,.365,0,.547,0a.1.1,0,0,0,.12-.075c.116-.3.237-.6.357-.894q.541-1.351,1.087-2.7c.035-.085.016-.1-.07-.1" transform="translate(-71.047 -16.29)" fill="#707070"/>
        <path id="Path_4010" data-name="Path 4010" d="M169.011,28.429c-.007-.429,0-.858,0-1.287a.26.26,0,0,1,.041-.151q.494-.771.987-1.543l.412-.646h-.9c-.044,0-.057.038-.075.068l-.366.6-.493.813h0a.181.181,0,0,1-.073-.087c-.259-.436-.52-.87-.775-1.308a.165.165,0,0,0-.169-.095c-.239.006-.479,0-.719,0-.034,0-.081-.019-.1.016s.024.063.042.092q.654,1.032,1.311,2.062a.366.366,0,0,1,.061.21c0,.422,0,.844,0,1.266,0,.075.02.1.1.1.2-.005.4-.006.6,0,.091,0,.122-.016.12-.116" transform="translate(-109.561 -16.289)" fill="#707070"/>
        <path id="Path_4011" data-name="Path 4011" d="M159.918,24.8c-.48,0-.959,0-1.439,0h0c-.483,0-.966,0-1.45,0-.081,0-.1.021-.1.1.007.182.007.365,0,.547,0,.089.029.106.109.1.3,0,.594,0,.891,0,.145,0,.145,0,.145.144,0,.912,0,1.824,0,2.736,0,.089.022.116.112.113.19-.008.38-.008.569,0,.1,0,.138-.017.137-.131-.006-.912,0-1.824-.006-2.736,0-.107.031-.131.132-.129.3.007.609,0,.913,0,.082,0,.1-.024.1-.1-.005-.179-.006-.358,0-.537,0-.087-.019-.116-.111-.115" transform="translate(-103.089 -16.293)" fill="#707070"/>
        <path id="Path_4012" data-name="Path 4012" d="M153.305,28.547c.066,0,.085-.019.085-.085q0-1.785,0-3.57c0-.073-.025-.091-.093-.09-.211,0-.422.005-.633,0-.081,0-.1.023-.1.1,0,.589,0,1.179,0,1.769h0c0,.586,0,1.172,0,1.758,0,.1.028.119.12.116.207-.007.415,0,.622,0" transform="translate(-100.222 -16.293)" fill="#707070"/>
        <path id="Path_4013" data-name="Path 4013" d="M104.02,28.548c.2-.007.408,0,.612,0,.064,0,.086-.015.086-.083q0-1.786,0-3.572c0-.074-.026-.09-.093-.089-.2,0-.408.006-.612,0-.089,0-.114.021-.114.111,0,.586,0,1.172,0,1.759s0,1.173,0,1.759c0,.1.028.119.12.116" transform="translate(-68.254 -16.293)" fill="#707070"/>
        <path id="Path_4014" data-name="Path 4014" d="M160.744,43.131c-.079,0-.1.02-.1.1,0,.426,0,.851,0,1.277,0,.037.014.077-.02.12l-.081-.1c-.311-.4-.629-.8-.929-1.207a.4.4,0,0,0-.4-.194c-.092.01-.109.034-.108.119,0,.608,0,1.216,0,1.824,0,.264,0,.258.259.266.1,0,.117-.028.116-.119,0-.471,0-.943,0-1.428h0a.266.266,0,0,1,.1.1c.331.426.668.848.989,1.282a.353.353,0,0,0,.346.166c.092-.008.109-.034.108-.119,0-.6,0-1.209,0-1.813,0-.277,0-.274-.28-.275" transform="translate(-104.521 -28.33)" fill="#707070"/>
        <path id="Path_4015" data-name="Path 4015" d="M80.648,43.044h0a1.119,1.119,0,0,0-1.16,1.131c0,.02,0,.04,0,.06a1.116,1.116,0,0,0,1.146,1.084h.039a1.129,1.129,0,0,0,1.117-1.141,1.111,1.111,0,0,0-1.142-1.136m-.02,1.921h0l-.04,0a.79.79,0,0,1,.071-1.575.775.775,0,0,1,.732.808.749.749,0,0,1-.763.768" transform="translate(-52.217 -28.277)" fill="#707070"/>
        <path id="Path_4016" data-name="Path 4016" d="M104.926,45c-.357,0-.715,0-1.073,0-.07,0-.093-.021-.091-.091,0-.136.006-.272,0-.407,0-.082.018-.112.106-.11.257.006.515,0,.773,0,.228,0,.223,0,.228-.231,0-.091-.032-.1-.11-.1-.3,0-.6,0-.9,0-.067,0-.1-.014-.094-.088,0-.136,0-.272,0-.407,0-.071.024-.091.092-.09.3,0,.608,0,.912,0,.254,0,.25,0,.252-.249,0-.077-.024-.094-.1-.094q-.724,0-1.448,0c-.084,0-.1.027-.1.1,0,.332,0,.665,0,1h0c0,.332,0,.665,0,1,0,.087.027.106.109.106.437,0,.873,0,1.309,0,.24,0,.236,0,.238-.242,0-.083-.026-.1-.1-.1" transform="translate(-67.909 -28.342)" fill="#707070"/>
        <path id="Path_4017" data-name="Path 4017" d="M174.705,45c-.358,0-.716,0-1.073,0-.069,0-.093-.018-.091-.09.006-.143.006-.286,0-.429,0-.074.026-.089.093-.089.265,0,.53,0,.795,0,.229,0,.225,0,.228-.232,0-.081-.023-.1-.1-.1-.3,0-.609,0-.913,0-.082,0-.1-.024-.1-.1a3.606,3.606,0,0,0,0-.375c0-.082.019-.11.105-.108.3.005.6,0,.9,0,.245,0,.242,0,.244-.247,0-.074-.019-.1-.1-.1q-.719,0-1.439,0c-.073,0-.1.019-.1.1,0,.336,0,.672,0,1.009s0,.665,0,1c0,.079.019.1.1.1.437,0,.873,0,1.31,0,.241,0,.236,0,.242-.237,0-.089-.027-.105-.108-.1" transform="translate(-113.753 -28.342)" fill="#707070"/>
        <path id="Path_4018" data-name="Path 4018" d="M154.482,45c-.358.005-.716,0-1.074,0-.066,0-.1-.012-.094-.087.006-.143.005-.286,0-.429,0-.072.023-.092.092-.091.261,0,.523,0,.784,0,.231,0,.226,0,.231-.23,0-.09-.032-.106-.111-.1-.3,0-.6,0-.9,0-.067,0-.1-.015-.094-.089.005-.136.005-.272,0-.408,0-.073.025-.09.093-.089.3,0,.6,0,.9,0,.267,0,.265,0,.256-.266,0-.065-.027-.076-.083-.076q-.73,0-1.46,0c-.072,0-.09.023-.089.092,0,.336,0,.672,0,1.009h0c0,.332,0,.665,0,1,0,.088.027.106.109.1.437,0,.873,0,1.31,0,.235,0,.231,0,.235-.234,0-.082-.018-.109-.105-.108" transform="translate(-100.465 -28.342)" fill="#707070"/>
        <path id="Path_4019" data-name="Path 4019" d="M129.394,44.249v-.837c0-.282,0-.279-.287-.279-.077,0-.1.024-.094.1,0,.247,0,.494,0,.741,0,.06-.017.08-.078.08-.3,0-.6,0-.9,0-.072,0-.081-.029-.08-.089,0-.179,0-.358,0-.537,0-.094.045-.223-.022-.274s-.186-.012-.281-.019c-.07-.005-.082.026-.082.088q0,1.014,0,2.028c0,.063.015.092.084.087a1.4,1.4,0,0,1,.214,0c.072.006.091-.021.09-.091,0-.254,0-.508,0-.762,0-.061.017-.078.079-.078.3,0,.6,0,.9,0,.072,0,.081.028.08.088,0,.186,0,.372,0,.558,0,.29,0,.287.291.285.071,0,.091-.021.09-.091C129.392,44.914,129.394,44.581,129.394,44.249Z" transform="translate(-83.804 -28.332)" fill="#707070"/>
        <path id="Path_4020" data-name="Path 4020" d="M98.2,43.146c-.057-.057-.177-.01-.269-.019-.074-.007-.1.017-.1.094,0,.247,0,.493,0,.74,0,.057-.012.083-.077.083q-.456,0-.912,0c-.058,0-.072-.021-.072-.075,0-.185,0-.371,0-.557,0-.091.042-.21-.02-.266s-.178-.009-.27-.018c-.077-.008-.1.023-.1.1,0,.332,0,.665,0,1v.826c0,.289,0,.286.292.284.076,0,.1-.024.095-.1,0-.247,0-.493,0-.74,0-.064.008-.1.085-.094q.445.008.89,0c.077,0,.087.03.086.094,0,.186,0,.372,0,.557,0,.282,0,.278.286.28.084,0,.1-.027.1-.1,0-.6,0-1.208,0-1.812,0-.092.04-.211-.017-.268" transform="translate(-63.319 -28.325)" fill="#707070"/>
        <path id="Path_4021" data-name="Path 4021" d="M110.481,43.348c-.108-.246-.107-.242-.374-.246a.122.122,0,0,0-.131.093c-.173.4-.349.8-.524,1.2-.123.281-.244.563-.369.843-.029.066-.02.09.056.085a1.9,1.9,0,0,1,.225,0,.091.091,0,0,0,.1-.067c.052-.132.113-.262.166-.394a.1.1,0,0,1,.108-.078c.3,0,.594,0,.891,0a.1.1,0,0,1,.111.076c.052.133.11.263.165.4.015.038.031.069.082.068.11,0,.221,0,.331,0h0a.151.151,0,0,0-.023-.1l-.82-1.873m.015,1.1h-.611c-.035,0-.081,0-.055-.057l.359-.836h0l.268.615c.029.069.055.14.088.206s.006.073-.05.073" transform="translate(-71.65 -28.314)" fill="#707070"/>
        <path id="Path_4022" data-name="Path 4022" d="M138.356,44.141a1.475,1.475,0,0,0-.28-.107,2.894,2.894,0,0,1-.471-.142c-.137-.066-.182-.137-.168-.267a.249.249,0,0,1,.205-.219.791.791,0,0,1,.55.074c.074.033.139.137.215.1s.1-.134.155-.2c.036-.045.027-.067-.018-.1a1.317,1.317,0,0,0-.765-.236h0a.7.7,0,0,0-.212.032.632.632,0,0,0-.514.547.559.559,0,0,0,.425.635c.06.023.122.039.183.058a3.223,3.223,0,0,1,.45.136.245.245,0,0,1,.171.224.273.273,0,0,1-.24.283.88.88,0,0,1-.752-.194c-.084-.065-.12-.055-.181.024-.154.2-.162.2.061.328a1.2,1.2,0,0,0,1.186.084.57.57,0,0,0,.311-.557.528.528,0,0,0-.312-.5" transform="translate(-89.998 -28.274)" fill="#707070"/>
        <path id="Path_4023" data-name="Path 4023" d="M167.942,44.766c-.05-.071-.092-.08-.166-.014a.753.753,0,0,1-1.28-.6.752.752,0,0,1,.379-.666.732.732,0,0,1,.765.023c.075.042.137.155.214.129s.122-.133.188-.2c.045-.045.038-.07-.007-.108a1.15,1.15,0,0,0-.807-.286h0a.97.97,0,0,0-.45.084,1.072,1.072,0,0,0-.681.972,1.061,1.061,0,0,0,.582,1.086,1.129,1.129,0,0,0,1.261-.1c.179-.132.176-.137.024-.29a.18.18,0,0,1-.022-.024" transform="translate(-109.111 -28.275)" fill="#707070"/>
        <path id="Path_4024" data-name="Path 4024" d="M144.578,44.789a.745.745,0,0,1-1.19-.318.841.841,0,0,1,.229-.92.747.747,0,0,1,.872-.043c.072.044.134.151.207.128s.119-.127.183-.189.046-.08-.008-.126a1.14,1.14,0,0,0-.793-.278h0a.981.981,0,0,0-.457.084,1.074,1.074,0,0,0-.681,1.006,1.052,1.052,0,0,0,.6,1.061,1.128,1.128,0,0,0,1.258-.13c.158-.122.155-.127.019-.262-.114-.114-.114-.114-.246-.013" transform="translate(-93.9 -28.275)" fill="#707070"/>
        <path id="Path_4025" data-name="Path 4025" d="M89.106,43.143q-.73,0-1.46,0c-.075,0-.1.021-.1.1,0,.333,0,.666,0,1,0,.272,0,.544,0,.815,0,.1-.044.225.021.276s.185.012.281.019c.066,0,.086-.019.085-.085,0-.233,0-.465,0-.7,0-.091.019-.126.118-.122.25.007.5,0,.752,0s.244,0,.247-.244c0-.08-.021-.1-.1-.1-.3.005-.6,0-.9,0-.092,0-.117-.029-.112-.116a3.338,3.338,0,0,0,0-.375c-.005-.092.018-.124.117-.121.3.007.6,0,.9,0,.249,0,.246,0,.247-.254,0-.076-.022-.1-.1-.1" transform="translate(-57.507 -28.342)" fill="#707070"/>
        <path id="Path_4026" data-name="Path 4026" d="M122.83,43.144c-.476,0-.952,0-1.428,0-.274,0-.271,0-.265.27,0,.07.029.082.09.081.146,0,.293,0,.44,0,.195,0,.173-.028.174.168,0,.465,0,.93,0,1.395,0,.295,0,.292.3.289.073,0,.089-.024.089-.093,0-.279,0-.558,0-.837h0c0-.272,0-.544,0-.815,0-.093.028-.115.115-.109.11.008.222,0,.333,0,.259,0,.256,0,.256-.258,0-.077-.024-.094-.1-.094" transform="translate(-79.577 -28.342)" fill="#707070"/>
        <path id="Path_4027" data-name="Path 4027" d="M118.262,45c-.318.005-.637,0-.955,0-.091,0-.114-.027-.113-.115,0-.486,0-.972,0-1.458,0-.3,0-.293-.3-.289-.075,0-.086.031-.085.1,0,.336,0,.672,0,1.008h0c0,.318,0,.636,0,.954,0,.157-.032.145.15.145h1.159c.239,0,.236,0,.239-.241,0-.078-.018-.1-.1-.1" transform="translate(-76.737 -28.339)" fill="#707070"/>
        <path id="Path_4028" data-name="Path 4028" d="M150.429,43.148c-.059-.057-.178-.01-.269-.02s-.1.02-.1.1c0,.6,0,1.208,0,1.812,0,.3,0,.293.3.291.071,0,.09-.022.09-.091,0-.336,0-.672,0-1.008,0-.275,0-.55,0-.825,0-.089.039-.206-.016-.259" transform="translate(-98.577 -28.326)" fill="#707070"/>
        <path id="Path_4029" data-name="Path 4029" d="M180.511,44.289c-.011-.011-.022-.023-.033-.033l-.022-.02a1.16,1.16,0,0,0-.336-.173,2.166,2.166,0,0,1-.63-.22c-.175-.09-.04-.328-.04-.328.238-.277.717-.028.717-.028a.481.481,0,0,1,.085.06l.04.027a.116.116,0,0,0,.083.011c.065-.03.1-.129.149-.191s.033-.086-.023-.125a1.246,1.246,0,0,0-.682-.222.813.813,0,0,0-.106,0,.844.844,0,0,0-.114.015h0a.833.833,0,0,0-.091.023l-.054.018-.049.02c-.014.006-.028.014-.043.022s-.038.017-.056.028a.57.57,0,0,0-.274.432v0h0a.845.845,0,0,0,0,.162.517.517,0,0,0,.325.444,2.011,2.011,0,0,0,.261.094c.146.046.3.068.442.129s.209.141.2.28a.279.279,0,0,1-.251.241.892.892,0,0,1-.637-.122c-.073-.041-.136-.145-.211-.12s-.11.126-.171.186-.032.084.017.116a2.073,2.073,0,0,0,.235.149,1.189,1.189,0,0,0,1.074.04.577.577,0,0,0,.327-.57.524.524,0,0,0-.126-.351" transform="translate(-117.558 -28.278)" fill="#707070"/>
      </g>
    </g>
  </g>
</svg>
