<svg xmlns="http://www.w3.org/2000/svg" xmlns:xlink="http://www.w3.org/1999/xlink" width="152.978" height="50.677" viewBox="0 0 152.978 50.677"><defs><clipPath id="a"><rect width="152.978" height="50.677" fill="none"/></clipPath></defs><g clip-path="url(#a)"><path d="M995.942,0c0,.1-.01.195-.01.292q0,24.843,0,49.685c0,.177-.008.355,0,.532.006.13-.046.166-.17.168s-.171-.048-.166-.172c.007-.168,0-.337,0-.506q0-24.869,0-49.738A.531.531,0,0,0,995.569,0Z" transform="translate(-942.521)" fill="#fff"/><path d="M20.535,50.165H37.579a1.775,1.775,0,0,1,1.887,1.395,40.037,40.037,0,0,1,1.32,6.7,42.68,42.68,0,0,1,.07,9.185,39.575,39.575,0,0,1-2.517,10.491,34.577,34.577,0,0,1-6.218,10.311A31.828,31.828,0,0,1,23,95.484c-.557.294-1.127.562-1.707.808a1.875,1.875,0,0,1-1.548-.009,28.58,28.58,0,0,1-5.1-2.9A32.585,32.585,0,0,1,9.4,88.738a33.736,33.736,0,0,1-4.96-7.083A38.323,38.323,0,0,1,.76,71.124a41.7,41.7,0,0,1-.722-6.2A43.194,43.194,0,0,1,.385,57.44,41.081,41.081,0,0,1,1.56,51.688a1.832,1.832,0,0,1,2.011-1.521l14.195,0h2.77m.018,1.371H4.041a1.13,1.13,0,0,0-1.228.915,39.675,39.675,0,0,0-1.3,6.809,40.644,40.644,0,0,0-.05,8.046,38.049,38.049,0,0,0,1.13,6.3,35.689,35.689,0,0,0,3.178,7.986,31.557,31.557,0,0,0,7.7,9.317,27.949,27.949,0,0,0,6.539,4.051,1.212,1.212,0,0,0,1.007.017c.374-.163.747-.329,1.112-.511a29.258,29.258,0,0,0,6.662-4.588,31.812,31.812,0,0,0,6.944-9.111,36.338,36.338,0,0,0,2.9-7.78,38.589,38.589,0,0,0,1.125-8.1,40.534,40.534,0,0,0-.284-6.318,39.452,39.452,0,0,0-1.22-6.12,1.118,1.118,0,0,0-1.22-.921H20.553" transform="translate(0 -47.492)" fill="#fff"/><path d="M1588.13,113.223c-.254.381-.51.762-.762,1.144-.556.843-1.118,1.683-1.662,2.534-.144.225-.2.183-.325-.01-.734-1.129-1.479-2.251-2.223-3.374-.056-.084-.091-.19-.221-.251,0,.106-.012.2-.012.291,0,1.783-.006,3.565.006,5.348,0,.244-.071.3-.3.288-.479-.018-.958-.013-1.437,0-.188,0-.261-.033-.26-.244q.011-4.4,0-8.806c0-.2.071-.232.247-.229.577.009,1.154.01,1.73,0a.339.339,0,0,1,.333.2q1.088,1.764,2.188,3.521c.037.059.078.116.118.173.112-.043.141-.143.19-.223q1.083-1.737,2.16-3.477a.337.337,0,0,1,.334-.19c.586.011,1.172.01,1.757,0,.162,0,.232.023.232.211q-.009,4.43,0,8.86c0,.167-.05.211-.211.208-.523-.009-1.047-.014-1.571,0-.207.006-.248-.065-.247-.257.007-1.783,0-3.565,0-5.348v-.338l-.069-.026" transform="translate(-1496.695 -104.053)" fill="#fff"/><path d="M1401.71,414.549v-.287c0-1.685,0-3.37-.006-5.054,0-.237.062-.3.3-.293.5.018.994.011,1.491,0,.17,0,.227.045.227.224q-.009,4.416,0,8.832c0,.2-.072.233-.246.228q-.625-.016-1.251,0a.405.405,0,0,1-.376-.183q-2.007-2.648-4.027-5.288l-.286-.372c-.074.094-.044.191-.044.278,0,1.747-.01,3.494.006,5.241,0,.283-.084.336-.34.325-.487-.02-.976-.01-1.464,0-.148,0-.222-.019-.222-.2q.008-4.443,0-8.885c0-.15.043-.2.195-.2.506.007,1.012.009,1.517,0,.163,0,.233.093.315.2q2,2.624,3.994,5.246c.052.069.109.134.163.2l.057-.017" transform="translate(-1321.111 -387.125)" fill="#fff"/><path d="M2038.063,418.082c-.776,0-1.5,0-2.228,0-.134,0-.184-.078-.244-.168-.587-.876-1.178-1.749-1.759-2.629a.352.352,0,0,0-.344-.183c-.39.011-.781.015-1.171,0-.195-.008-.231.06-.229.239.01.824,0,1.649.008,2.474,0,.2-.032.279-.255.271-.514-.018-1.029-.011-1.544,0-.16,0-.236-.024-.236-.214q.009-4.429,0-8.858c0-.135.017-.215.184-.212,1.552.025,3.106-.061,4.656.044a2.984,2.984,0,0,1,2.419,1.292,3.122,3.122,0,0,1-1.258,4.512c-.232.1-.227.175-.1.362.645.922,1.276,1.853,1.912,2.782.054.079.1.162.184.288m-5.971-6.107c0,.39,0,.781,0,1.171,0,.122.029.174.161.172.719-.008,1.439.017,2.156-.02a1.289,1.289,0,0,0,1.251-.833,1.316,1.316,0,0,0-1.3-1.821c-.692-.017-1.385,0-2.077-.009-.154,0-.2.046-.191.2.01.381,0,.763,0,1.144" transform="translate(-1921.891 -387.009)" fill="#fff"/><path d="M1863.1,413.563c0-1.455,0-2.909-.005-4.364,0-.224.066-.278.284-.278q3.208.012,6.417,0c.232,0,.306.051.294.291-.022.425-.016.851,0,1.277.006.192-.06.233-.241.233-1.482-.007-2.964,0-4.447-.009-.227,0-.314.049-.3.292.019.452.018.9,0,1.357-.009.229.073.274.286.273,1.278-.01,2.556,0,3.834-.01.227,0,.282.065.273.282-.017.416-.017.834,0,1.25.009.215-.044.286-.274.284-1.269-.012-2.538,0-3.807-.011-.24,0-.324.054-.313.305.021.469.015.94,0,1.41-.006.214.068.266.274.265,1.491-.008,2.982,0,4.473-.011.252,0,.313.072.3.31-.019.434-.011.869,0,1.3,0,.151-.046.2-.2.2q-3.328-.006-6.656,0c-.216,0-.192-.121-.192-.256q0-2.2,0-4.39" transform="translate(-1763.824 -387.132)" fill="#fff"/><path d="M1209.109,113.905l1.989-2.143,1.592-1.715a.339.339,0,0,1,.268-.141c.744.007,1.489,0,2.264,0a2.654,2.654,0,0,1-.511.583q-1.5,1.569-3.007,3.123c-.18.184-.175.3-.024.5,1.2,1.6,2.388,3.217,3.578,4.827.047.063.089.129.133.193-.061.076-.137.046-.2.047-.648,0-1.3-.006-1.944.005a.423.423,0,0,1-.394-.2c-.85-1.179-1.713-2.348-2.562-3.528-.133-.185-.212-.207-.367-.029-.233.267-.487.516-.738.767a.486.486,0,0,0-.146.378c.007.78-.006,1.561.009,2.341,0,.229-.069.281-.285.274-.514-.016-1.029-.013-1.544-.005-.159,0-.214-.041-.214-.207q.007-4.43,0-8.861c0-.159.039-.215.207-.211.532.011,1.065.011,1.6,0,.188,0,.238.053.237.238-.008,1.153,0,2.306,0,3.459v.282l.068.021" transform="translate(-1142.689 -104.049)" fill="#fff"/><path d="M1210.322,411.868c0-.914,0-1.827,0-2.741,0-.184.05-.247.239-.243.532.011,1.065.007,1.6,0,.148,0,.206.043.2.2-.027,1.924.063,3.85-.047,5.772a3.555,3.555,0,0,1-3.524,3.436,5.166,5.166,0,0,1-2.547-.39,3.416,3.416,0,0,1-1.9-2.743,6.366,6.366,0,0,1-.065-1.033c0-1.65.006-3.3-.006-4.95,0-.242.068-.3.3-.29.479.017.959.022,1.438,0,.26-.013.3.083.3.314-.009,1.676-.014,3.353,0,5.03a2.019,2.019,0,0,0,2.951,2.021,1.737,1.737,0,0,0,1.04-1.664c.035-.9.008-1.809.008-2.713h.017" transform="translate(-1140.102 -387.093)" fill="#fff"/><path d="M1802.387,112.8c0,.8,0,1.6,0,2.395a5.016,5.016,0,0,1-.4,2.044,3.245,3.245,0,0,1-2.216,1.873,5.353,5.353,0,0,1-2.89,0,3.316,3.316,0,0,1-2.476-2.8,6.459,6.459,0,0,1-.108-1.243c.006-1.632.01-3.264,0-4.9,0-.267.076-.322.325-.312.478.02.959.019,1.437,0,.23-.009.274.071.273.284-.009,1.632-.005,3.264,0,4.9a3.888,3.888,0,0,0,.1.9,1.857,1.857,0,0,0,2.269,1.46,1.9,1.9,0,0,0,1.67-2.134c0-1.7.006-3.406,0-5.108,0-.234.056-.3.293-.293.5.02.994.015,1.491,0,.194-.005.258.039.255.246-.012.9-.005,1.791-.005,2.687" transform="translate(-1698.683 -104.011)" fill="#fff"/><path d="M2159.243,112.849c0-.9,0-1.809,0-2.714,0-.182.043-.246.235-.241.523.013,1.047.014,1.571,0,.2-.006.227.073.227.246-.006,1.676-.009,3.352,0,5.028a2.375,2.375,0,0,0,.532,1.683,2.043,2.043,0,0,0,2.232.489,1.749,1.749,0,0,0,1.224-1.557,3.676,3.676,0,0,0,.043-.609c0-1.667.006-3.335,0-5,0-.221.058-.285.279-.278.514.016,1.029.011,1.544,0,.164,0,.211.045.21.209-.008,1.791.013,3.583-.017,5.374a3.868,3.868,0,0,1-1.121,2.841,3.658,3.658,0,0,1-2.225.964,4.979,4.979,0,0,1-2.781-.382,3.354,3.354,0,0,1-1.845-2.574,7.059,7.059,0,0,1-.1-1.35c0-.709,0-1.419,0-2.128" transform="translate(-2044.186 -104.038)" fill="#fff"/><path d="M1984.858,111.709h-.506c-1.393,0-2.786,0-4.179,0-.192,0-.265-.039-.257-.247.017-.434.013-.869,0-1.3,0-.174.03-.247.228-.246q3.567.01,7.134,0c.162,0,.233.045.209.209a.385.385,0,0,0,0,.053,4.008,4.008,0,0,1-.045,1.291,3.917,3.917,0,0,1-.811,1.005q-2.012,2.339-4.024,4.677a.523.523,0,0,0-.168.268h.287c1.5,0,3,0,4.5,0,.2,0,.277.044.268.261-.018.434-.011.869,0,1.3,0,.154-.032.218-.2.217q-3.66-.008-7.32,0c-.161,0-.226-.045-.21-.21a1.564,1.564,0,0,0,0-.4,1.886,1.886,0,0,1,.608-1.65c1.468-1.648,2.89-3.336,4.329-5.009.045-.052.083-.111.164-.22" transform="translate(-1874.243 -104.059)" fill="#fff"/><path d="M1379.847,118.093c-.69,0-1.354,0-2.017,0-.123,0-.132-.1-.164-.178-.229-.556-.463-1.111-.68-1.672a.3.3,0,0,0-.328-.229q-1.744.012-3.487,0a.285.285,0,0,0-.311.214c-.219.56-.456,1.113-.675,1.673a.263.263,0,0,1-.292.2q-.812-.015-1.624,0c-.184,0-.229-.027-.148-.216q1.614-3.769,3.215-7.543c.2-.464.4-.925.59-1.392a.244.244,0,0,1,.268-.188c.5.01.994.011,1.491,0a.263.263,0,0,1,.286.2q1.242,2.932,2.493,5.861.639,1.5,1.277,3c.034.08.063.161.106.272m-4.907-6.847c-.041.045-.065.061-.075.084-.373.905-.741,1.813-1.118,2.717-.075.18.012.191.152.19.682,0,1.363-.005,2.045,0,.192,0,.2-.064.138-.219-.164-.381-.316-.767-.474-1.151-.22-.536-.442-1.071-.669-1.622" transform="translate(-1297.079 -102.961)" fill="#fff"/><path d="M2203.217,415.973a5.955,5.955,0,0,1-3.735-1.319c-.162-.13-.158-.208-.028-.353.289-.324.571-.656.834-1,.147-.192.249-.225.453-.061a4.133,4.133,0,0,0,1.9.892,2.719,2.719,0,0,0,1.316-.044.839.839,0,0,0,.663-.742.789.789,0,0,0-.552-.819,10.523,10.523,0,0,0-1.769-.557,7.627,7.627,0,0,1-1.294-.473,2.259,2.259,0,0,1-1.339-2.094,2.721,2.721,0,0,1,2.468-2.9,5.288,5.288,0,0,1,4.034.953c.169.12.168.2.054.354q-.409.556-.785,1.137c-.1.157-.172.171-.328.067a4.037,4.037,0,0,0-2.114-.782,1.738,1.738,0,0,0-.832.127.753.753,0,0,0-.479.676.74.74,0,0,0,.429.733,8.382,8.382,0,0,0,1.737.565,6.926,6.926,0,0,1,1.533.587,2.417,2.417,0,0,1,1.24,2.549,2.805,2.805,0,0,1-2.561,2.439,5.194,5.194,0,0,1-.848.064" transform="translate(-2082.167 -384.772)" fill="#fff"/><path d="M1666.663,415.433a3.1,3.1,0,0,0,.294-.7q1.037-2.771,2.059-5.548a.3.3,0,0,1,.338-.243q.838.02,1.677,0c.213,0,.259.035.173.247q-1.356,3.345-2.7,6.7c-.3.739-.6,1.476-.886,2.219a.259.259,0,0,1-.3.186c-.453-.008-.906-.011-1.358,0a.275.275,0,0,1-.306-.214q-1.48-3.71-2.973-7.415c-.2-.5-.4-1-.61-1.5-.074-.175-.04-.223.152-.22.586.01,1.172.011,1.757,0a.3.3,0,0,1,.344.238q1.112,3.026,2.242,6.045c.024.064.054.125.09.208" transform="translate(-1573.48 -387.151)" fill="#fff"/><path d="M2602.771,412.521l1.223-2.017q.454-.75.908-1.5c.045-.074.077-.169.186-.169.724,0,1.448,0,2.222,0-.359.563-.69,1.083-1.022,1.6q-1.223,1.914-2.449,3.826a.651.651,0,0,0-.1.374c0,1.064-.007,2.128.009,3.192,0,.247-.073.294-.3.286-.5-.017-.994-.014-1.49,0-.188,0-.239-.052-.237-.238.009-1.046,0-2.093.008-3.139a.908.908,0,0,0-.152-.521q-1.63-2.554-3.25-5.115c-.046-.072-.145-.147-.1-.229s.161-.039.245-.04c.594,0,1.189.008,1.783-.007a.41.41,0,0,1,.419.235c.634,1.085,1.28,2.164,1.923,3.244a.445.445,0,0,0,.18.216" transform="translate(-2459.766 -387.037)" fill="#fff"/><path d="M2444.737,408.927c1.19,0,2.379.006,3.569-.006.229,0,.284.07.276.286-.016.443-.014.887,0,1.33.006.2-.047.259-.25.256-.754-.012-1.509.006-2.263-.011-.252-.006-.328.055-.327.318.011,2.262,0,4.524.014,6.786,0,.283-.083.336-.339.324-.47-.02-.941-.018-1.411,0-.224.008-.279-.059-.279-.28.008-2.262,0-4.524,0-6.786,0-.356,0-.356-.36-.356-.737,0-1.474-.007-2.21,0-.2,0-.281-.039-.271-.259.018-.452.016-.9,0-1.357-.007-.2.052-.254.252-.253,1.2.009,2.4,0,3.595,0" transform="translate(-2310.827 -387.132)" fill="#fff"/><path d="M2371.2,413.578c0-1.462,0-2.925,0-4.387,0-.2.049-.259.25-.254.523.014,1.046.01,1.57,0,.169,0,.231.042.231.222q-.007,4.427,0,8.853c0,.163-.048.213-.211.21-.514-.009-1.029-.016-1.543,0-.228.008-.3-.043-.3-.287.013-1.453.006-2.907.006-4.36" transform="translate(-2244.845 -387.147)" fill="#fff"/><path d="M1594.162,413.56c0-1.454.005-2.908-.005-4.362,0-.224.063-.284.282-.277.505.016,1.011.01,1.517,0,.166,0,.23.036.229.22q-.009,4.429,0,8.858c0,.169-.055.209-.214.206-.506-.009-1.012-.015-1.517,0-.229.008-.3-.044-.3-.287.013-1.454.006-2.908.006-4.362" transform="translate(-1509.212 -387.131)" fill="#fff"/><path d="M2476.617,703.16c0,1.2-.006,2.371.006,3.541,0,.228-.043.3-.288.3-.642-.018-.643,0-.642-.658,0-1.508.006-3.016,0-4.524,0-.209.041-.271.269-.295a.981.981,0,0,1,.986.481c.744,1.015,1.533,2,2.3,2.992.063.081.128.161.2.25.085-.106.05-.206.05-.3,0-1.055.008-2.111,0-3.167,0-.2.06-.252.254-.252.695,0,.694-.005.694.682,0,1.5,0,3,0,4.5,0,.209-.039.276-.268.294a.874.874,0,0,1-.858-.411c-.8-1.074-1.632-2.122-2.455-3.178a.652.652,0,0,0-.251-.251" transform="translate(-2343.776 -664.133)" fill="#fff"/><path d="M1207.256,700.216a2.754,2.754,0,0,1,2.833,2.816,2.8,2.8,0,0,1-2.868,2.828,2.823,2.823,0,1,1,.034-5.644m-.049,4.765a1.857,1.857,0,0,0,1.892-1.906,1.921,1.921,0,0,0-1.815-2,1.957,1.957,0,0,0-.077,3.91" transform="translate(-1140.205 -662.905)" fill="#fff"/><path d="M1585.78,704.512c0-.824.005-1.649,0-2.473,0-.19.038-.261.247-.259,1.2.01,2.4.009,3.593,0,.18,0,.242.041.241.232,0,.617,0,.617-.625.617-.754,0-1.508,0-2.262,0-.17,0-.235.045-.229.222.012.336.013.674,0,1.01-.007.183.068.221.234.219.745-.007,1.49,0,2.235-.007.2,0,.279.032.274.256-.012.571,0,.571-.566.572-.639,0-1.278.009-1.916,0-.218,0-.272.07-.263.274.015.336.012.674,0,1.01-.006.173.051.226.224.224.887-.008,1.774,0,2.661-.008.193,0,.26.041.258.247-.006.6,0,.6-.592.6-1.082,0-2.164,0-3.247,0-.2,0-.274-.046-.271-.262.013-.824.005-1.649.005-2.473" transform="translate(-1501.278 -664.387)" fill="#fff"/><path d="M2700.1,704.535c0-.834.006-1.667,0-2.5,0-.19.058-.237.241-.236q1.784.011,3.568,0c.188,0,.237.053.236.238,0,.612,0,.612-.6.612-.746,0-1.491.008-2.237-.006-.216,0-.272.065-.261.269a9.037,9.037,0,0,1,0,.931c-.01.2.046.26.25.256.754-.012,1.509,0,2.263-.01.2,0,.258.052.255.253-.008.575,0,.576-.567.576-.657,0-1.314,0-1.97,0-.166,0-.238.035-.23.219.014.354.014.71,0,1.064-.007.177.053.224.224.223.887-.007,1.775,0,2.663-.008.2,0,.275.039.269.259-.014.588,0,.588-.6.588-1.083,0-2.166-.005-3.248.005-.2,0-.253-.058-.25-.255.011-.825,0-1.65,0-2.474" transform="translate(-2556.222 -664.403)" fill="#fff"/><path d="M2377.084,704.542c0-.834,0-1.668,0-2.5,0-.17.042-.229.22-.228,1.207.007,2.415.005,3.622,0,.14,0,.2.028.206.189.021.659.027.659-.637.659-.746,0-1.491,0-2.237,0-.169,0-.237.039-.23.22.013.337.013.674,0,1.011-.008.184.067.222.232.221.746-.007,1.491,0,2.237-.007.2,0,.28.036.275.259-.011.569,0,.569-.572.569-.648,0-1.3.005-1.944,0-.172,0-.235.046-.228.225.013.354.015.71,0,1.064-.008.187.069.218.232.217.888-.006,1.776,0,2.663-.009.217,0,.264.064.261.268-.01.58,0,.58-.583.58-1.083,0-2.166,0-3.249,0-.2,0-.273-.042-.27-.261.014-.825.006-1.65.005-2.475" transform="translate(-2250.418 -664.417)" fill="#fff"/><path d="M1976.643,704.312c0,.825-.005,1.649,0,2.474,0,.174-.047.224-.224.225-.722,0-.722.011-.722-.707,0-.461,0-.922,0-1.383,0-.148-.019-.221-.2-.218-.745.011-1.491.009-2.236,0-.151,0-.2.042-.194.193.008.63,0,1.259.007,1.889,0,.172-.044.24-.223.225a3.463,3.463,0,0,0-.532,0c-.17.012-.207-.059-.207-.216q.007-2.514,0-5.028c0-.154.03-.231.2-.219.238.017.543-.071.7.046s.049.445.054.679c.01.443.007.887,0,1.33,0,.148.018.222.2.22.745-.01,1.491-.008,2.236,0,.153,0,.2-.049.195-.2-.007-.612,0-1.224-.007-1.836,0-.182.043-.242.234-.242.712,0,.712-.008.712.692s0,1.383,0,2.075" transform="translate(-1867.037 -664.151)" fill="#fff"/><path d="M1474.217,704.126c0-.824,0-1.649,0-2.473,0-.183.046-.259.237-.24.228.023.52-.09.67.045s.046.434.051.659c.008.461.006.922,0,1.383,0,.134.033.188.177.187q1.131-.009,2.262,0c.159,0,.191-.063.19-.205-.006-.612,0-1.223-.007-1.835,0-.19.059-.251.241-.233.228.022.526-.093.668.048s.042.437.043.665c0,1.5,0,3,.006,4.494,0,.19-.035.26-.244.259-.71,0-.71,0-.71-.694,0-.461,0-.922,0-1.383,0-.159-.021-.236-.212-.233q-1.1.017-2.208,0c-.191,0-.212.074-.21.232.007.611,0,1.223.007,1.835,0,.183-.046.242-.235.243-.724,0-.724.011-.725-.705q0-1.024,0-2.047" transform="translate(-1395.661 -664.017)" fill="#fff"/><path d="M1682.285,706.618c-.272,0-.547-.005-.82,0-.127,0-.165-.073-.2-.167-.135-.327-.279-.651-.408-.98a.253.253,0,0,0-.275-.189c-.737.007-1.473.008-2.21,0a.253.253,0,0,0-.269.193c-.134.328-.283.649-.413.978a.226.226,0,0,1-.258.165,4.822,4.822,0,0,0-.559,0c-.187.012-.211-.048-.139-.211.309-.7.609-1.395.915-2.092.433-.989.871-1.976,1.3-2.967a.3.3,0,0,1,.325-.23c.661.009.66,0,.927.61l2.033,4.644a.373.373,0,0,1,.057.243m-2.814-4.368c-.314.729-.6,1.4-.891,2.073-.063.148.048.14.136.141.5,0,1.01,0,1.514,0,.139,0,.2-.027.125-.18s-.145-.341-.219-.511c-.213-.491-.428-.982-.665-1.525" transform="translate(-1587.351 -663.761)" fill="#fff"/><path d="M2794.711,700.281a3.091,3.091,0,0,1,1.692.55c.139.1.176.169.058.309-.131.155-.208.4-.37.474-.177.081-.338-.16-.517-.243a1.917,1.917,0,0,0-1.387-.186.622.622,0,0,0-.5.555.6.6,0,0,0,.414.641,8.835,8.835,0,0,0,1.217.372,4.921,4.921,0,0,1,.595.227,1.313,1.313,0,0,1,.829,1.25,1.432,1.432,0,0,1-.811,1.413,2.95,2.95,0,0,1-2.663-.1,5.1,5.1,0,0,1-.584-.368c-.121-.078-.177-.156-.043-.288.151-.149.251-.4.424-.461s.342.2.522.3a2.215,2.215,0,0,0,1.58.3.69.69,0,0,0,.622-.6c.027-.346-.105-.531-.491-.7-.353-.151-.733-.2-1.1-.319a4.972,4.972,0,0,1-.649-.233,1.28,1.28,0,0,1-.8-1.1,1.484,1.484,0,0,1,.688-1.482,2.248,2.248,0,0,1,1.274-.318" transform="translate(-2643.764 -662.967)" fill="#fff"/><path d="M2124.584,700.079a3.264,3.264,0,0,1,1.9.586c.111.08.134.136.044.247-.133.166-.216.412-.385.5-.19.1-.35-.16-.534-.241a1.96,1.96,0,0,0-1.365-.184.618.618,0,0,0-.51.544c-.033.322.078.5.418.662a7.152,7.152,0,0,0,1.167.353,3.658,3.658,0,0,1,.693.265,1.31,1.31,0,0,1,.773,1.232,1.415,1.415,0,0,1-.771,1.382,2.973,2.973,0,0,1-2.94-.208c-.554-.315-.534-.323-.153-.813.152-.2.243-.22.45-.06a2.181,2.181,0,0,0,1.866.482.677.677,0,0,0,.6-.7.61.61,0,0,0-.424-.555,8.026,8.026,0,0,0-1.116-.337c-.152-.047-.307-.086-.455-.143a1.386,1.386,0,0,1-1.055-1.574,1.568,1.568,0,0,1,1.275-1.357,1.756,1.756,0,0,1,.526-.079" transform="translate(-2009.541 -662.771)" fill="#fff"/><path d="M2590.034,700.143a2.85,2.85,0,0,1,2,.708c.112.1.128.158.018.268-.163.162-.278.425-.468.491s-.343-.215-.529-.32a1.816,1.816,0,0,0-1.9-.057,1.867,1.867,0,0,0-.941,1.651,1.869,1.869,0,0,0,3.176,1.494c.183-.164.288-.139.412.035a.479.479,0,0,0,.054.059c.376.38.385.391-.06.719a2.8,2.8,0,0,1-3.128.261,2.862,2.862,0,0,1,.245-5.1,2.413,2.413,0,0,1,1.116-.208" transform="translate(-2449.364 -662.832)" fill="#fff"/><path d="M2220.377,700.149a2.828,2.828,0,0,1,1.966.689c.133.113.144.189.019.312-.157.155-.27.411-.452.469s-.335-.209-.513-.316a1.853,1.853,0,0,0-2.164.105,2.086,2.086,0,0,0-.568,2.281,1.847,1.847,0,0,0,2.95.789c.326-.25.326-.25.609.031.337.336.346.347-.047.65a2.8,2.8,0,0,1-3.121.323,2.611,2.611,0,0,1-1.5-2.632,2.663,2.663,0,0,1,1.688-2.493,2.435,2.435,0,0,1,1.133-.21" transform="translate(-2099.393 -662.838)" fill="#fff"/><path d="M1332.953,704.509c0-.825.005-1.65,0-2.475,0-.186.05-.239.236-.238q1.811.012,3.622,0c.184,0,.24.047.239.236,0,.63,0,.63-.613.63-.746,0-1.492.011-2.237-.006-.245-.006-.3.073-.289.3a8.253,8.253,0,0,1,0,.931c-.011.215.05.293.279.288.745-.014,1.491,0,2.237-.01.2,0,.256.052.253.252-.008.6,0,.6-.614.6s-1.243.012-1.864-.005c-.245-.007-.3.077-.292.3.015.576,0,1.153.009,1.73,0,.164-.048.222-.212.21-.238-.016-.546.073-.7-.046s-.048-.448-.051-.684c-.008-.674,0-1.348,0-2.023" transform="translate(-1261.896 -664.401)" fill="#fff"/><path d="M1872.072,704.967c0,.692,0,1.384,0,2.075,0,.169-.039.227-.219.229-.742.008-.742.015-.743-.716,0-1.153,0-2.306,0-3.459,0-.487.052-.412-.43-.417-.364,0-.728-.007-1.092,0-.151,0-.219-.026-.222-.2-.015-.67-.021-.67.657-.67,1.18,0,2.361,0,3.541,0,.182,0,.243.042.243.233,0,.639.008.639-.634.639-.275,0-.551.014-.825,0-.215-.015-.29.041-.284.271.016.674.006,1.348.006,2.022" transform="translate(-1769.757 -664.41)" fill="#fff"/><path d="M1800.336,704.478c0-.833,0-1.666,0-2.5,0-.16.025-.233.212-.236.74-.012.74-.019.74.716,0,1.206,0,2.411-.005,3.617,0,.218.055.288.28.284.789-.013,1.579,0,2.368-.01.206,0,.251.063.249.257-.007.6,0,.6-.593.6-.958,0-1.916,0-2.874,0-.453,0-.371.029-.373-.36,0-.789,0-1.578,0-2.367" transform="translate(-1704.403 -664.348)" fill="#fff"/><path d="M2332.168,704.177c0,.833,0,1.666,0,2.5,0,.171-.045.225-.222.226-.737.005-.737.011-.737-.721,0-1.5,0-3-.005-4.493,0-.2.054-.271.252-.251.228.024.521-.092.668.05s.037.422.039.642c0,.682,0,1.365,0,2.047" transform="translate(-2206.991 -664.041)" fill="#fff"/><path d="M63.887,138.53a20.214,20.214,0,0,1-2.231-1.134,29.825,29.825,0,0,1-11.673-12.554,34.9,34.9,0,0,1-3.021-8.661,38.173,38.173,0,0,1-.775-6.5,39.743,39.743,0,0,1,.139-4.993,37.717,37.717,0,0,1,1.258-6.959.288.288,0,0,1,.34-.255q3.768.011,7.536,0,4.061,0,8.122-.014c.24,0,.312.054.312.305q-.01,20.225-.007,40.449v.315M53.4,110.649c.12-.113.238-.23.362-.339a.315.315,0,0,1,.261-.1,1.852,1.852,0,0,0,1.669-.746.547.547,0,0,1,.429-.2,6.2,6.2,0,0,1,1.555.164,1.868,1.868,0,0,1,1.409,1.057,1,1,0,0,1-.219,1.214,2.99,2.99,0,0,1-.8.568.292.292,0,0,0-.184.289c-.007.354-.005.71-.042,1.062-.022.212.049.256.228.212a3.453,3.453,0,0,0,1.942-1.126,2.74,2.74,0,0,0,.382-2.6,2.3,2.3,0,0,0-1.372-1.652,6.712,6.712,0,0,0-2.877-.524,1.712,1.712,0,0,1-.448,0,2.092,2.092,0,0,0-2.229.987.756.756,0,0,0,.206,1.151c.03.019.051.048.039.074-.147.156-.379.075-.566.242.2.013.306.079.253.277m2.4,3.077c0-.243-.007-.447,0-.65.008-.177-.056-.188-.2-.129a4.8,4.8,0,0,0-1.346.839,2.617,2.617,0,0,0,.893,4.431c.679.2,1.358.394,2.048.551a1.427,1.427,0,0,1,.735.348c.514.526.725,1.163-.082,1.51a.873.873,0,0,0-.556.96c0,.624-.015.63.558.355a3.175,3.175,0,0,0,1.107-.668,2.471,2.471,0,0,0-.121-3.107,3.355,3.355,0,0,0-2.038-.936,2.766,2.766,0,0,1-1.51-.584c-.72-.587-.744-1.144-.055-1.765a.33.33,0,0,1,.061-.051.828.828,0,0,0,.507-1.1m.3-.279h.042c0,.053,0,.106,0,.159.021,1.018.046,2.036.061,3.055,0,.175.044.253.236.259a3.97,3.97,0,0,1,.657.091c.179.036.247,0,.252-.2.024-.894.064-1.787.1-2.681q.093-2.1.2-4.191c.008-.152-.035-.22-.19-.246-.394-.065-.792-.083-1.189-.113-.177-.013-.227.054-.219.229q.039.875.049,1.751c.008.629,0,1.258,0,1.887m-.591-8.4a1.244,1.244,0,0,0,.216.867,1.553,1.553,0,0,1,.268,1.1c0,.124.01.248.007.372s.049.168.175.164a7.774,7.774,0,0,1,1.378.091c.141.021.2-.031.2-.168,0-.248.007-.5.012-.744a1.023,1.023,0,0,1,.2-.633,1.8,1.8,0,0,0-.175-2.314,1.183,1.183,0,0,0-1.064-.361,1.535,1.535,0,0,0-1.215,1.631m.755,17.207h.094c0,.469,0,.938,0,1.407.007.6.023,1.2.032,1.807,0,.175.019.31.26.287.181-.017.318.016.328-.261.07-1.964.165-3.927.245-5.891.021-.515.01-.515-.5-.646-.043-.011-.085-.023-.128-.033-.36-.083-.331-.116-.331.249q0,1.541,0,3.082m-.153-.06c0-.148,0-.237,0-.326s.039-.182-.03-.225c-.09-.056-.162.045-.229.094a6.214,6.214,0,0,0-1.433,1.449,3.5,3.5,0,0,0-.583,1.27c-.033.15-.1.339.081.433s.34-.029.462-.163a1.225,1.225,0,0,0,.26-.518,2.073,2.073,0,0,1,1.083-1.345c.308-.161.5-.355.39-.668" transform="translate(-43.702 -92.268)" fill="#fff"/><path d="M400.479,114.067c-2.787,0-5.575,0-8.362.006-.251,0-.3-.072-.3-.309q.01-7.931.006-15.861c0-.386-.051-.349.361-.348q7.79,0,15.579,0c.224,0,.321.06.381.283a40.428,40.428,0,0,1,1.39,11.861,37.359,37.359,0,0,1-.362,4.182c-.033.228-.169.183-.3.183h-8.389m-.635-5.473-.033-.063h-.664c-.628,0-.625,0-.813-.6a3.086,3.086,0,0,0-.255-.684c-.128.386-.257.716-.344,1.056-.049.191-.141.232-.316.227-.35-.011-.7,0-1.116,0a4.863,4.863,0,0,0,.822.626.363.363,0,0,1,.17.519,4.413,4.413,0,0,0-.288.983c.326-.236.607-.42.864-.633a.3.3,0,0,1,.452,0c.261.213.543.4.816.6l.055-.047c-.1-.3-.184-.6-.3-.9a.362.362,0,0,1,.164-.521c.275-.166.524-.375.785-.565m1.337,1.986.045.053c.292-.211.59-.414.874-.636a.252.252,0,0,1,.367,0c.283.221.579.426.879.644.013-.048.026-.067.022-.081q-.119-.393-.243-.784c-.133-.419-.132-.418.236-.683.23-.166.456-.336.684-.5a6.567,6.567,0,0,0-1.122-.051.235.235,0,0,1-.275-.207c-.1-.353-.225-.7-.34-1.046a4.121,4.121,0,0,0-.332.885c-.068.288-.2.407-.509.372a8.284,8.284,0,0,0-.915-.007,4.2,4.2,0,0,0,.808.66.313.313,0,0,1,.141.439c-.113.314-.214.633-.319.95m-.926-9.463-.063,0c-.1.3-.214.6-.293.9a.279.279,0,0,1-.338.239c-.321-.013-.642,0-.964,0l-.018.069a8.42,8.42,0,0,0,.722.519c.238.138.247.291.162.523a4.18,4.18,0,0,0-.263.9c.3-.217.557-.387.795-.582a.3.3,0,0,1,.455,0c.241.2.506.371.76.554a4.907,4.907,0,0,0-.258-.985.248.248,0,0,1,.122-.346c.273-.183.533-.386.8-.58l-.028-.067c-.324,0-.648-.011-.972,0a.263.263,0,0,1-.319-.224c-.085-.311-.2-.615-.3-.922m-4.387,5.425.048.033c.271-.195.548-.381.809-.588a.241.241,0,0,1,.361,0c.261.208.543.391.816.585a5.629,5.629,0,0,0-.273-.993.225.225,0,0,1,.1-.321c.281-.187.546-.4.818-.6a3,3,0,0,0-.894-.053c-.281.031-.391-.089-.455-.338-.072-.281-.175-.554-.265-.83a4.17,4.17,0,0,0-.352.915c-.051.215-.16.259-.355.251-.311-.013-.624,0-.936,0l-.013.072c.255.187.5.385.769.555a.282.282,0,0,1,.127.394c-.111.3-.2.613-.306.919m7.5-3.095-.057-.005c-.1.308-.219.612-.3.925a.28.28,0,0,1-.338.239c-.313-.014-.627,0-.941,0l-.018.07c.254.186.5.379.765.554a.273.273,0,0,1,.132.382,4.865,4.865,0,0,0-.294.989c.319-.228.6-.42.876-.632a.2.2,0,0,1,.3,0c.277.213.565.411.849.614a3.588,3.588,0,0,0-.23-.858.378.378,0,0,1,.179-.555,3.538,3.538,0,0,0,.732-.562c-.4,0-.728-.007-1.053,0a.236.236,0,0,1-.282-.2c-.089-.323-.207-.638-.314-.957" transform="translate(-370.937 -92.355)" fill="#fff"/><path d="M391.79,444.287c0-.122,0-.21,0-.3q0-11.615-.007-23.231c0-.277.075-.328.337-.328q8.242.012,16.483.006c.4,0,.395,0,.327.391a34.786,34.786,0,0,1-1.965,6.961,30.521,30.521,0,0,1-11.8,14.676,24.963,24.963,0,0,1-3.162,1.742c-.055.026-.114.043-.215.079M395.883,434c-.238-.28-.491-.344-.7-.189s-.241.407-.058.711a1.444,1.444,0,0,0,1.536.653.651.651,0,0,0,.521-.426,20.172,20.172,0,0,1,2.2-4.257c.1-.143.154-.255,0-.41a.582.582,0,0,1-.16-.518c.074-.323-.133-.4-.354-.479-.447-.158-.643-.112-.9.216a32.271,32.271,0,0,1-3.5,3.714.464.464,0,0,0-.176.257,2.059,2.059,0,0,0,.111,1.224,2.5,2.5,0,0,0,3.189,1.184.377.377,0,0,0,.2-.255c.135-.384.267-.768.415-1.147a19.909,19.909,0,0,1,1.839-3.555c.038-.058.164-.143.041-.214a.2.2,0,0,0-.286.047c-.024.037-.049.074-.074.11a19.651,19.651,0,0,0-2.347,4.393.363.363,0,0,1-.194.232,1.959,1.959,0,0,1-2.39-.778.709.709,0,0,1,.59-1.114,1.069,1.069,0,0,1,.992.749c.081.2.2.461.018.622-.2.177-.436,0-.625-.129-.143-.1-.329-.2-.316-.4.014-.226.262-.156.417-.244m2.923-5.762c.526.095.917.555,1.484.395a.172.172,0,0,1,.129.02c.23.162.368.034.5-.146a1.4,1.4,0,0,1,.123-.139c1.026-1.106,2.128-2.135,3.207-3.187a.308.308,0,0,0,.09-.372,2.171,2.171,0,0,0-2.164-1.362.406.406,0,0,0-.35.228q-.977,1.662-2.084,3.241c-.3.434-.61.866-.931,1.323m6.414-3.035a1.065,1.065,0,0,0-.856.256c-.865.8-1.711,1.619-2.493,2.5-.27.3-.525.624-.8.925-.113.125-.127.258-.012.345s.145-.083.205-.143c.106-.106.2-.226.3-.339a37.579,37.579,0,0,1,2.884-2.784,7.4,7.4,0,0,0,.772-.76m-5.052,3.74a.617.617,0,0,0-.01,1.233.617.617,0,1,0,.01-1.233m.636,1.351a.278.278,0,0,0-.256.328q.159.477.323.952c.143.412.142.406.556.226.134-.058.182-.1.1-.247-.217-.374-.419-.756-.63-1.134-.028-.05-.041-.121-.092-.125m.187-.27-.039.066c.2.141.391.284.589.421.053.037.127.1.162-.018.025-.085.115-.2,0-.258a2.031,2.031,0,0,0-.711-.212" transform="translate(-370.907 -398.029)" fill="#fff"/><path d="M199.609,310.967c-.054.117-.173.132-.281.158-.063.015-.145-.013-.117-.089.044-.122.174-.131.284-.151a.086.086,0,0,1,.114.082" transform="translate(-188.591 -294.317)" fill="#fff"/></g></svg>