<?xml version="1.0" encoding="UTF-8"?><svg id="a" xmlns="http://www.w3.org/2000/svg" viewBox="0 0 260 60"><defs><style>.r{fill:#707171;}</style></defs><g id="b"><g id="c"><rect id="d" class="r" x="172.95" y="18.54" width="2.7" height="21.08"/><path id="e" class="r" d="M246.85,18.22v2.7h5.23v18.7h2.7V20.92h5.23v-2.7h-13.15Z"/><path id="f" class="r" d="M110.65,18.22h-13.16v2.7h5.23v18.7h2.71V20.92h5.23v-2.7Z"/><g id="g" transform="translate(0 0)"><g id="h"><path id="i" class="r" d="M219.52,17.68c-6.3,0-11.4,5.11-11.4,11.4,0,6.3,5.11,11.4,11.4,11.4,6.3,0,11.4-5.11,11.4-11.4h0c0-6.3-5.11-11.4-11.4-11.4m0,20.05c-4.78,0-8.65-3.87-8.65-8.65s3.87-8.65,8.65-8.65c4.78,0,8.65,3.87,8.65,8.65h0c0,4.78-3.87,8.65-8.65,8.65"/><path id="j" class="r" d="M121.4,17.68c-6.3,0-11.4,5.11-11.4,11.4s5.11,11.4,11.4,11.4c6.3,0,11.4-5.11,11.4-11.4,0-6.3-5.1-11.4-11.4-11.4h0m0,20.05c-4.78,0-8.65-3.87-8.65-8.65s3.87-8.65,8.65-8.65c4.78,0,8.65,3.87,8.65,8.65s-3.87,8.65-8.65,8.65h0"/><path id="k" class="r" d="M200.82,18.6l-6.84,.08-.06,20.94h2.7v-6.95l4.2-.03c3.88-.95,6.25-4.86,5.31-8.73-.64-2.62-2.69-4.67-5.31-5.31m0,11.59l-4.2-.02v-9.15h4.17c2.53,.93,3.83,3.74,2.9,6.28-.49,1.33-1.54,2.39-2.87,2.89"/><path id="l" class="r" d="M189.28,28.37c-.5-.41-5.26-2.91-5.26-2.91h0c-.99-.4-1.66-1.34-1.7-2.41,.02-1.42,1.19-2.55,2.61-2.53,1.38,.02,2.5,1.13,2.53,2.51l2.41-1.03c-.57-2.75-3.27-4.52-6.02-3.94-2.75,.57-4.52,3.27-3.94,6.02,.19,.9,.62,1.73,1.24,2.41,.01,.02,.15,.14,.19,.19,.76,.65,5.73,3.24,6.18,3.64h.01c1.63,1.47,1.77,3.97,.31,5.6-1.46,1.63-3.96,1.77-5.59,.31-.84-.75-1.32-1.83-1.32-2.96,0-.09,0-.18,.01-.27l-2.61,.93c.37,3.62,3.61,6.26,7.24,5.88,3.36-.35,5.91-3.17,5.92-6.55,.13-1.9-.7-3.75-2.21-4.91"/><path id="m" class="r" d="M144.29,28.16l-7.24-9.62h-2.7v21.08h2.7V22.49c0,.16,6.81,9.03,6.81,9.03h.6l6.6-8.62v16.72h2.7V18.54h-2.7l-6.76,9.62Z"/><path id="n" class="r" d="M92.4,35.3l-12.22-16.75h-2.7v21.08h2.7V23.12l12.21,16.5h2.7V18.54h-2.7v16.75Z"/><path id="o" class="r" d="M166.8,26.16c1.72-1.9,1.57-4.82-.32-6.54-.44-.4-.95-.71-1.51-.91-.28-.09-.58-.14-.87-.16h-7.26v21.08h1.86v.02h6.37c.31,0,.62-.05,.92-.14,3.78-1.46,5.67-5.72,4.2-9.51-.64-1.64-1.84-3-3.4-3.83m-7.52-5.53h5.01c1.34,.51,2.01,2.01,1.49,3.35-.24,.62-.7,1.12-1.3,1.41h0c-.06,.04-.12,.07-.18,.08h-5.01v-4.84Zm5.83,17.03h-5.83v-10.11h5.59c2.81,.84,4.41,3.8,3.57,6.61-.49,1.63-1.72,2.93-3.32,3.49"/><path id="p" class="r" d="M28.33,1.68C12.68,1.67,0,14.36,0,30c0,15.64,12.68,28.33,28.32,28.33,15.64,0,28.33-12.68,28.33-28.32h0C56.65,14.36,43.97,1.68,28.33,1.68m9.86,44.29h0c-.93,5.56-6.19,9.31-11.75,8.38-4.92-.82-8.52-5.09-8.52-10.08,0-.13,0-.26,0-.39h4.55c0,.13-.02,.26-.02,.39,.06,3.13,2.64,5.61,5.77,5.56,3.05-.06,5.5-2.51,5.56-5.56,0-.17,0-.33-.03-.5L12.08,23.45h-.96v17.7H6.48V19.03H14.64l23.88,22.71-.33,4.23Zm11.67-10.7v4.42h-8.16L17.82,16.97l.33-4.22h0c.94-5.56,6.2-9.3,11.76-8.36,4.91,.83,8.51,5.08,8.51,10.06,0,.13,0,.26,0,.39h-4.55c0-.13,.02-.26,.02-.39-.06-3.13-2.64-5.61-5.77-5.56-3.05,.06-5.5,2.51-5.56,5.56,0,.17,0,.33,.03,.5l21.68,20.32h.96V17.57h4.64v17.7Z"/><path id="q" class="r" d="M244.08,28.91c.89-2.05,1.04-4.35,.45-6.5-1.01-2.52-3.39-4.22-6.1-4.38h-5.78v21.76h2.78v-6.98l2.36-.03,4.06,7h3.28l-4.6-7.78c1.47-.65,2.71-1.73,3.55-3.1m-8.65,1.37v-9.72c.36,0,2.73,0,2.73,0,2.34-.05,4.28,1.8,4.34,4.15,0,.08,0,.16,0,.24,.32,4.37-3.97,5.34-3.97,5.34h-3.1Z"/></g></g></g></g></svg>