<svg xmlns="http://www.w3.org/2000/svg" xmlns:xlink="http://www.w3.org/1999/xlink" width="20" height="17.841" viewBox="0 0 20 17.841">
  <defs>
    <clipPath id="clip-path">
      <rect id="Rectangle_3055" data-name="Rectangle 3055" width="20" height="17.841" fill="none"/>
    </clipPath>
  </defs>
  <g id="Group_6026" data-name="Group 6026" transform="translate(0 0)">
    <g id="Group_6025" data-name="Group 6025" transform="translate(0 0)" clip-path="url(#clip-path)">
      <path id="Path_4133" data-name="Path 4133" d="M12.455,4.308a1.108,1.108,0,1,0-2.216,0Z" transform="translate(0.873 0.272)" fill="#2b2e81"/>
      <path id="Path_4134" data-name="Path 4134" d="M15.051,9.958h-3.5a.3.3,0,0,1-.3-.3v-2.9a.3.3,0,0,1,.3-.3H12.9a.3.3,0,0,1,.241.122l2.15,2.9A.3.3,0,0,1,15.051,9.958Z" transform="translate(0.959 0.551)" fill="none" stroke="#2b2e81" stroke-miterlimit="10" stroke-width="1"/>
      <path id="Path_4135" data-name="Path 4135" d="M5.505,10.694h-1.2a.253.253,0,0,1-.253-.254V9.555h-.9A.253.253,0,0,1,2.906,9.3V8.014a.253.253,0,0,1,.254-.253h.9V6.877a.253.253,0,0,1,.253-.254h1.2a.254.254,0,0,1,.254.254v.884h.9a.253.253,0,0,1,.254.253V9.3a.253.253,0,0,1-.254.253h-.9v.884A.254.254,0,0,1,5.505,10.694Z" transform="translate(0.248 0.564)" fill="none" stroke="#2b2e81" stroke-linejoin="round" stroke-width="1"/>
      <circle id="Ellipse_127" data-name="Ellipse 127" cx="1.774" cy="1.774" r="1.774" transform="translate(3.02 13.75)" fill="none" stroke="#2b2e81" stroke-miterlimit="10" stroke-width="1"/>
      <circle id="Ellipse_128" data-name="Ellipse 128" cx="1.774" cy="1.774" r="1.774" transform="translate(13.733 13.75)" fill="none" stroke="#2b2e81" stroke-miterlimit="10" stroke-width="1"/>
      <path id="Path_4136" data-name="Path 4136" d="M19.151,10.286,15.256,5.413a1.2,1.2,0,0,0-.94-.453H1.7a1.2,1.2,0,0,0-1.2,1.2v7.8a1.2,1.2,0,0,0,1.2,1.2H2.981c0-.023,0-.044,0-.067a1.774,1.774,0,1,1,3.549,0c0,.023,0,.044,0,.067h7.171c0-.023,0-.044,0-.067a1.774,1.774,0,1,1,3.549,0c0,.023,0,.044,0,.067h.977a1.2,1.2,0,0,0,1.2-1.2V11.037A1.206,1.206,0,0,0,19.151,10.286Z" transform="translate(0.043 0.422)" fill="none" stroke="#2b2e81" stroke-miterlimit="10" stroke-width="1"/>
      <line id="Line_220" data-name="Line 220" x2="1.556" transform="translate(8.402 3.831)" fill="none" stroke="#2b2e81" stroke-linecap="round" stroke-linejoin="round" stroke-width="1"/>
      <line id="Line_221" data-name="Line 221" x2="1.506" transform="translate(14.399 3.806)" fill="none" stroke="#2b2e81" stroke-linecap="round" stroke-linejoin="round" stroke-width="1"/>
      <line id="Line_222" data-name="Line 222" y1="1.582" transform="translate(12.06 0.542)" fill="none" stroke="#2b2e81" stroke-linecap="round" stroke-linejoin="round" stroke-width="1"/>
      <line id="Line_223" data-name="Line 223" x1="1.067" y1="1.067" transform="translate(9.476 1.384)" fill="none" stroke="#2b2e81" stroke-linecap="round" stroke-linejoin="round" stroke-width="1"/>
      <line id="Line_224" data-name="Line 224" y1="1.067" x2="1.067" transform="translate(13.956 1.534)" fill="none" stroke="#2b2e81" stroke-linecap="round" stroke-linejoin="round" stroke-width="1"/>
    </g>
  </g>
</svg>
