<svg xmlns="http://www.w3.org/2000/svg" xmlns:xlink="http://www.w3.org/1999/xlink" width="25" height="24.459" viewBox="0 0 25 24.459">
  <defs>
    <clipPath id="clip-path">
      <rect id="Rectangle_3052" data-name="Rectangle 3052" width="25" height="24.459" fill="none" stroke="#2b2e81" stroke-width="1"/>
    </clipPath>
  </defs>
  <g id="Group_6021" data-name="Group 6021" transform="translate(0 0)">
    <g id="Group_6020" data-name="Group 6020" transform="translate(0 0)" clip-path="url(#clip-path)">
      <path id="Path_4123" data-name="Path 4123" d="M7.183,10.669H4.278A3.828,3.828,0,0,1,.5,6.7V4.47A3.828,3.828,0,0,1,4.278.5H7.183A3.828,3.828,0,0,1,10.96,4.47V6.7A3.828,3.828,0,0,1,7.183,10.669Z" transform="translate(0.085 0.084)" fill="none" stroke="#2b2e81" stroke-miterlimit="10" stroke-width="1"/>
      <path id="Path_4124" data-name="Path 4124" d="M18.619,10.669H15.714A3.828,3.828,0,0,1,11.936,6.7V4.47A3.828,3.828,0,0,1,15.714.5h2.905A3.828,3.828,0,0,1,22.4,4.47V6.7A3.828,3.828,0,0,1,18.619,10.669Z" transform="translate(2.019 0.084)" fill="none" stroke="#2b2e81" stroke-miterlimit="10" stroke-width="1"/>
      <path id="Path_4125" data-name="Path 4125" d="M7.266,21.891H4.361a3.828,3.828,0,0,1-3.778-3.97V15.692a3.828,3.828,0,0,1,3.778-3.97H7.266a3.828,3.828,0,0,1,3.778,3.97v2.228A3.828,3.828,0,0,1,7.266,21.891Z" transform="translate(0.099 1.983)" fill="none" stroke="#2b2e81" stroke-miterlimit="10" stroke-width="1"/>
      <path id="Path_4126" data-name="Path 4126" d="M18.619,21.891H15.714a3.828,3.828,0,0,1-3.778-3.97V15.692a3.828,3.828,0,0,1,3.778-3.97h2.905a3.828,3.828,0,0,1,3.778,3.97v2.228A3.828,3.828,0,0,1,18.619,21.891Z" transform="translate(2.019 1.983)" fill="none" stroke="#2b2e81" stroke-miterlimit="10" stroke-width="1"/>
    </g>
  </g>
</svg>
