<svg xmlns="http://www.w3.org/2000/svg" xmlns:xlink="http://www.w3.org/1999/xlink" width="25" height="29.36" viewBox="0 0 25 29.36">
  <defs>
    <clipPath id="clip-path">
      <rect id="Rectangle_3047" data-name="Rectangle 3047" width="25" height="29.36" fill="none" stroke="#2b2e81" stroke-width="1"/>
    </clipPath>
  </defs>
  <g id="Group_6011" data-name="Group 6011" transform="translate(0 0)">
    <g id="Group_6010" data-name="Group 6010" transform="translate(0 0)" clip-path="url(#clip-path)">
      <path id="Path_4109" data-name="Path 4109" d="M17.434,18.959a.636.636,0,1,1-.635-.636.635.635,0,0,1,.635.636" transform="translate(2.946 3.329)" fill="#2b2e81"/>
      <line id="Line_219" data-name="Line 219" y2="2.155" transform="translate(19.766 24.126)" fill="none" stroke="#2b2e81" stroke-linecap="round" stroke-miterlimit="10" stroke-width="1"/>
      <circle id="Ellipse_122" data-name="Ellipse 122" cx="4.645" cy="4.645" r="4.645" transform="translate(15.12 19.481)" fill="none" stroke="#2b2e81" stroke-linecap="round" stroke-miterlimit="10" stroke-width="1"/>
      <path id="Path_4110" data-name="Path 4110" d="M13.011,26.949h-9.4A3.111,3.111,0,0,1,.5,23.839V3.654A3.11,3.11,0,0,1,3.612.544H19a3.109,3.109,0,0,1,3.11,3.11V17.4" transform="translate(0.089 0.097)" fill="none" stroke="#2b2e81" stroke-linecap="round" stroke-miterlimit="10" stroke-width="1"/>
      <path id="Path_4111" data-name="Path 4111" d="M22.2,3.785l-.1,5.857s0-2.553-3.187-2.556H3.786A3.285,3.285,0,0,1,.5,3.8V3.785A3.285,3.285,0,0,1,3.786.5H18.9a3.3,3.3,0,0,1,3.3,3.3" transform="translate(0.089 0.089)" fill="none" stroke="#2b2e81" stroke-linecap="round" stroke-miterlimit="10" stroke-width="1"/>
    </g>
  </g>
</svg>
