<svg xmlns="http://www.w3.org/2000/svg" xmlns:xlink="http://www.w3.org/1999/xlink" width="25" height="22.903" viewBox="0 0 25 22.903">
  <defs>
    <clipPath id="clip-path">
      <rect id="Rectangle_3053" data-name="Rectangle 3053" width="25" height="22.903" fill="none" stroke="#2b2e81" stroke-width="1"/>
    </clipPath>
  </defs>
  <g id="Group_6023" data-name="Group 6023" transform="translate(0 0)">
    <g id="Group_6022" data-name="Group 6022" transform="translate(0 0)" clip-path="url(#clip-path)">
      <path id="Path_4127" data-name="Path 4127" d="M24.2,5.92,12.287,12.076a.573.573,0,0,1-.538,0l-11-5.994a.242.242,0,0,1,.011-.43L12.405.612A1.124,1.124,0,0,1,13.4.618l10.8,4.81A.276.276,0,0,1,24.2,5.92Z" transform="translate(0.083 0.066)" fill="none" stroke="#2b2e81" stroke-miterlimit="10" stroke-width="1"/>
      <path id="Path_4128" data-name="Path 4128" d="M.5,9.839l10.663,5.938a1.489,1.489,0,0,0,1.43.01L24.056,9.612" transform="translate(0.066 1.274)" fill="none" stroke="#2b2e81" stroke-linecap="round" stroke-miterlimit="10" stroke-width="1"/>
      <path id="Path_4129" data-name="Path 4129" d="M.5,14.353l10.614,5.911a1.593,1.593,0,0,0,1.529.011l11.413-6.148" transform="translate(0.066 1.872)" fill="none" stroke="#2b2e81" stroke-linecap="round" stroke-miterlimit="10" stroke-width="1"/>
    </g>
  </g>
</svg>
