<svg id="Group_6007" data-name="Group 6007" xmlns="http://www.w3.org/2000/svg" xmlns:xlink="http://www.w3.org/1999/xlink" width="20.5" height="20.2" viewBox="0 0 20.5 20.2">
  <defs>
    <clipPath id="clip-path">
      <rect id="Rectangle_3045" data-name="Rectangle 3045" width="20.5" height="20.2" transform="translate(0 0)" fill="none" stroke="#2b2e81" stroke-width="1"/>
    </clipPath>
  </defs>
  <g id="Group_6006" data-name="Group 6006" clip-path="url(#clip-path)">
    <circle id="Ellipse_121" data-name="Ellipse 121" cx="2.7" cy="2.7" r="2.7" transform="translate(7.5 7.5)" fill="none" stroke="#2b2e81" stroke-miterlimit="10" stroke-width="1"/>
    <path id="Path_4106" data-name="Path 4106" d="M19.4,8l-1.3-.3a.782.782,0,0,1-.5-1.1l.7-1.2a.744.744,0,0,0-.1-.9L16.1,2.4a.744.744,0,0,0-.9-.1l-1.3.6a.73.73,0,0,1-1.1-.5l-.3-1.3a.858.858,0,0,0-.7-.6h-3a.661.661,0,0,0-.7.6L7.6,2.4a.782.782,0,0,1-1.1.5L5.3,2.2a.744.744,0,0,0-.9.1L2.3,4.4a.744.744,0,0,0-.1.9l.7,1.2a.73.73,0,0,1-.5,1.1l-1.3.3a.858.858,0,0,0-.6.7v3a.661.661,0,0,0,.6.7l1.3.3a.782.782,0,0,1,.5,1.1l-.7,1.2a.744.744,0,0,0,.1.9l2.1,2.1a.744.744,0,0,0,.9.1l1.2-.7a.73.73,0,0,1,1.1.5l.3,1.3a.858.858,0,0,0,.7.6h3a.661.661,0,0,0,.7-.6l.3-1.3a.782.782,0,0,1,1.1-.5l1.2.7a.744.744,0,0,0,.9-.1l2.1-2.1a.744.744,0,0,0,.1-.9l-.4-1a.73.73,0,0,1,.5-1.1l1.3-.3a.858.858,0,0,0,.6-.7v-3A.871.871,0,0,0,19.4,8Z" fill="none" stroke="#2b2e81" stroke-miterlimit="10" stroke-width="1"/>
  </g>
</svg>
