<svg xmlns="http://www.w3.org/2000/svg" xmlns:xlink="http://www.w3.org/1999/xlink" width="40" height="40" viewBox="0 0 40 40">
  <defs>
    <clipPath id="clip-path">
      <rect id="Rectangle_2854" data-name="Rectangle 2854" width="28.262" height="18.001" fill="#2b2e81"/>
    </clipPath>
  </defs>
  <g id="Group_5970" data-name="Group 5970" transform="translate(-1081 -377)">
    <g id="Group_5969" data-name="Group 5969">
      <circle id="Ellipse_87" data-name="Ellipse 87" cx="20" cy="20" r="20" transform="translate(1081 377)" fill="#f0f0ff"/>
      <g id="Group_5575" data-name="Group 5575" transform="translate(1085 386)">
        <g id="Group_5574" data-name="Group 5574" transform="translate(0 0)" clip-path="url(#clip-path)">
          <path id="Path_3904" data-name="Path 3904" d="M6.315,19.515A.312.312,0,0,0,6,19.2H.312a.312.312,0,0,0,0,.624H6a.312.312,0,0,0,.312-.312" transform="translate(0 -7.212)" fill="#2b2e81"/>
          <path id="Path_3905" data-name="Path 3905" d="M8.459,16.909H6.244a.312.312,0,0,0,0,.624H8.459a.312.312,0,0,0,0-.624" transform="translate(-2.228 -6.35)" fill="#2b2e81"/>
          <path id="Path_3906" data-name="Path 3906" d="M7.942,21.772H4.868a.312.312,0,0,0,0,.624H7.942a.312.312,0,1,0,0-.624" transform="translate(-1.711 -8.176)" fill="#2b2e81"/>
          <path id="Path_3907" data-name="Path 3907" d="M8.867,24.1H7.33a.312.312,0,1,0,0,.624H8.867a.312.312,0,0,0,0-.624" transform="translate(-2.636 -9.049)" fill="#2b2e81"/>
          <path id="Path_3908" data-name="Path 3908" d="M26.933,4.445a.31.31,0,0,0,.224.095.317.317,0,0,0,.218-.087.313.313,0,0,0,.006-.441l-.822-.849a.312.312,0,0,0-.448.435Z" transform="translate(-9.773 -1.152)" fill="#2b2e81"/>
          <path id="Path_3909" data-name="Path 3909" d="M31.318,2.231a.312.312,0,0,0,.312-.312V.312a.312.312,0,1,0-.624,0V1.918a.312.312,0,0,0,.312.312" transform="translate(-11.644 0)" fill="#2b2e81"/>
          <path id="Path_3910" data-name="Path 3910" d="M34.647,4.873a.314.314,0,0,0,.221-.091L35.88,3.769a.312.312,0,1,0-.441-.441L34.426,4.339a.312.312,0,0,0,.221.533" transform="translate(-12.894 -1.215)" fill="#2b2e81"/>
          <path id="Path_3911" data-name="Path 3911" d="M29.912,6.884h1.757a.312.312,0,0,0,.312-.312,1.191,1.191,0,0,0-2.381,0,.312.312,0,0,0,.312.312m1.35-.624h-.944a.6.6,0,0,1,.944,0" transform="translate(-11.116 -2.021)" fill="#2b2e81"/>
          <path id="Path_3912" data-name="Path 3912" d="M36.009,11.873a.311.311,0,0,0-.288-.192H33.583a.312.312,0,0,0-.312.312v2.749a.312.312,0,0,0,.312.312h3.283a.313.313,0,0,0,.288-.432ZM33.9,14.43V12.305h1.617L36.4,14.43Z" transform="translate(-12.495 -4.387)" fill="#2b2e81"/>
          <path id="Path_3913" data-name="Path 3913" d="M23.853,14.328h-.929V13.4a.312.312,0,0,0-.312-.312H21.276a.312.312,0,0,0-.312.312v.929h-.929a.312.312,0,0,0-.312.312v1.336a.312.312,0,0,0,.312.312h.929v.929a.312.312,0,0,0,.312.312h1.337a.312.312,0,0,0,.312-.312v-.929h.929a.312.312,0,0,0,.312-.312V14.641a.312.312,0,0,0-.312-.312m-.312,1.336h-.929a.312.312,0,0,0-.312.312v.929h-.713v-.929a.312.312,0,0,0-.312-.312h-.929v-.712h.929a.312.312,0,0,0,.312-.312v-.929H22.3v.929a.312.312,0,0,0,.312.312h.929Z" transform="translate(-7.406 -4.915)" fill="#2b2e81"/>
          <path id="Path_3914" data-name="Path 3914" d="M32.75,17.745l-.417-2.966a1.5,1.5,0,0,0-.921-1.181L31.2,13.51a.762.762,0,0,1-.393-.363L29.012,9.594a1.315,1.315,0,0,0-1.181-.727H13.314a1.329,1.329,0,0,0-1.327,1.328V18.16a1.364,1.364,0,0,0,1.363,1.364h.016l1.005-.011a2.3,2.3,0,0,0,4.5-.05l6.364-.071a2.288,2.288,0,0,0,4.529-.047H31.36a1.4,1.4,0,0,0,1.391-1.6M16.618,20.706a1.67,1.67,0,0,1-1.659-1.526v-.008l-.016-.139a1.672,1.672,0,1,1,3.344.026c0,.008-.008.068-.009.076v0a1.67,1.67,0,0,1-1.662,1.566m10.881,0a1.674,1.674,0,1,1,1.674-1.674A1.675,1.675,0,0,1,27.5,20.706m4.45-2.254a.782.782,0,0,1-.589.269H29.776c0-.028-.014-.054-.019-.081-.011-.062-.027-.122-.042-.182a2.322,2.322,0,0,0-.074-.237c-.022-.058-.047-.114-.074-.17a2.257,2.257,0,0,0-.116-.213c-.032-.052-.066-.1-.1-.154A2.181,2.181,0,0,0,29.2,17.5c-.041-.045-.082-.09-.126-.132-.06-.056-.124-.106-.189-.155-.048-.036-.094-.074-.144-.106a2.437,2.437,0,0,0-.225-.122c-.051-.025-.1-.054-.154-.075a2.228,2.228,0,0,0-.275-.086c-.047-.012-.092-.031-.141-.04a2.221,2.221,0,0,0-.889,0c-.052.011-.1.029-.152.044a2.287,2.287,0,0,0-.26.081c-.065.026-.124.061-.186.093s-.126.062-.184.1a2.343,2.343,0,0,0-.205.154c-.038.031-.078.061-.114.095a2.28,2.28,0,0,0-.212.227c-.018.022-.037.044-.055.067a2.3,2.3,0,0,0-.2.3c-.006.011-.012.021-.018.032a2.321,2.321,0,0,0-.151.363c0,.006,0,.012-.006.019a2.262,2.262,0,0,0-.084.385c0,.009,0,.017-.006.026l-6.316.071c0-.049-.019-.095-.026-.143-.01-.068-.021-.136-.036-.2a2.341,2.341,0,0,0-.071-.227c-.022-.063-.044-.126-.072-.186a2.2,2.2,0,0,0-.112-.207c-.034-.057-.065-.114-.1-.167a2.358,2.358,0,0,0-.151-.184c-.042-.047-.082-.1-.129-.142a2.242,2.242,0,0,0-.187-.155c-.049-.038-.1-.079-.147-.114a2.531,2.531,0,0,0-.225-.122c-.053-.026-.1-.057-.157-.08a2.28,2.28,0,0,0-.278-.087c-.048-.012-.094-.032-.143-.042a2.256,2.256,0,0,0-.905,0c-.049.01-.095.029-.144.042a2.311,2.311,0,0,0-.28.087c-.055.022-.1.054-.156.081a2.3,2.3,0,0,0-.229.124c-.052.034-.1.076-.146.115a2.288,2.288,0,0,0-.19.157c-.046.045-.084.1-.127.144s-.107.119-.153.185-.067.112-.1.17a2.3,2.3,0,0,0-.113.208c-.027.062-.047.126-.069.19a2.341,2.341,0,0,0-.071.227c-.016.068-.023.138-.033.208s-.023.111-.027.169l-.965.011a.8.8,0,0,1-.528-.214.735.735,0,0,1-.22-.526V10.195a.7.7,0,0,1,.7-.7H27.831a.694.694,0,0,1,.623.385l1.792,3.553a1.388,1.388,0,0,0,.715.661l.215.086a.88.88,0,0,1,.538.69l.417,2.966a.781.781,0,0,1-.184.62" transform="translate(-4.502 -3.33)" fill="#2b2e81"/>
        </g>
      </g>
    </g>
  </g>
</svg>
