<svg xmlns="http://www.w3.org/2000/svg" xmlns:xlink="http://www.w3.org/1999/xlink" width="221.93" height="221.93" viewBox="0 0 221.93 221.93">
  <defs>
    <clipPath id="clip-path">
      <rect id="Rectangle_2768" data-name="Rectangle 2768" width="173.766" height="134.263" fill="none"/>
    </clipPath>
  </defs>
  <g id="Group_5957" data-name="Group 5957" transform="translate(-805.063 -192)">
    <g id="Group_5623" data-name="Group 5623" transform="translate(805.063 192)">
      <circle id="Ellipse_115" data-name="Ellipse 115" cx="110.965" cy="110.965" r="110.965" fill="#f0f0ff" opacity="0.2"/>
      <circle id="Ellipse_114" data-name="Ellipse 114" cx="99.789" cy="99.789" r="99.789" transform="translate(11.176 11.176)" fill="#f0f0ff" opacity="0.5"/>
      <circle id="Ellipse_113" data-name="Ellipse 113" cx="87.016" cy="87.016" r="87.016" transform="translate(23.949 23.949)" fill="#f0f0ff"/>
    </g>
    <g id="Group_5509" data-name="Group 5509" transform="translate(832.196 234.825)">
      <g id="Group_5508" data-name="Group 5508" clip-path="url(#clip-path)">
        <path id="Path_3881" data-name="Path 3881" d="M169.633,87.482c.006-2.913.022-5.206.056-6.106.1-2.68-6.681-3.963-6.681-3.963-8.388-1.678-32.787-1.678-41.175,0,0,0-6.462,1.057-6.681,3.963-.068.9-.1,3.212-.112,6.145a14.051,14.051,0,0,0,1.287,27.8c1.837,5.63,6.517,13.87,18.381,16.861a7,7,0,0,1,1.911,3.215c.113,1.019-1.246,6.795-1.246,6.795-2.831,7.361-9.2,7.927-9.2,7.927v2.378H159.34v-2.378s-6.373-.566-9.2-7.927c0,0-1.359-5.775-1.246-6.795a7.354,7.354,0,0,1,2.219-3.523,25.576,25.576,0,0,0,17.234-16.536,14.049,14.049,0,0,0,1.29-27.852M109.74,101.329a7.907,7.907,0,0,1,5.3-7.464c.02,6.154.08,12.67.1,14.963a7.907,7.907,0,0,1-5.4-7.5m43.469-.3-3.443,3.347a1.874,1.874,0,0,0-.541,1.659l.805,4.733a1.874,1.874,0,0,1-2.722,1.972l-4.247-2.24a1.875,1.875,0,0,0-1.744,0l-4.253,2.229a1.874,1.874,0,0,1-2.717-1.979l.818-4.732a1.873,1.873,0,0,0-.537-1.66L131.194,101a1.874,1.874,0,0,1,1.043-3.2l4.753-.684A1.874,1.874,0,0,0,138.4,96.1l2.131-4.3a1.875,1.875,0,0,1,3.362,0l2.119,4.309a1.874,1.874,0,0,0,1.41,1.027l4.751.7a1.874,1.874,0,0,1,1.034,3.2m16.476,7.82c-.011-2.284-.042-8.864-.051-15.058a7.907,7.907,0,0,1,.051,15.058" transform="translate(-56.52 -41.55)" fill="#2b2e81"/>
        <line id="Line_168" data-name="Line 168" x2="26.331" y2="27.418" transform="translate(24.216 5.283)" fill="none" stroke="#c7c9cb" stroke-miterlimit="10" stroke-width="1"/>
        <line id="Line_169" data-name="Line 169" x2="7.399" y2="29.377" transform="translate(68.825 0.061)" fill="none" stroke="#c7c9cb" stroke-miterlimit="10" stroke-width="1"/>
        <line id="Line_170" data-name="Line 170" x1="0.218" y2="14.471" transform="translate(87.104 14.749)" fill="none" stroke="#c7c9cb" stroke-miterlimit="10" stroke-width="1"/>
        <line id="Line_171" data-name="Line 171" x1="8.051" y2="29.159" transform="translate(98.637 0.061)" fill="none" stroke="#c7c9cb" stroke-miterlimit="10" stroke-width="1"/>
        <line id="Line_172" data-name="Line 172" x1="5.222" y2="7.888" transform="translate(110.388 21.984)" fill="none" stroke="#c7c9cb" stroke-miterlimit="10" stroke-width="1"/>
        <line id="Line_173" data-name="Line 173" y1="28.071" x2="27.854" transform="translate(121.269 8.547)" fill="none" stroke="#c7c9cb" stroke-miterlimit="10" stroke-width="1"/>
        <line id="Line_174" data-name="Line 174" y1="3.699" x2="7.399" transform="translate(143.247 35.313)" fill="none" stroke="#c7c9cb" stroke-miterlimit="10" stroke-width="1"/>
        <line id="Line_175" data-name="Line 175" y1="11.194" x2="46.062" transform="translate(127.651 49.022)" fill="none" stroke="#c7c9cb" stroke-miterlimit="10" stroke-width="1"/>
        <line id="Line_176" data-name="Line 176" x2="19.367" y2="0.653" transform="translate(142.159 71.218)" fill="none" stroke="#c7c9cb" stroke-miterlimit="10" stroke-width="1"/>
        <line id="Line_177" data-name="Line 177" x2="56.36" y2="16.973" transform="translate(115.828 78.399)" fill="none" stroke="#c7c9cb" stroke-miterlimit="10" stroke-width="1"/>
        <line id="Line_178" data-name="Line 178" x2="21.761" y2="12.621" transform="translate(109.953 84.71)" fill="none" stroke="#c7c9cb" stroke-miterlimit="10" stroke-width="1"/>
        <line id="Line_179" data-name="Line 179" x2="43.304" y2="45.915" transform="translate(103.642 88.192)" fill="none" stroke="#c7c9cb" stroke-miterlimit="10" stroke-width="1"/>
        <line id="Line_180" data-name="Line 180" x2="10.119" y2="6.528" transform="translate(141.724 103.424)" fill="none" stroke="#c7c9cb" stroke-miterlimit="10" stroke-width="1"/>
        <line id="Line_181" data-name="Line 181" x2="10.881" y2="18.932" transform="translate(97.332 91.02)" fill="none" stroke="#c7c9cb" stroke-miterlimit="10" stroke-width="1"/>
        <line id="Line_182" data-name="Line 182" x1="11.315" y2="19.258" transform="translate(61.209 91.891)" fill="none" stroke="#c7c9cb" stroke-miterlimit="10" stroke-width="1"/>
        <line id="Line_183" data-name="Line 183" x1="4.788" y2="9.139" transform="translate(52.722 116.263)" fill="none" stroke="#c7c9cb" stroke-miterlimit="10" stroke-width="1"/>
        <line id="Line_184" data-name="Line 184" x1="44.392" y2="41.998" transform="translate(22.475 88.844)" fill="none" stroke="#c7c9cb" stroke-miterlimit="10" stroke-width="1"/>
        <line id="Line_185" data-name="Line 185" x1="55.055" y2="13.927" transform="translate(0.061 77.094)" fill="none" stroke="#c7c9cb" stroke-miterlimit="10" stroke-width="1"/>
        <line id="Line_186" data-name="Line 186" x1="14.58" y2="6.964" transform="translate(46.194 84.057)" fill="none" stroke="#c7c9cb" stroke-miterlimit="10" stroke-width="1"/>
        <line id="Line_187" data-name="Line 187" x1="8.813" y2="4.842" transform="translate(28.568 96.678)" fill="none" stroke="#c7c9cb" stroke-miterlimit="10" stroke-width="1"/>
        <line id="Line_188" data-name="Line 188" x1="14.362" y1="0.218" transform="translate(26.392 68.389)" fill="none" stroke="#c7c9cb" stroke-miterlimit="10" stroke-width="1"/>
        <line id="Line_189" data-name="Line 189" x1="37.32" y1="10.445" transform="translate(0.061 45.105)" fill="none" stroke="#c7c9cb" stroke-miterlimit="10" stroke-width="1"/>
        <line id="Line_190" data-name="Line 190" x1="6.746" y1="3.482" transform="translate(43.8 45.105)" fill="none" stroke="#c7c9cb" stroke-miterlimit="10" stroke-width="1"/>
        <line id="Line_191" data-name="Line 191" x1="4.026" y1="2.285" transform="translate(27.589 34.878)" fill="none" stroke="#c7c9cb" stroke-miterlimit="10" stroke-width="1"/>
        <path id="Path_3882" data-name="Path 3882" d="M78.78,83.634a1.85,1.85,0,1,1-1.85-1.85A1.85,1.85,0,0,1,78.78,83.634Z" transform="translate(-40.964 -44.621)" fill="none" stroke="#c7c9cb" stroke-miterlimit="10" stroke-width="1"/>
        <path id="Path_3883" data-name="Path 3883" d="M303.668,89.237a1.849,1.849,0,1,1-1.85-1.85A1.849,1.849,0,0,1,303.668,89.237Z" transform="translate(-163.663 -47.678)" fill="none" stroke="#c7c9cb" stroke-miterlimit="10" stroke-width="1"/>
        <path id="Path_3884" data-name="Path 3884" d="M301.225,216.765a1.85,1.85,0,1,1-1.85-1.85A1.85,1.85,0,0,1,301.225,216.765Z" transform="translate(-162.331 -117.258)" fill="none" stroke="#c7c9cb" stroke-miterlimit="10" stroke-width="1"/>
        <path id="Path_3885" data-name="Path 3885" d="M92.145,204.908a1.85,1.85,0,1,1-1.85-1.85A1.85,1.85,0,0,1,92.145,204.908Z" transform="translate(-48.256 -110.789)" fill="none" stroke="#c7c9cb" stroke-miterlimit="10" stroke-width="1"/>
        <path id="Path_3886" data-name="Path 3886" d="M134.27,51.657l1.822-1.049-.276,2.084,1.56,1.409-2.067.382-.857,1.919-1-1.848-2.09-.223,1.448-1.524-.434-2.057Z" transform="translate(-71.67 -27.612)" fill="none" stroke="#c7c9cb" stroke-miterlimit="10" stroke-width="1"/>
        <path id="Path_3887" data-name="Path 3887" d="M296.258,152.122l1.822-1.049-.276,2.084,1.56,1.409-2.067.382-.857,1.919-1-1.848-2.09-.223,1.448-1.524-.434-2.057Z" transform="translate(-160.051 -82.426)" fill="none" stroke="#c7c9cb" stroke-miterlimit="10" stroke-width="1"/>
        <path id="Path_3888" data-name="Path 3888" d="M250.56,268.5l1.822-1.049-.276,2.084,1.56,1.409-2.067.382-.857,1.919-1-1.848-2.09-.223,1.448-1.524-.434-2.057Z" transform="translate(-135.118 -145.92)" fill="none" stroke="#c7c9cb" stroke-miterlimit="10" stroke-width="1"/>
        <path id="Path_3889" data-name="Path 3889" d="M108.048,278.331l1.822-1.049-.276,2.084,1.56,1.409-2.067.382-.857,1.919-1-1.848-2.09-.223,1.448-1.524-.434-2.057Z" transform="translate(-57.363 -151.286)" fill="none" stroke="#c7c9cb" stroke-miterlimit="10" stroke-width="1"/>
        <path id="Path_3890" data-name="Path 3890" d="M39.8,148.68l1.822-1.049-.276,2.084,1.56,1.409-2.067.382-.857,1.919-1-1.848-2.09-.223,1.448-1.524-.434-2.057Z" transform="translate(-20.128 -80.548)" fill="none" stroke="#c7c9cb" stroke-miterlimit="10" stroke-width="1"/>
        <line id="Line_192" data-name="Line 192" x1="6.625" transform="translate(123.914 71.41)" fill="none" stroke="#c7c9cb" stroke-miterlimit="10" stroke-width="1"/>
        <line id="Line_193" data-name="Line 193" y2="2.718" transform="translate(87.213 113.383)" fill="none" stroke="#c7c9cb" stroke-miterlimit="10" stroke-width="1"/>
        <circle id="Ellipse_93" data-name="Ellipse 93" cx="1.878" cy="1.878" r="1.878" transform="translate(85.335 118.954)" fill="none" stroke="#c7c9cb" stroke-miterlimit="10" stroke-width="1"/>
      </g>
    </g>
  </g>
</svg>
