<svg xmlns="http://www.w3.org/2000/svg" xmlns:xlink="http://www.w3.org/1999/xlink" width="17.554" height="16.85" viewBox="0 0 17.554 16.85">
  <defs>
    <clipPath id="clip-path">
      <rect id="Rectangle_3015" data-name="Rectangle 3015" width="17.554" height="16.85" fill="#fd8f05"/>
    </clipPath>
  </defs>
  <g id="Group_5997" data-name="Group 5997" clip-path="url(#clip-path)">
    <path id="Path_4082" data-name="Path 4082" d="M15.952,12.024v4.432a1.187,1.187,0,0,1-1.185,1.185H2.787A1.187,1.187,0,0,1,1.6,16.456V12.024H0v4.432a2.791,2.791,0,0,0,2.787,2.787H14.768a2.79,2.79,0,0,0,2.786-2.787V12.024Z" transform="translate(0 -2.393)" fill="#fd8f05"/>
    <path id="Path_4083" data-name="Path 4083" d="M14.794,6.6,13.662,5.466l-3.17,3.17V0H8.89V8.637L5.719,5.466,4.586,6.6l5.1,5.1Z" transform="translate(-0.913 0)" fill="#fd8f05"/>
  </g>
</svg>
