<svg xmlns="http://www.w3.org/2000/svg" xmlns:xlink="http://www.w3.org/1999/xlink" width="17.389" height="15.994" viewBox="0 0 17.389 15.994">
  <defs>
    <clipPath id="clip-path">
      <rect id="Rectangle_1738" data-name="Rectangle 1738" width="17.389" height="15.994" transform="translate(0 0)" fill="#707070"/>
    </clipPath>
  </defs>
  <g id="Group_2740" data-name="Group 2740" transform="translate(0 0)">
    <g id="Group_2718" data-name="Group 2718" clip-path="url(#clip-path)">
      <path id="Path_2564" data-name="Path 2564" d="M13.3,1.233A1.6,1.6,0,0,0,11.744,0a.5.5,0,0,0,0,1,.6.6,0,1,1,0,1.2.5.5,0,0,0,0,1,1.606,1.606,0,0,0,1.475-.978,3.271,3.271,0,0,1,3.169,3.262v.972L1,6.38V5.486A3.266,3.266,0,0,1,4.109,2.231,1.6,1.6,0,0,0,5.581,3.2a.5.5,0,0,0,0-1,.6.6,0,1,1,0-1.2.5.5,0,1,0,0-1A1.6,1.6,0,0,0,4.026,1.239,4.264,4.264,0,0,0,0,5.486v6.237a4.276,4.276,0,0,0,4.271,4.271h8.846a4.276,4.276,0,0,0,4.271-4.271V5.486A4.266,4.266,0,0,0,13.3,1.233m-.182,13.761H4.271A3.276,3.276,0,0,1,1,11.723V7.38l15.388.078v4.265a3.275,3.275,0,0,1-3.271,3.271" fill="#707070"/>
      <path id="Path_2565" data-name="Path 2565" d="M5.891,1.714a.5.5,0,0,0,.5.5h4.444a.5.5,0,0,0,0-1H6.391a.5.5,0,0,0-.5.5" fill="#707070"/>
      <path id="Path_2566" data-name="Path 2566" d="M6.99,9.149a.683.683,0,0,1-.149.278.718.718,0,0,1-.375.2,3.375,3.375,0,0,1-.507.048V10.2h.914v2.679h.781V8.993H7.019a.622.622,0,0,1-.029.156" fill="#707070"/>
      <path id="Path_2567" data-name="Path 2567" d="M10.14,8.967A1.1,1.1,0,0,0,9.1,9.489a3.024,3.024,0,0,0-.3,1.484,3.009,3.009,0,0,0,.3,1.481,1.1,1.1,0,0,0,1.041.519,1.1,1.1,0,0,0,1.04-.519,3.008,3.008,0,0,0,.3-1.481,3.036,3.036,0,0,0-.3-1.484,1.1,1.1,0,0,0-1.041-.522M10.587,12a.461.461,0,0,1-.9,0,3.623,3.623,0,0,1-.11-1.024,3.6,3.6,0,0,1,.11-1.04.438.438,0,0,1,.45-.337.432.432,0,0,1,.445.337,3.778,3.778,0,0,1,.106,1.04,3.854,3.854,0,0,1-.1,1.023" fill="#707070"/>
    </g>
  </g>
</svg>
