<svg id="Group_473" data-name="Group 473" xmlns="http://www.w3.org/2000/svg" xmlns:xlink="http://www.w3.org/1999/xlink" width="10" height="11" viewBox="0 0 10 11">
  <defs>
    <clipPath id="clip-path">
      <rect id="Rectangle_257" data-name="Rectangle 257" width="10" height="11" transform="translate(0 0)" fill="none"/>
    </clipPath>
  </defs>
  <g id="Group_472" data-name="Group 472" clip-path="url(#clip-path)">
    <path id="Path_631" data-name="Path 631" d="M2.95,1.749c.165-.177.3-.327.441-.474A.417.417,0,0,0,3.507.858.373.373,0,0,0,3.188.579Q1.809.3.431.018C.139-.042-.043.143.009.459c.167,1.008.338,2.016.5,3.024a.4.4,0,0,0,.253.35.355.355,0,0,0,.4-.137c.132-.15.268-.294.43-.471a.563.563,0,0,0,.06.108q.647.708,1.3,1.413a.291.291,0,0,0,.5,0l.894-.971a.351.351,0,0,0,0-.547q-.645-.7-1.292-1.4a.722.722,0,0,0-.1-.075M8.408,3.228c.163.178.3.328.441.482a.345.345,0,0,0,.385.124A.385.385,0,0,0,9.486,3.5c.117-.71.236-1.419.354-2.129.054-.327.117-.652.157-.981A.321.321,0,0,0,9.611.008C8.682.2,7.754.389,6.825.576A.381.381,0,0,0,6.5.856a.428.428,0,0,0,.128.433c.137.143.27.292.428.464a.6.6,0,0,0-.1.07q-.647.7-1.292,1.4a.351.351,0,0,0,0,.547l.894.971a.293.293,0,0,0,.5,0q.646-.7,1.291-1.405a.64.64,0,0,0,.064-.107" fill="#fff"/>
    <path id="Path_632" data-name="Path 632" d="M.221,11a.445.445,0,0,1-.2-.538c.172-.986.332-1.974.5-2.962a.381.381,0,0,1,.256-.335.343.343,0,0,1,.376.122c.138.153.278.3.424.464.029-.03.055-.055.08-.082l1.3-1.412a.292.292,0,0,1,.5,0q.451.489.9.98a.349.349,0,0,1,0,.539q-.646.7-1.294,1.4a.894.894,0,0,1-.1.078c.161.175.307.329.448.487a.407.407,0,0,1,.075.48.372.372,0,0,1-.278.2L.47,10.977A.265.265,0,0,0,.419,11Z" fill="#1a1818"/>
    <path id="Path_633" data-name="Path 633" d="M9.583,11c-.188-.043-.376-.09-.564-.129-.742-.152-1.484-.3-2.226-.454a.36.36,0,0,1-.3-.266.4.4,0,0,1,.095-.4c.144-.157.289-.313.44-.476-.028-.033-.051-.061-.076-.088L5.663,7.78a.353.353,0,0,1,0-.554l.894-.972a.291.291,0,0,1,.5,0q.646.7,1.291,1.405a.979.979,0,0,1,.072.106c.16-.175.3-.333.447-.487A.333.333,0,0,1,9.3,7.2a.4.4,0,0,1,.182.291q.187,1.117.374,2.234c.042.25.072.5.125.748a.43.43,0,0,1-.2.527Z" fill="#1a1818"/>
    <path id="Path_634" data-name="Path 634" d="M2.95,1.749a.722.722,0,0,1,.1.075q.647.7,1.292,1.4a.351.351,0,0,1,0,.547l-.894.971a.291.291,0,0,1-.5,0q-.65-.705-1.3-1.413a.567.567,0,0,1-.06-.109c-.162.177-.3.321-.43.471a.355.355,0,0,1-.4.137.4.4,0,0,1-.253-.35C.347,2.475.176,1.467.009.459c-.052-.316.13-.5.422-.441Q1.809.3,3.189.579a.374.374,0,0,1,.319.278.417.417,0,0,1-.116.418c-.139.147-.276.3-.441.474" fill="#1a1818"/>
    <path id="Path_635" data-name="Path 635" d="M8.408,3.228a.64.64,0,0,1-.064.107q-.644.7-1.291,1.405a.293.293,0,0,1-.5,0l-.894-.971a.351.351,0,0,1,0-.547q.645-.7,1.292-1.4a.6.6,0,0,1,.1-.07c-.158-.172-.29-.32-.428-.464A.428.428,0,0,1,6.5.856.381.381,0,0,1,6.825.576C7.754.389,8.682.2,9.611.008A.321.321,0,0,1,10,.386c-.04.329-.1.654-.157.981-.118.71-.237,1.419-.354,2.129a.385.385,0,0,1-.252.338.345.345,0,0,1-.385-.124c-.137-.153-.278-.3-.441-.482" fill="#1a1818"/>
  </g>
</svg>
