<svg xmlns="http://www.w3.org/2000/svg" xmlns:xlink="http://www.w3.org/1999/xlink" width="40" height="40" viewBox="0 0 40 40">
  <defs>
    <clipPath id="clip-path">
      <rect id="Rectangle_2927" data-name="Rectangle 2927" width="21.664" height="17.959" fill="#2b2e81"/>
    </clipPath>
  </defs>
  <g id="Group_5980" data-name="Group 5980" transform="translate(-884 -779)">
    <circle id="Ellipse_89" data-name="Ellipse 89" cx="20" cy="20" r="20" transform="translate(884 779)" fill="#f0f0ff"/>
    <g id="Group_5699" data-name="Group 5699" transform="translate(893.168 789.021)">
      <g id="Group_5698" data-name="Group 5698" transform="translate(0 0)" clip-path="url(#clip-path)">
        <path id="Path_3937" data-name="Path 3937" d="M19.729,6.949C18.2,3.439,15.817.875,14.069.853a1.569,1.569,0,0,0-1.2.516,4.317,4.317,0,0,0-.768,2.809A3.336,3.336,0,0,0,11.53,4V.7a.7.7,0,0,0-1.4,0V4a3.33,3.33,0,0,0-.567.174A4.313,4.313,0,0,0,8.79,1.369a1.558,1.558,0,0,0-1.2-.516c-1.748.022-4.128,2.586-5.66,6.1C.675,9.837-.569,15.616.277,17.284a1.129,1.129,0,0,0,.766.636,1.862,1.862,0,0,0,.4.039,7.2,7.2,0,0,0,3.775-1.482A10.114,10.114,0,0,0,9.291,8.943c.117-1.188.2-2.221.245-3.123a1.946,1.946,0,0,1,2.38-.16.7.7,0,0,0,.209.093c.042.917.128,1.972.248,3.19a10.114,10.114,0,0,0,4.072,7.534,7.2,7.2,0,0,0,3.776,1.482,1.86,1.86,0,0,0,.4-.039,1.13,1.13,0,0,0,.766-.636c.846-1.668-.4-7.447-1.658-10.335M7.893,8.806a8.747,8.747,0,0,1-3.5,6.533,6.093,6.093,0,0,1-2.907,1.22c-.337-.961.268-5.689,1.734-9.048C4.814,3.863,6.9,2.267,7.612,2.258a.167.167,0,0,1,.143.061c.7.763.32,4.629.137,6.487m12.283,7.753a6.1,6.1,0,0,1-2.907-1.22,8.746,8.746,0,0,1-3.5-6.533c-.183-1.858-.563-5.724.138-6.487a.156.156,0,0,1,.137-.061h.006c.713.009,2.8,1.605,4.39,5.253,1.465,3.359,2.072,8.087,1.734,9.048" transform="translate(0 0)" fill="#2b2e81"/>
      </g>
    </g>
  </g>
</svg>
