<svg xmlns="http://www.w3.org/2000/svg" xmlns:xlink="http://www.w3.org/1999/xlink" width="20.401" height="19.825" viewBox="0 0 20.401 19.825">
  <defs>
    <clipPath id="clip-path">
      <rect id="Rectangle_101" data-name="Rectangle 101" width="20.401" height="19.825" fill="none" stroke="#000" stroke-width="1"/>
    </clipPath>
  </defs>
  <g id="Group_223" data-name="Group 223" transform="translate(0 0)">
    <g id="Group_222" data-name="Group 222" transform="translate(0 0)" clip-path="url(#clip-path)">
      <path id="Path_276" data-name="Path 276" d="M18.41,12.118l1.609.961-8.027,4.536L.4,10.755l1.652-.992" transform="translate(-0.009 -0.215)" fill="none" stroke="#000" stroke-linecap="round" stroke-linejoin="round" stroke-width="0.8"/>
      <path id="Path_277" data-name="Path 277" d="M18.41,14.2l1.609.961-8.027,4.536L.4,12.834l1.652-.992" transform="translate(-0.009 -0.261)" fill="none" stroke="#000" stroke-linecap="round" stroke-linejoin="round" stroke-width="0.8"/>
      <path id="Path_278" data-name="Path 278" d="M18.044,9.432l1.975,1.18-8.027,4.535L.4,8.288l1.625-.976" transform="translate(-0.009 -0.161)" fill="none" stroke="#000" stroke-linecap="round" stroke-linejoin="round" stroke-width="0.8"/>
      <path id="Path_279" data-name="Path 279" d="M11.79,12.826,1.5,6.734l2.549-1.44L1.777,3.557,7.408.4,20.043,8.164Z" transform="translate(-0.033 -0.009)" fill="none" stroke="#000" stroke-linecap="round" stroke-linejoin="round" stroke-width="0.8"/>
      <line id="Line_24" data-name="Line 24" y1="3.177" x2="0.279" transform="translate(1.465 3.548)" fill="none" stroke="#000" stroke-linecap="round" stroke-linejoin="round" stroke-width="0.8"/>
      <path id="Path_280" data-name="Path 280" d="M5.5,7.246c.323-.1,5.281-2.922,5.281-2.922" transform="translate(-0.121 -0.095)" fill="none" stroke="#000" stroke-linecap="round" stroke-linejoin="round" stroke-width="0.8"/>
      <path id="Path_281" data-name="Path 281" d="M7.434,8.305c.323-.1,5.281-2.922,5.281-2.922" transform="translate(-0.164 -0.119)" fill="none" stroke="#000" stroke-linecap="round" stroke-linejoin="round" stroke-width="0.8"/>
      <path id="Path_282" data-name="Path 282" d="M9.58,9.46c.323-.1,5.281-2.922,5.281-2.922" transform="translate(-0.211 -0.144)" fill="none" stroke="#000" stroke-linecap="round" stroke-linejoin="round" stroke-width="0.8"/>
    </g>
  </g>
</svg>
