<svg xmlns="http://www.w3.org/2000/svg" xmlns:xlink="http://www.w3.org/1999/xlink" width="21.574" height="21.37" viewBox="0 0 21.574 21.37">
  <defs>
    <clipPath id="clip-path">
      <rect id="Rectangle_2909" data-name="Rectangle 2909" width="16.111" height="17.749" fill="none"/>
    </clipPath>
    <clipPath id="clip-path-2">
      <rect id="Rectangle_2910" data-name="Rectangle 2910" width="21.574" height="21.37" fill="none"/>
    </clipPath>
  </defs>
  <g id="Group_5676" data-name="Group 5676" transform="translate(0 0)">
    <g id="Group_5673" data-name="Group 5673" transform="translate(5.463 1.811)">
      <g id="Group_5672" data-name="Group 5672" clip-path="url(#clip-path)">
        <path id="Path_3924" data-name="Path 3924" d="M21.813,16.921a.591.591,0,0,1-.419-1.01l3.332-3.331L21.395,9.249a.592.592,0,1,1,.837-.837l3.577,3.578a.837.837,0,0,1,0,1.183l-3.578,3.576a.592.592,0,0,1-.418.173m3.158-4.1,0,0Zm0-.489h0Z" transform="translate(-9.943 -3.55)"/>
        <path id="Path_3925" data-name="Path 3925" d="M23.523,14.176H14.092a.592.592,0,1,1,0-1.183h9.432a.592.592,0,0,1,0,1.183" transform="translate(-8.313 -4.554)"/>
      </g>
    </g>
    <g id="Group_5675" data-name="Group 5675" transform="translate(0 0)">
      <g id="Group_5674" data-name="Group 5674" clip-path="url(#clip-path-2)">
        <path id="Path_3926" data-name="Path 3926" d="M11.255,21.37H4.345A4.35,4.35,0,0,1,0,17.026V4.345A4.35,4.35,0,0,1,4.345,0h6.91A4.349,4.349,0,0,1,15.6,4.345V4.52a.592.592,0,1,1-1.183,0V4.345a3.165,3.165,0,0,0-3.161-3.162H4.345A3.165,3.165,0,0,0,1.183,4.345V17.026a3.165,3.165,0,0,0,3.162,3.161h6.91a3.165,3.165,0,0,0,3.161-3.161.592.592,0,0,1,1.183,0,4.349,4.349,0,0,1-4.344,4.344" transform="translate(0 0)"/>
      </g>
    </g>
  </g>
</svg>
