<svg xmlns="http://www.w3.org/2000/svg" xmlns:xlink="http://www.w3.org/1999/xlink" width="40" height="40" viewBox="0 0 40 40">
  <defs>
    <clipPath id="clip-path">
      <rect id="Rectangle_2853" data-name="Rectangle 2853" width="14.659" height="14.66" fill="#2b2e81"/>
    </clipPath>
  </defs>
  <g id="Group_5968" data-name="Group 5968" transform="translate(-874 -377)">
    <circle id="Ellipse_86" data-name="Ellipse 86" cx="20" cy="20" r="20" transform="translate(874 377)" fill="#f0f0ff"/>
    <g id="Group_5573" data-name="Group 5573" transform="translate(886.67 389.67)">
      <g id="Group_5572" data-name="Group 5572" transform="translate(0 0)" clip-path="url(#clip-path)">
        <path id="Path_3903" data-name="Path 3903" d="M9.128,14.66h-3.6a1.251,1.251,0,0,1-1.249-1.25V10.378H1.249A1.251,1.251,0,0,1,0,9.128v-3.6A1.251,1.251,0,0,1,1.249,4.283H4.283V1.25A1.251,1.251,0,0,1,5.532,0h3.6a1.251,1.251,0,0,1,1.249,1.25V4.283H13.41a1.251,1.251,0,0,1,1.249,1.249v3.6a1.251,1.251,0,0,1-1.249,1.25H10.377V13.41a1.251,1.251,0,0,1-1.249,1.25M1.249,5.072a.461.461,0,0,0-.461.461v3.6a.462.462,0,0,0,.461.461H4.677a.394.394,0,0,1,.394.394V13.41a.461.461,0,0,0,.461.461h3.6a.461.461,0,0,0,.461-.461V9.984a.394.394,0,0,1,.394-.394H13.41a.462.462,0,0,0,.461-.461v-3.6a.461.461,0,0,0-.461-.461H9.982a.394.394,0,0,1-.394-.394V1.25A.461.461,0,0,0,9.128.789h-3.6a.461.461,0,0,0-.461.461V4.678a.394.394,0,0,1-.394.394Z" transform="translate(0 0)" fill="#2b2e81"/>
      </g>
    </g>
  </g>
</svg>
