<svg xmlns="http://www.w3.org/2000/svg" xmlns:xlink="http://www.w3.org/1999/xlink" width="40" height="40" viewBox="0 0 40 40">
  <defs>
    <clipPath id="clip-path">
      <rect id="Rectangle_2928" data-name="Rectangle 2928" width="17.358" height="16.849" fill="#2b2e81"/>
    </clipPath>
  </defs>
  <g id="Group_5981" data-name="Group 5981" transform="translate(-1095 -781)">
    <circle id="Ellipse_90" data-name="Ellipse 90" cx="20" cy="20" r="20" transform="translate(1095 781)" fill="#f0f0ff"/>
    <g id="Group_5701" data-name="Group 5701" transform="translate(1105.211 792.88)">
      <g id="Group_5700" data-name="Group 5700" transform="translate(0 0)" clip-path="url(#clip-path)">
        <path id="Path_3938" data-name="Path 3938" d="M4.2,16.849a1.975,1.975,0,0,1-1.934-1.594L.036,3.847A1.974,1.974,0,0,1,1.594,1.535L9.278.037A1.974,1.974,0,0,1,11.59,1.594L13.814,13a1.971,1.971,0,0,1-1.558,2.312l-7.684,1.5a1.984,1.984,0,0,1-.378.037m5.46-15.7a.821.821,0,0,0-.158.015l-7.684,1.5a.824.824,0,0,0-.65.965L3.389,15.035a.824.824,0,0,0,.965.65l7.684-1.5a.823.823,0,0,0,.65-.965L10.462,1.814a.824.824,0,0,0-.807-.665" transform="translate(0 0)" fill="#2b2e81"/>
        <path id="Path_3939" data-name="Path 3939" d="M75.162,18.319h-.05l-1.3-.032a.574.574,0,0,1,.014-1.148h.015l1.3.032a.828.828,0,0,0,.843-.8l.287-11.619a.824.824,0,0,0-.8-.843L72.412,3.83a.574.574,0,1,1,.029-1.148l3.056.075a1.974,1.974,0,0,1,1.922,2.019L77.132,16.4a1.972,1.972,0,0,1-1.969,1.922" transform="translate(-60.062 -2.242)" fill="#2b2e81"/>
      </g>
    </g>
  </g>
</svg>
