<svg xmlns="http://www.w3.org/2000/svg" xmlns:xlink="http://www.w3.org/1999/xlink" width="15" height="15" viewBox="0 0 15 15">
  <defs>
    <clipPath id="clip-path">
      <rect id="Rectangle_1418" data-name="Rectangle 1418" width="15" height="15" fill="#1f6521"/>
    </clipPath>
  </defs>
  <g id="Group_3990" data-name="Group 3990" transform="translate(0 0)">
    <g id="Group_2181" data-name="Group 2181" transform="translate(0 0)" clip-path="url(#clip-path)">
      <path id="Path_2117" data-name="Path 2117" d="M7.5,0A7.5,7.5,0,1,0,15,7.5,7.5,7.5,0,0,0,7.5,0m3.32,8.326H8.326V10.82a.826.826,0,0,1-1.652,0V8.326H4.18a.826.826,0,0,1,0-1.652H6.674V4.18a.826.826,0,0,1,1.652,0V6.674H10.82a.826.826,0,0,1,0,1.652" transform="translate(0 0)" fill="#1f6521"/>
    </g>
  </g>
</svg>
