<svg id="Group_5967" data-name="Group 5967" xmlns="http://www.w3.org/2000/svg" xmlns:xlink="http://www.w3.org/1999/xlink" width="134" height="119.286" viewBox="0 0 134 119.286">
  <defs>
    <clipPath id="clip-path">
      <rect id="Rectangle_2993" data-name="Rectangle 2993" width="134" height="119.286" fill="none"/>
    </clipPath>
  </defs>
  <g id="Group_5966" data-name="Group 5966" clip-path="url(#clip-path)">
    <path id="Path_4033" data-name="Path 4033" d="M134,51.013a33.457,33.457,0,0,0-33.46-33.456h-.019a3.535,3.535,0,0,1-2.85-1.43A39.746,39.746,0,0,0,26,37.9c-.011.184.352,2.049-2.31,2.779C10.136,44.4-.04,56.442,0,71.146A31.317,31.317,0,0,0,50.016,96.18c.006-.006.011-.008.017-.013a2.094,2.094,0,0,1,2.907.37,21.408,21.408,0,0,0,28.067,4.979,5.525,5.525,0,0,1,6.054.2,22.651,22.651,0,0,0,35.588-18.593c0-.562-.021-1.122-.062-1.673a10.573,10.573,0,0,1,2.688-7.9A33.328,33.328,0,0,0,134,51.013" transform="translate(0 0)" fill="#f0f1ff"/>
    <path id="Path_4034" data-name="Path 4034" d="M99.15,103.765a19.7,19.7,0,1,1-19.7-19.7,19.7,19.7,0,0,1,19.7,19.7" transform="translate(-12.453 -17.519)" fill="#fff"/>
    <path id="Path_4035" data-name="Path 4035" d="M79.036,124.63a21.281,21.281,0,1,1,21.281-21.281A21.305,21.305,0,0,1,79.036,124.63m0-39.4A18.114,18.114,0,1,0,97.15,103.349,18.136,18.136,0,0,0,79.036,85.234" transform="translate(-12.036 -17.102)" fill="#2b2e81"/>
    <path id="Path_4036" data-name="Path 4036" d="M82.641,113.473l-5.9-4.15,1.823-2.59,3.507,2.469,5.041-6.078,2.437,2.022Z" transform="translate(-15.993 -21.49)" fill="#2b2e81"/>
    <path id="Path_4037" data-name="Path 4037" d="M75.94,133.292a33.04,33.04,0,1,1,31.791-42.071,1.583,1.583,0,1,1-3.045.864,29.906,29.906,0,1,0,1.127,8.167,1.583,1.583,0,0,1,3.166,0A33.077,33.077,0,0,1,75.94,133.292" transform="translate(-8.94 -14.006)" fill="#2b2e81"/>
    <path id="Path_4038" data-name="Path 4038" d="M107.845,73.3a1.584,1.584,0,0,1-1.583-1.583V60.794a17.64,17.64,0,0,0-2.24-8.608,1.583,1.583,0,0,1,2.761-1.549,20.8,20.8,0,0,1,2.646,10.157V71.719a1.584,1.584,0,0,1-1.583,1.583" transform="translate(-21.635 -10.384)" fill="#2b2e81"/>
    <path id="Path_4039" data-name="Path 4039" d="M59.954,70.715a1.584,1.584,0,0,1-1.583-1.583V58.207A20.817,20.817,0,0,1,79.165,37.414a20.6,20.6,0,0,1,12.7,4.325,1.584,1.584,0,1,1-1.936,2.506A17.456,17.456,0,0,0,79.165,40.58,17.647,17.647,0,0,0,61.537,58.207V69.131a1.584,1.584,0,0,1-1.583,1.583" transform="translate(-12.164 -7.797)" fill="#2b2e81"/>
  </g>
</svg>
