<svg xmlns="http://www.w3.org/2000/svg" xmlns:xlink="http://www.w3.org/1999/xlink" width="24.077" height="24.122" viewBox="0 0 24.077 24.122">
  <defs>
    <clipPath id="clip-path">
      <rect id="Rectangle_93" data-name="Rectangle 93" width="24.077" height="24.122" fill="none" stroke="#000" stroke-width="1"/>
    </clipPath>
  </defs>
  <g id="Group_215" data-name="Group 215" transform="translate(0 0)">
    <g id="Group_214" data-name="Group 214" transform="translate(0 0)" clip-path="url(#clip-path)">
      <path id="Path_268" data-name="Path 268" d="M21.336,5.194c-.069.119-.116.218-.177.307-.14.206-.288.408-.43.611a2.7,2.7,0,0,0,2.244,4.172c.548.013.584.019.6.551.024.87,0,1.741-.011,2.612,0,.3-.133.429-.464.428a2.713,2.713,0,0,0-2.815,2.452,2.821,2.821,0,0,0,.224,1.259,3.987,3.987,0,0,0,.63,1.009.448.448,0,0,1-.056.7q-.942.91-1.854,1.849c-.246.253-.451.3-.734.056a6.663,6.663,0,0,0-.771-.525,2.673,2.673,0,0,0-3.938,2.112,2.835,2.835,0,0,0-.015.411c.014.263-.1.4-.366.406-.846.006-1.692.006-2.538.019-.342,0-.441-.149-.44-.482a2.782,2.782,0,0,0-2.325-2.8,2.032,2.032,0,0,0-1.443.244,12.126,12.126,0,0,0-1.081.731.371.371,0,0,1-.558-.015q-1.048-1.041-2.1-2.074a.368.368,0,0,1-.038-.558c.209-.278.407-.567.59-.862a2.678,2.678,0,0,0-2.2-3.938,1.341,1.341,0,0,1-.408-.017C.724,13.8.523,13.672.52,13.568.494,12.574.5,11.579.506,10.585c0-.288.215-.3.451-.3A2.754,2.754,0,0,0,3.79,7.833a2.751,2.751,0,0,0-.2-1.227,4.537,4.537,0,0,0-.619-1.017c-.288-.406-.3-.44.042-.779C3.644,4.186,4.282,3.572,4.9,2.939a.469.469,0,0,1,.76-.025,3.218,3.218,0,0,0,1.909.942,2.781,2.781,0,0,0,2.862-2.74c.007-.571.013-.6.573-.613.771-.014,1.543.021,2.314.026.354,0,.458.159.455.513A2.763,2.763,0,0,0,16.587,3.86,3.221,3.221,0,0,0,18.4,3.047c.5-.371.5-.375.946.073.583.581,1.168,1.159,1.747,1.743A2.746,2.746,0,0,1,21.336,5.194ZM12.009,15.923a3.857,3.857,0,1,0-3.835-3.871A3.859,3.859,0,0,0,12.009,15.923Z" transform="translate(-0.003 -0.003)" fill="none" stroke="#000" stroke-linecap="round" stroke-linejoin="round" stroke-width="1"/>
    </g>
  </g>
</svg>
