<svg xmlns="http://www.w3.org/2000/svg" xmlns:xlink="http://www.w3.org/1999/xlink" width="26.101" height="26.101" viewBox="0 0 26.101 26.101">
  <defs>
    <clipPath id="clip-path">
      <rect id="Rectangle_105" data-name="Rectangle 105" width="26.101" height="26.101" transform="translate(0 0)" fill="none" stroke="#000" stroke-width="1"/>
    </clipPath>
  </defs>
  <g id="Group_229" data-name="Group 229" transform="translate(0 0)">
    <g id="Group_228" data-name="Group 228" clip-path="url(#clip-path)">
      <circle id="Ellipse_5" data-name="Ellipse 5" cx="1.059" cy="1.059" r="1.059" transform="translate(12.308 10.059)" fill="none" stroke="#000" stroke-linecap="round" stroke-linejoin="round" stroke-width="0.8"/>
      <path id="Path_302" data-name="Path 302" d="M9.776,9.526A1.973,1.973,0,0,1,11,11.352v1.864A1.972,1.972,0,0,1,9.03,15.188H8.481a1.972,1.972,0,0,1-1.973-1.972V11.352a1.972,1.972,0,0,1,1.2-1.817" fill="none" stroke="#000" stroke-linecap="round" stroke-linejoin="round" stroke-width="0.8"/>
      <path id="Path_303" data-name="Path 303" d="M8.756,15.188v2.071a2.306,2.306,0,0,0,4.612,0V12.177" fill="none" stroke="#000" stroke-linecap="round" stroke-linejoin="round" stroke-width="0.8"/>
      <path id="Path_304" data-name="Path 304" d="M21.934,11.3A1.892,1.892,0,0,0,20.042,9.4a1.839,1.839,0,0,0-.992.322,1.839,1.839,0,0,0-.993-.322A1.891,1.891,0,0,0,16.166,11.3a1.867,1.867,0,0,0,.633,1.391l2.251,1.736,2.1-1.635A1.857,1.857,0,0,0,21.934,11.3Z" fill="none" stroke="#000" stroke-linecap="round" stroke-linejoin="round" stroke-width="0.8"/>
      <path id="Path_305" data-name="Path 305" d="M25.6,13.051A12.55,12.55,0,1,1,13.051.5,12.55,12.55,0,0,1,25.6,13.051Z" fill="none" stroke="#000" stroke-miterlimit="10" stroke-width="1"/>
    </g>
  </g>
</svg>
