<svg xmlns="http://www.w3.org/2000/svg" xmlns:xlink="http://www.w3.org/1999/xlink" width="19.04" height="21.11" viewBox="0 0 19.04 21.11">
  <defs>
    <clipPath id="clip-path">
      <rect id="Rectangle_2908" data-name="Rectangle 2908" width="19.04" height="21.11" transform="translate(0 0)" fill="none"/>
    </clipPath>
  </defs>
  <g id="Group_5670" data-name="Group 5670" transform="translate(0 0)" clip-path="url(#clip-path)">
    <path id="Path_3921" data-name="Path 3921" d="M19.859,4.88a1.043,1.043,0,0,1,.2-.277c.077-.073.177-.161.3-.262a2.415,2.415,0,0,0,.347-.319.562.562,0,0,0,.124-.336.526.526,0,0,0-.188-.449.933.933,0,0,0-.575-.2,1.192,1.192,0,0,0-1.021.386l-.391-.312a1.538,1.538,0,0,1,.623-.429,2.077,2.077,0,0,1,.852-.116,1.588,1.588,0,0,1,.949.317.858.858,0,0,1,.316.746,1.04,1.04,0,0,1-.1.4,1.067,1.067,0,0,1-.2.282q-.112.111-.3.262a2.225,2.225,0,0,0-.356.344.654.654,0,0,0-.129.378l-.557-.031a.959.959,0,0,1,.1-.389m-.135,1.551a.35.35,0,0,1-.089-.259.346.346,0,0,1,.117-.248.352.352,0,0,1,.264-.089.344.344,0,0,1,.25.117.352.352,0,0,1,.087.259.351.351,0,0,1-.377.336.353.353,0,0,1-.253-.117" transform="translate(-4.626 -0.636)"/>
    <path id="Path_3922" data-name="Path 3922" d="M19.192,7.381a3.691,3.691,0,1,1,3.691-3.69,3.694,3.694,0,0,1-3.691,3.69m0-6.629a2.939,2.939,0,1,0,2.939,2.939A2.942,2.942,0,0,0,19.192.752" transform="translate(-3.844 0)"/>
    <path id="Path_3923" data-name="Path 3923" d="M7.181,22.126a.376.376,0,0,1-.375-.351.729.729,0,0,0-.73-.754H3.83A1.8,1.8,0,0,1,2,19.412c-.053-.387-.114-.765-.176-1.142s-.121-.749-.174-1.131A1.047,1.047,0,0,0,1.482,17a1.368,1.368,0,0,0-.422-.152L.874,16.8a1.233,1.233,0,0,1-.759-.623,1.3,1.3,0,0,1-.027-1.005c.038-.095.062-.168.086-.241s.059-.174.1-.271a9.878,9.878,0,0,0,.936-3.837A7.457,7.457,0,0,1,7.3,4.193a7.815,7.815,0,0,1,3.167.147.376.376,0,0,1-.187.729,7.049,7.049,0,0,0-2.859-.133,6.68,6.68,0,0,0-5.46,5.926,10.563,10.563,0,0,1-1,4.1c-.024.061-.049.135-.074.208s-.058.174-.1.269a.551.551,0,0,0,0,.411.485.485,0,0,0,.3.234l.148.038a2.029,2.029,0,0,1,.654.256c.183.122.489.37.489.669.05.341.112.723.174,1.1s.125.769.178,1.162a1.034,1.034,0,0,0,1.09.959H6.076A1.467,1.467,0,0,1,7.5,21.361l6.262-.251a10.212,10.212,0,0,1-.287-3.662,3.8,3.8,0,0,1,.675-2.261,6.531,6.531,0,0,0,.972-4.955c-.01-.047-.024-.1-.038-.15l-.032-.12a.376.376,0,1,1,.73-.18l.027.1c.018.067.036.134.05.2A7.363,7.363,0,0,1,14.77,15.61a3.068,3.068,0,0,0-.544,1.861,8.871,8.871,0,0,0,.4,3.862.375.375,0,0,1-.337.508l-7.1.285ZM1.639,17.094a.066.066,0,0,0,0,.023l0-.023" transform="translate(0 -1.016)"/>
  </g>
</svg>
