<svg xmlns="http://www.w3.org/2000/svg" xmlns:xlink="http://www.w3.org/1999/xlink" width="40" height="40" viewBox="0 0 40 40">
  <defs>
    <clipPath id="clip-path">
      <rect id="Rectangle_2852" data-name="Rectangle 2852" width="13.334" height="16.195" fill="#2b2e81"/>
    </clipPath>
  </defs>
  <g id="Group_5967" data-name="Group 5967" transform="translate(-677 -377)">
    <circle id="Ellipse_85" data-name="Ellipse 85" cx="20" cy="20" r="20" transform="translate(677 377)" fill="#f0f0ff"/>
    <g id="Group_5571" data-name="Group 5571" transform="translate(690.332 388.902)">
      <g id="Group_5570" data-name="Group 5570" transform="translate(0 0)" clip-path="url(#clip-path)">
        <path id="Path_3901" data-name="Path 3901" d="M6.406,7.716A3.858,3.858,0,1,0,2.548,3.857,3.862,3.862,0,0,0,6.406,7.716m0-6.527A2.669,2.669,0,1,1,3.738,3.857,2.671,2.671,0,0,1,6.406,1.189" transform="translate(0.262 0)" fill="#2b2e81"/>
        <path id="Path_3902" data-name="Path 3902" d="M6.668,7.987C2.913,7.987,0,10.45,0,12.57c0,2.472,3.371,2.806,6.668,2.806s6.667-.334,6.667-2.806c0-2.119-2.912-4.583-6.667-4.583m0,6.2c-3.686,0-5.478-.528-5.478-1.617,0-1.367,2.3-3.394,5.478-3.394s5.477,2.027,5.477,3.394c0,1.088-1.792,1.617-5.477,1.617" transform="translate(0 0.82)" fill="#2b2e81"/>
      </g>
    </g>
  </g>
</svg>
