<?xml version="1.0" encoding="UTF-8"?><svg id="a" xmlns="http://www.w3.org/2000/svg" viewBox="0 0 100 100"><defs><style>.b{fill:#fff;}</style></defs><path class="b" d="M55.14,45.25h1.76c.17,0,.31-.14,.31-.31-.02-.66-.57-1.18-1.23-1.16-.63,.02-1.14,.53-1.16,1.16,0,.17,.14,.31,.31,.31Z"/><path class="b" d="M59.82,48.49c-.11-.27-.37-.44-.65-.44h-1.44c-.39,0-.71,.32-.71,.71v1.84c0,.39,.32,.71,.71,.71h2.2c.19,0,.37-.08,.5-.21,.13-.14,.21-.31,.2-.5,0-.07-.03-.21-.05-.27l-.77-1.84Zm-1.79,1.82v-1.26h.95l.52,1.26h-1.47Z"/><path class="b" d="M64.84,55.04v-.03l-.42-2.94c-.1-.7-.57-1.31-1.23-1.57l-.21-.09c-.06-.02-.11-.07-.13-.13l-1.79-3.55c-.31-.62-.93-1-1.62-1h-14.52c-1.01,0-1.83,.82-1.83,1.83v7.97c0,1.03,.84,1.86,1.88,1.86h1.26c.28,1.06,1.25,1.86,2.41,1.86s2.22-.86,2.45-2h6.1c.24,1.14,1.24,2,2.45,2s2.22-.87,2.45-2.01l.87-.02h0c1.04,0,1.9-.85,1.9-1.89,0-.09,0-.19-.02-.28Zm-16.21,3.21c-.83,0-1.5-.67-1.5-1.5s.67-1.5,1.5-1.5,1.5,.67,1.5,1.5-.67,1.5-1.5,1.5Zm11,0c-.83,0-1.5-.67-1.5-1.5s.67-1.5,1.5-1.5,1.5,.67,1.5,1.5-.67,1.5-1.5,1.5Zm3.31-2.03h0l-.86,.02c-.24-1.13-1.24-1.99-2.45-1.99s-2.22,.87-2.45,2.01h-6.1c-.23-1.15-1.24-2.01-2.45-2.01s-2.29,.93-2.46,2.14h-1.23c-.48,0-.86-.38-.86-.86v-7.96c0-.46,.37-.83,.83-.83h14.52c.31,0,.59,.17,.73,.45l1.79,3.55c.14,.27,.37,.49,.65,.6l.22,.09c.33,.13,.56,.44,.61,.79l.42,2.97v.03s.01,.07,0,.11c0,.5-.41,.9-.92,.9Z"/><path class="b" d="M51.89,49.52h-.78c-.13,0-.24-.11-.24-.24v-.78c0-.13-.11-.24-.24-.24h-.97c-.13,0-.24,.11-.24,.24v.78c0,.13-.11,.24-.24,.24h-.78c-.13,0-.24,.11-.24,.24v.97c0,.13,.11,.24,.24,.24h.78c.13,0,.24,.11,.24,.24v.78c0,.13,.11,.24,.24,.24h.97c.13,0,.24-.11,.24-.24v-.78c0-.13,.11-.24,.24-.24h.78c.13,0,.24-.11,.24-.24v-.97c0-.13-.11-.24-.24-.24Z"/><path class="b" d="M41.64,51.25h-3c-.28,0-.5,.22-.5,.5s.22,.5,.5,.5h3c.28,0,.5-.22,.5-.5s-.22-.5-.5-.5Z"/><path class="b" d="M41.64,53.25h-6c-.28,0-.5,.22-.5,.5s.22,.5,.5,.5h6c.28,0,.5-.22,.5-.5s-.22-.5-.5-.5Z"/><path class="b" d="M41.64,55.25h-2c-.28,0-.5,.22-.5,.5s.22,.5,.5,.5h2c.28,0,.5-.22,.5-.5s-.22-.5-.5-.5Z"/><path class="b" d="M56.14,43.25c.28,0,.5-.22,.5-.5v-1.5c0-.28-.22-.5-.5-.5s-.5,.22-.5,.5v1.5c0,.28,.22,.5,.5,.5Z"/><path class="b" d="M53.78,43.6c.1,.1,.23,.15,.35,.15s.26-.05,.35-.15c.2-.2,.2-.51,0-.71l-1-1c-.2-.2-.51-.2-.71,0s-.2,.51,0,.71l1,1Z"/><path class="b" d="M58.14,43.75c.13,0,.26-.05,.35-.15l1-1c.2-.2,.2-.51,0-.71s-.51-.2-.71,0l-1,1c-.2,.2-.2,.51,0,.71,.1,.1,.23,.15,.35,.15Z"/></svg>