<?xml version="1.0" encoding="UTF-8"?><svg id="a" xmlns="http://www.w3.org/2000/svg" viewBox="0 0 100 100"><defs><style>.b{fill:#fff;}</style></defs><path class="b" d="M50.32,47.52c-.86,0-1.56,.7-1.56,1.55,0,.68,.44,1.26,1.06,1.47v4.65c0,.99-.81,1.8-1.8,1.8s-1.8-.81-1.8-1.8v-1.59c1.25-.12,2.23-1.16,2.23-2.44v-1.86c0-1-.6-1.9-1.53-2.28-.25-.1-.55,.02-.65,.27-.1,.26,.02,.55,.27,.65,.55,.23,.91,.76,.91,1.36v1.86c0,.81-.66,1.46-1.46,1.46h-.55c-.39,0-.76-.15-1.04-.43-.28-.28-.43-.64-.43-1.04v-1.86c0-.59,.35-1.12,.89-1.35,.25-.11,.37-.4,.26-.66-.11-.25-.4-.37-.66-.26-.91,.39-1.5,1.28-1.5,2.27v1.86c0,1.28,.99,2.32,2.24,2.44v1.59c0,1.54,1.25,2.8,2.8,2.8s2.8-1.25,2.8-2.8v-4.65c.61-.21,1.05-.78,1.05-1.46,0-.86-.7-1.55-1.55-1.55Zm0,2.11c-.31,0-.56-.25-.56-.55s.25-.55,.56-.55,.55,.25,.55,.55-.25,.55-.55,.55Z"/><path class="b" d="M55.98,47.11c-.3-.15-.64-.23-.99-.24-1.31,0-2.38,1.07-2.38,2.4,0,.67,.3,1.31,.83,1.78l2.24,1.73c.09,.07,.2,.1,.31,.1s.22-.04,.31-.11l2.07-1.61c.61-.43,.98-1.14,.99-1.89h0c0-1.32-1.06-2.39-2.4-2.4-.34,0-.67,.09-.97,.24Zm2.37,2.15c0,.43-.22,.83-.59,1.1l-1.79,1.39-1.91-1.47c-.29-.26-.46-.63-.46-1.02,0-.76,.62-1.38,1.37-1.38,.26,0,.51,.09,.72,.23,.17,.12,.39,.12,.57,0,.21-.15,.46-.23,.71-.23,.76,0,1.38,.63,1.38,1.39Z"/><path class="b" d="M59.19,41.81c-2.46-2.46-5.72-3.81-9.19-3.81h0c-3.47,0-6.74,1.35-9.19,3.81-2.46,2.46-3.81,5.72-3.81,9.19,0,3.47,1.35,6.74,3.81,9.19,2.46,2.46,5.72,3.81,9.19,3.81h0c7.17,0,13-5.83,13-13,0-3.47-1.35-6.74-3.81-9.19Zm-9.19,21.19c-3.21,0-6.22-1.25-8.48-3.52-2.27-2.27-3.51-5.28-3.51-8.49s1.25-6.22,3.52-8.48c2.27-2.27,5.28-3.51,8.48-3.51h0c3.21,0,6.22,1.25,8.49,3.52,2.27,2.27,3.51,5.28,3.51,8.49,0,6.62-5.38,12-12,12Z"/></svg>