<?xml version="1.0" encoding="UTF-8"?><svg id="a" xmlns="http://www.w3.org/2000/svg" viewBox="0 0 100 100"><defs><style>.b{fill:#fff;}</style></defs><path class="b" d="M47.51,46.95c-.2-.2-.51-.2-.71,0s-.2,.51,0,.71l2.75,2.75c.1,.1,.23,.15,.35,.15s.26-.05,.35-.15l2.75-2.75c.2-.2,.2-.51,0-.71s-.51-.2-.71,0l-1.89,1.89v-7.52c0-.28-.22-.5-.5-.5s-.5,.22-.5,.5v7.52l-1.89-1.89Z"/><path class="b" d="M60.43,51.67l-2.3-8.61c-.06-.22-.26-.37-.48-.37h-5.69c-.28,0-.5,.22-.5,.5s.22,.5,.5,.5h5.31l2.06,7.74-5.93,.11c-.19,0-.36,.11-.44,.28l-.82,1.66h-4.11l-1.03-1.81c-.09-.16-.25-.25-.43-.25h-5.89l2.06-7.73h5.08c.28,0,.5-.22,.5-.5s-.22-.5-.5-.5h-5.46c-.23,0-.42,.15-.48,.37l-2.3,8.61c-.04,.07-.07,.15-.07,.25v6.76c0,.28,.22,.5,.5,.5h20c.28,0,.5-.22,.5-.5v-6.76c0-.09-.03-.17-.07-.24Zm-.93,6.51h-19v-5.76h5.78l1.03,1.81c.09,.16,.25,.25,.43,.25h4.71c.19,0,.36-.11,.45-.28l.82-1.66,5.78-.11v5.75Z"/></svg>