<?xml version="1.0" encoding="UTF-8"?><svg id="a" xmlns="http://www.w3.org/2000/svg" viewBox="0 0 100 100"><defs><style>.b{fill:#fff;}</style></defs><path class="b" d="M55.9,54.01c-2.54,0-4.6,2.07-4.6,4.6s2.07,4.6,4.6,4.6,4.6-2.07,4.6-4.6-2.07-4.6-4.6-4.6Zm0,8.21c-1.99,0-3.6-1.62-3.6-3.6s1.62-3.6,3.6-3.6,3.6,1.62,3.6,3.6-1.62,3.6-3.6,3.6Z"/><path class="b" d="M50.04,60.48l-7.47,.09c-.54,0-1.07-.2-1.46-.59-.39-.39-.61-.9-.61-1.46v-14.68c.56,.49,1.32,.8,2.15,.8h13.19c.15,.02,1.48,.13,1.48,1.87v6.28c0,.28,.22,.5,.5,.5s.5-.22,.5-.5v-11.07c0-1.61-1.41-2.93-3.15-2.93h-12.53c-1.74,0-3.15,1.31-3.15,2.93v16.81c0,.82,.32,1.59,.9,2.17,.58,.57,1.33,.88,2.14,.88h.04l7.47-.09c.28,0,.5-.23,.49-.51,0-.28-.25-.5-.51-.49Zm-7.39-20.7h12.53c1.18,0,2.15,.86,2.15,1.93v2.48c-.49-.38-1.05-.53-1.46-.54h-13.21c-1.18-.01-2.15-.88-2.15-1.94s.96-1.93,2.15-1.93Z"/><path class="b" d="M55.79,56.24c-.41,0-.75,.33-.75,.75s.33,.75,.75,.75,.75-.33,.75-.75-.33-.75-.75-.75Z"/><path class="b" d="M55.79,58.23c-.28,0-.5,.22-.5,.5v1.54c0,.28,.22,.5,.5,.5s.5-.22,.5-.5v-1.54c0-.28-.22-.5-.5-.5Z"/></svg>