<?xml version="1.0" encoding="UTF-8"?><svg id="a" xmlns="http://www.w3.org/2000/svg" viewBox="0 0 100 100"><defs><style>.b{fill:#fff;}</style></defs><path class="b" d="M50,47.96c-1.79,0-3.25,1.46-3.25,3.25s1.46,3.25,3.25,3.25,3.25-1.46,3.25-3.25-1.46-3.25-3.25-3.25Zm0,5.5c-1.24,0-2.25-1.01-2.25-2.25s1.01-2.25,2.25-2.25,2.25,1.01,2.25,2.25-1.01,2.25-2.25,2.25Z"/><path class="b" d="M59.3,48.55l-1.34-.35c-.18-.05-.33-.18-.4-.35s-.06-.37,.04-.53l.7-1.19c.37-.63,.27-1.43-.25-1.94l-1.26-1.26c-.51-.51-1.31-.62-1.94-.25l-1.2,.7c-.16,.1-.35,.11-.53,.04s-.3-.22-.35-.4l-.35-1.33c-.18-.7-.82-1.2-1.55-1.2h-1.78c-.73,0-1.36,.49-1.55,1.2l-.35,1.34c-.05,.18-.17,.33-.35,.4-.17,.07-.37,.06-.53-.04l-1.18-.7c-.63-.37-1.43-.27-1.94,.25l-1.26,1.26c-.51,.52-.62,1.31-.25,1.94l.7,1.19c.1,.16,.11,.36,.04,.53s-.22,.3-.4,.35l-1.33,.35c-.71,.18-1.2,.82-1.2,1.55v1.78c0,.73,.49,1.36,1.2,1.55l1.34,.35c.18,.05,.33,.18,.4,.35s.06,.37-.04,.53l-.7,1.19c-.37,.63-.27,1.43,.25,1.94l1.26,1.26c.51,.52,1.31,.62,1.94,.25l1.2-.7c.16-.09,.36-.11,.53-.04,.18,.07,.3,.22,.35,.4l.35,1.33c.18,.7,.82,1.2,1.55,1.2h1.78c.73,0,1.36-.49,1.55-1.2l.35-1.34c.05-.18,.17-.33,.35-.4,.18-.07,.37-.06,.53,.04l1.19,.7c.63,.37,1.43,.27,1.94-.25l1.26-1.26c.51-.52,.62-1.31,.25-1.94l-.7-1.19c-.1-.16-.11-.36-.04-.53s.22-.3,.4-.35l1.33-.35c.7-.18,1.2-.82,1.2-1.55v-1.78c0-.73-.49-1.36-1.2-1.55Zm.2,3.33c0,.27-.18,.51-.45,.58l-1.33,.35c-.49,.13-.88,.47-1.07,.94-.19,.47-.16,.99,.1,1.42l.7,1.19c.14,.23,.1,.53-.09,.73l-1.26,1.26c-.19,.19-.49,.23-.73,.09l-1.19-.7c-.43-.26-.95-.29-1.42-.1-.47,.19-.81,.59-.94,1.07l-.35,1.34c-.07,.26-.31,.45-.58,.45h-1.78c-.27,0-.51-.18-.58-.45l-.35-1.33c-.13-.49-.47-.88-.94-1.08-.2-.08-.41-.12-.61-.12-.28,0-.56,.07-.81,.22l-1.19,.7c-.23,.14-.53,.1-.73-.09l-1.26-1.26c-.19-.19-.23-.49-.09-.73l.7-1.19c.26-.44,.29-.95,.1-1.42s-.58-.81-1.07-.94l-1.34-.35c-.26-.07-.45-.31-.45-.58v-1.78c0-.27,.18-.51,.45-.58l1.33-.35c.49-.13,.88-.47,1.07-.94,.19-.47,.16-.99-.1-1.42l-.7-1.19c-.14-.23-.1-.53,.09-.73l1.26-1.26c.19-.19,.49-.23,.73-.09l1.19,.7c.43,.26,.95,.29,1.42,.1,.47-.19,.81-.59,.94-1.07l.35-1.34c.07-.26,.31-.45,.58-.45h1.78c.27,0,.51,.18,.58,.45l.35,1.33c.13,.49,.47,.88,.94,1.08,.47,.19,.98,.16,1.42-.1l1.19-.7c.24-.14,.53-.1,.73,.09l1.26,1.26c.19,.19,.23,.49,.09,.73l-.7,1.19c-.26,.44-.29,.95-.1,1.42s.58,.81,1.07,.94l1.34,.35h0c.26,.07,.45,.31,.45,.58v1.78Z"/></svg>