<?xml version="1.0" encoding="UTF-8"?><svg id="a" xmlns="http://www.w3.org/2000/svg" viewBox="0 0 100 100"><defs><style>.b{fill:#fff;}</style></defs><path class="b" d="M60.5,51.65c0-1.15-.99-2.33-2.49-3.05,.34-.53,.54-1.15,.54-1.83,0-1.89-1.54-3.43-3.43-3.43-.9,0-1.74,.37-2.38,.98-.73-.59-1.65-.96-2.66-.96s-2,.4-2.75,1.03c-.64-.66-1.51-1.05-2.45-1.05-1.89,0-3.43,1.54-3.43,3.43,0,.67,.2,1.3,.54,1.83-1.5,.72-2.49,1.9-2.49,3.05,0,1.88,2.52,2.16,3.82,2.24,.02,2.43,3.42,2.76,6.76,2.76s6.75-.33,6.76-2.77c1.34-.09,3.66-.42,3.66-2.23Zm-2.95-4.88c0,1.34-1.09,2.43-2.43,2.43-.36,0-.7-.1-1.02-.25,.14-.42,.23-.86,.23-1.33,0-.98-.34-1.87-.9-2.58,.45-.44,1.04-.69,1.68-.69,1.34,0,2.43,1.09,2.43,2.43Zm-7.47-2.41c1.79,0,3.26,1.46,3.26,3.26s-1.46,3.26-3.26,3.26-3.26-1.46-3.26-3.26,1.46-3.26,3.26-3.26Zm-5.19-.02c.68,0,1.3,.29,1.76,.78-.52,.7-.83,1.56-.83,2.5,0,.45,.09,.87,.22,1.27-.35,.19-.74,.31-1.15,.31-1.34,0-2.43-1.09-2.43-2.43s1.09-2.43,2.43-2.43Zm-4.39,7.31c0-.69,.75-1.67,2.18-2.27,.6,.51,1.36,.82,2.2,.82,.55,0,1.08-.14,1.56-.38,.04,.07,.07,.14,.12,.2-1.5,.69-2.62,1.75-3.05,2.87-3.01-.17-3.02-.98-3.02-1.24Zm9.58,4c-3.93,0-5.76-.57-5.76-1.78,0-1.09,1.26-2.38,2.96-3.07,.75,.66,1.72,1.07,2.8,1.07s2.05-.41,2.8-1.08c1.72,.7,2.96,1.98,2.96,3.07,0,1.21-1.83,1.78-5.76,1.78Zm6.55-2.76c-.43-1.11-1.55-2.18-3.04-2.86,.03-.04,.05-.09,.08-.14,.45,.21,.94,.32,1.45,.32,.84,0,1.6-.32,2.2-.82,1.43,.6,2.18,1.58,2.18,2.27,0,.26,0,1.05-2.87,1.24Z"/></svg>