<?xml version="1.0" encoding="UTF-8"?><svg id="a" xmlns="http://www.w3.org/2000/svg" viewBox="0 0 100 100"><defs><style>.b{fill:#1a1617;}</style></defs><path class="b" d="M51.99,58.75h-3.99c-.83,0-1.51-.68-1.51-1.51v-3.24c0-.28-.23-.51-.51-.51h-3.24c-.83,0-1.51-.68-1.51-1.51v-3.99c0-.83,.68-1.51,1.51-1.51h3.24c.28,0,.51-.23,.51-.51v-3.24c0-.83,.68-1.51,1.51-1.51h3.99c.83,0,1.51,.68,1.51,1.51v3.24c0,.28,.23,.51,.51,.51h3.24c.83,0,1.51,.68,1.51,1.51v3.99c0,.83-.68,1.51-1.51,1.51h-3.24c-.28,0-.51,.23-.51,.51v3.24c0,.83-.68,1.51-1.51,1.51Zm-9.24-11.25c-.28,0-.51,.23-.51,.51v3.99c0,.28,.23,.51,.51,.51h3.24c.83,0,1.51,.68,1.51,1.51v3.24c0,.28,.23,.51,.51,.51h3.99c.28,0,.51-.23,.51-.51v-3.24c0-.83,.68-1.51,1.51-1.51h3.24c.28,0,.51-.23,.51-.51v-3.99c0-.28-.23-.51-.51-.51h-3.24c-.83,0-1.51-.68-1.51-1.51v-3.24c0-.28-.23-.51-.51-.51h-3.99c-.28,0-.51,.23-.51,.51v3.24c0,.83-.68,1.51-1.51,1.51h-3.24Z"/></svg>