<?xml version="1.0" encoding="UTF-8"?><svg id="a" xmlns="http://www.w3.org/2000/svg" viewBox="0 0 100 100"><defs><style>.b{fill:#1a1617;}</style></defs><path class="b" d="M45.89,39.5h-2.98c-1.88,0-3.41,1.63-3.41,3.63v2.34c0,2,1.53,3.63,3.41,3.63h2.98c1.88,0,3.41-1.63,3.41-3.63v-2.34c0-2-1.53-3.63-3.41-3.63Zm2.41,5.97c0,1.45-1.08,2.63-2.41,2.63h-2.98c-1.33,0-2.41-1.18-2.41-2.63v-2.34c0-1.45,1.08-2.63,2.41-2.63h2.98c1.33,0,2.41,1.18,2.41,2.63v2.34Z"/><path class="b" d="M57.09,39.5h-2.98c-1.88,0-3.41,1.63-3.41,3.63v2.34c0,2,1.53,3.63,3.41,3.63h2.98c1.88,0,3.41-1.63,3.41-3.63v-2.34c0-2-1.53-3.63-3.41-3.63Zm2.41,5.97c0,1.45-1.08,2.63-2.41,2.63h-2.98c-1.33,0-2.41-1.18-2.41-2.63v-2.34c0-1.45,1.08-2.63,2.41-2.63h2.98c1.33,0,2.41,1.18,2.41,2.63v2.34Z"/><path class="b" d="M45.89,50.9h-2.98c-1.88,0-3.41,1.63-3.41,3.63v2.34c0,2,1.53,3.63,3.41,3.63h2.98c1.88,0,3.41-1.63,3.41-3.63v-2.34c0-2-1.53-3.63-3.41-3.63Zm2.41,5.97c0,1.45-1.08,2.63-2.41,2.63h-2.98c-1.33,0-2.41-1.18-2.41-2.63v-2.34c0-1.45,1.08-2.63,2.41-2.63h2.98c1.33,0,2.41,1.18,2.41,2.63v2.34Z"/><path class="b" d="M57.09,50.9h-2.98c-1.88,0-3.41,1.63-3.41,3.63v2.34c0,2,1.53,3.63,3.41,3.63h2.98c1.88,0,3.41-1.63,3.41-3.63v-2.34c0-2-1.53-3.63-3.41-3.63Zm2.41,5.97c0,1.45-1.08,2.63-2.41,2.63h-2.98c-1.33,0-2.41-1.18-2.41-2.63v-2.34c0-1.45,1.08-2.63,2.41-2.63h2.98c1.33,0,2.41,1.18,2.41,2.63v2.34Z"/></svg>