<?xml version="1.0" encoding="UTF-8"?><svg id="a" xmlns="http://www.w3.org/2000/svg" viewBox="0 0 100 100"><defs><style>.b{fill:#1a1617;}</style></defs><path class="b" d="M39.76,45.29l9.59,5.11c.07,.04,.15,.06,.24,.06s.16-.02,.23-.06l10.17-5.25c.17-.09,.27-.26,.27-.45s-.11-.36-.29-.44l-9.88-4.71c-.14-.07-.3-.06-.44,0l-9.88,4.85c-.17,.08-.28,.25-.28,.44,0,.19,.1,.36,.26,.45Zm10.12-4.74l8.75,4.17-9.05,4.67-8.49-4.52,8.79-4.32Z"/><path class="b" d="M59.77,49.1l-10.2,5.36-9.33-5.15c-.24-.13-.55-.05-.68,.2-.13,.24-.05,.55,.2,.68l9.56,5.28c.08,.04,.16,.06,.24,.06s.16-.02,.23-.06l10.44-5.49c.25-.13,.34-.43,.21-.68-.13-.25-.43-.34-.67-.21Z"/><path class="b" d="M59.77,54.07l-10.2,5.36-9.33-5.15c-.24-.13-.55-.05-.68,.2-.13,.24-.05,.55,.2,.68l9.56,5.28c.07,.04,.16,.06,.24,.06s.16-.02,.23-.06l10.44-5.49c.25-.13,.34-.43,.21-.67-.13-.25-.43-.34-.67-.21Z"/></svg>