<?xml version="1.0" encoding="UTF-8"?><svg id="a" xmlns="http://www.w3.org/2000/svg" viewBox="0 0 100 100"><defs><style>.b{fill:#1a1617;}</style></defs><path class="b" d="M60.35,49.62l-4.01-4.01c-.2-.2-.51-.2-.71,0s-.2,.51,0,.71l3.16,3.16-9.4,.02c-.28,0-.5,.23-.5,.5,0,.28,.22,.5,.5,.5h0l9.39-.02-3.16,3.16c-.2,.2-.2,.51,0,.71,.1,.1,.23,.15,.35,.15s.26-.05,.35-.15l4.01-4.01c.2-.2,.2-.51,0-.71Z"/><path class="b" d="M54.09,55.76c-.28,0-.5,.22-.5,.5,0,1.93-1.6,3.49-3.57,3.49h-5.95c-1.97,0-3.57-1.57-3.57-3.49v-12.52c0-1.93,1.6-3.49,3.57-3.49h5.95c1.97,0,3.57,1.57,3.57,3.49,0,.28,.22,.5,.5,.5s.5-.22,.5-.5c0-2.48-2.05-4.49-4.57-4.49h-5.95c-2.52,0-4.57,2.02-4.57,4.49v12.52c0,2.48,2.05,4.49,4.57,4.49h5.95c2.52,0,4.57-2.02,4.57-4.49,0-.28-.22-.5-.5-.5Z"/></svg>