<?xml version="1.0" encoding="UTF-8"?><svg id="a" xmlns="http://www.w3.org/2000/svg" viewBox="0 0 100 100"><defs><style>.b{fill:#1a1617;}</style></defs><path class="b" d="M54.83,49.7c-.12-.05-.24-.04-.35,0,.88-1.03,1.41-2.36,1.41-3.82,0-3.25-2.64-5.89-5.89-5.89s-5.89,2.64-5.89,5.89c0,1.42,.5,2.72,1.34,3.73-.03,0-.06,0-.09,.01-3.45,1.29-5.86,3.85-5.86,6.24,0,3.65,5.31,4.14,10.5,4.14s10.5-.49,10.5-4.14c0-2.33-2.33-4.86-5.67-6.17Zm-4.83-8.71c2.7,0,4.89,2.19,4.89,4.89s-2.19,4.89-4.89,4.89-4.89-2.19-4.89-4.89,2.19-4.89,4.89-4.89Zm0,18.02c-6.57,0-9.5-.97-9.5-3.14,0-1.94,2.19-4.17,5.21-5.3,.16-.06,.27-.2,.3-.36,1.05,.97,2.45,1.57,3.99,1.57,1.63,0,3.1-.66,4.17-1.74-.07,.24,.05,.5,.29,.59,2.92,1.14,5.04,3.34,5.04,5.24,0,2.17-2.93,3.14-9.5,3.14Z"/></svg>