<?xml version="1.0" encoding="UTF-8"?><svg id="a" xmlns="http://www.w3.org/2000/svg" viewBox="0 0 100 100"><defs><style>.b{fill:#1a1617;}</style></defs><path class="b" d="M55.82,48.91l-.03-.13c-.07-.27-.34-.43-.61-.35-.27,.07-.43,.35-.35,.61l.07,.26c.35,1.69,0,3.48-.97,4.92-1.7,2.54-1.08,4.77-.66,6.14l-5.68,.23c-.31-.8-.98-1.77-1.88-1.77h-2.38c-.32-.02-.54-.15-.72-.65-.12-.49-.88-2.87-.91-2.97-.05-.15-.16-.26-.3-.32l-.87-.38c.54-1.12,.94-2.14,1.16-2.96,.14-.51,.13-.91,.12-1.27,0-.13,0-.25,0-.35,.29-2.94,2.52-5.37,5.42-5.89,.96-.15,1.92-.11,2.86,.13,.27,.07,.54-.09,.61-.36,.07-.27-.09-.54-.36-.61-1.07-.28-2.17-.32-3.27-.15-3.35,.61-5.92,3.39-6.25,6.81,0,.15,0,.3,0,.44,0,.32,.02,.62-.08,.98-.14,.53-.45,1.44-1.14,2.88-.11,.26-.11,.55,.03,.87,.13,.24,.36,.42,.59,.48l.63,.23c.25,.8,.73,2.34,.83,2.72,.11,.31,.45,1.26,1.64,1.36h2.42c.32,0,.86,.73,1.04,1.42,.06,.22,.26,.37,.48,.37h.02l6.7-.27c.15,0,.29-.08,.38-.2s.12-.28,.08-.42c-.04-.16-.1-.34-.16-.54-.39-1.27-.97-3.18,.5-5.39,1.11-1.66,1.52-3.73,1.11-5.68-.01-.06-.03-.12-.05-.19Z"/><path class="b" d="M55.88,40.63c-.89,0-1.61,.72-1.61,1.61,0,.28,.22,.5,.5,.5s.5-.22,.5-.5c0-.34,.27-.61,.61-.61s.61,.27,.61,.61-.27,.61-.61,.61c-.28,0-.5,.22-.5,.5v.72c0,.28,.22,.5,.5,.5s.5-.22,.5-.5v-.3c.64-.21,1.11-.82,1.11-1.53,0-.89-.72-1.61-1.61-1.61Z"/><path class="b" d="M55.88,44.89c-.29,0-.53,.24-.53,.53s.24,.53,.53,.53,.53-.24,.53-.53-.24-.53-.53-.53Z"/><path class="b" d="M55.88,38.4c-2.55,0-4.62,2.07-4.62,4.62s2.07,4.62,4.62,4.62,4.62-2.07,4.62-4.62-2.07-4.62-4.62-4.62Zm0,8.24c-2,0-3.62-1.62-3.62-3.62s1.62-3.62,3.62-3.62,3.62,1.62,3.62,3.62-1.62,3.62-3.62,3.62Z"/></svg>