<svg id="Group_5061" data-name="Group 5061" xmlns="http://www.w3.org/2000/svg" xmlns:xlink="http://www.w3.org/1999/xlink" width="26.834" height="30.245" viewBox="0 0 26.834 30.245">
  <defs>
    <clipPath id="clip-path">
      <rect id="Rectangle_2688" data-name="Rectangle 2688" width="26.834" height="30.245" fill="none"/>
    </clipPath>
  </defs>
  <g id="Group_5060" data-name="Group 5060" clip-path="url(#clip-path)">
    <path id="Path_3638" data-name="Path 3638" d="M13.417,0H24.553a1.16,1.16,0,0,1,1.233.911,26.158,26.158,0,0,1,.862,4.376,27.886,27.886,0,0,1,.046,6,25.857,25.857,0,0,1-1.645,6.854,22.591,22.591,0,0,1-4.063,6.737,20.8,20.8,0,0,1-5.956,4.73c-.364.192-.736.367-1.115.528a1.225,1.225,0,0,1-1.011-.006A18.673,18.673,0,0,1,9.57,28.237,21.292,21.292,0,0,1,6.139,25.2,22.041,22.041,0,0,1,2.9,20.574a25.038,25.038,0,0,1-2.4-6.88A27.242,27.242,0,0,1,.025,9.642,28.221,28.221,0,0,1,.251,4.753,26.842,26.842,0,0,1,1.019.995,1.2,1.2,0,0,1,2.333,0H13.417m.012.9H2.64a.738.738,0,0,0-.8.6A25.922,25.922,0,0,0,.99,5.943,26.555,26.555,0,0,0,.958,11.2,24.86,24.86,0,0,0,1.7,15.317a23.318,23.318,0,0,0,2.076,5.218A20.619,20.619,0,0,0,8.8,26.623a18.261,18.261,0,0,0,4.273,2.647.792.792,0,0,0,.658.011c.244-.107.488-.215.727-.334a19.116,19.116,0,0,0,4.353-3A20.785,20.785,0,0,0,23.348,20a23.742,23.742,0,0,0,1.9-5.083,25.213,25.213,0,0,0,.735-5.29A26.483,26.483,0,0,0,25.795,5.5a25.777,25.777,0,0,0-.8-4,.731.731,0,0,0-.8-.6H13.429" transform="translate(0 0)" fill="#fd8f05"/>
    <path id="Path_3639" data-name="Path 3639" d="M57.743,74.128a13.208,13.208,0,0,1-1.458-.741,19.487,19.487,0,0,1-7.626-8.2,22.8,22.8,0,0,1-1.974-5.659,24.941,24.941,0,0,1-.506-4.25,25.968,25.968,0,0,1,.091-3.262,24.642,24.642,0,0,1,.822-4.547.188.188,0,0,1,.222-.167q2.462.007,4.924,0,2.653,0,5.307-.009c.156,0,.2.035.2.2q-.007,13.214,0,26.428v.206M50.888,55.912c.079-.074.156-.15.237-.222a.206.206,0,0,1,.17-.069,1.21,1.21,0,0,0,1.091-.487.357.357,0,0,1,.28-.134,4.048,4.048,0,0,1,1.016.107,1.22,1.22,0,0,1,.921.691.652.652,0,0,1-.143.793,1.954,1.954,0,0,1-.521.371.191.191,0,0,0-.12.189c0,.231,0,.464-.027.694-.014.138.032.167.149.139a2.256,2.256,0,0,0,1.269-.735,1.79,1.79,0,0,0,.25-1.7,1.5,1.5,0,0,0-.9-1.079,4.386,4.386,0,0,0-1.88-.342,1.119,1.119,0,0,1-.293,0,1.367,1.367,0,0,0-1.457.645.494.494,0,0,0,.135.752c.019.012.033.031.025.048-.1.1-.248.049-.37.158.133.008.2.051.165.181m1.569,2.011c0-.159,0-.292,0-.425,0-.116-.037-.123-.134-.084a3.137,3.137,0,0,0-.879.548,1.71,1.71,0,0,0,.583,2.895c.444.13.888.257,1.338.36a.932.932,0,0,1,.48.227c.336.344.474.76-.053.986a.57.57,0,0,0-.363.627c0,.408-.01.412.365.232a2.075,2.075,0,0,0,.723-.437,1.614,1.614,0,0,0-.079-2.03,2.192,2.192,0,0,0-1.331-.612,1.807,1.807,0,0,1-.986-.381c-.471-.383-.486-.748-.036-1.153a.216.216,0,0,1,.04-.033.541.541,0,0,0,.332-.721m.2-.182h.027c0,.035,0,.069,0,.1.014.665.03,1.33.04,2,0,.115.029.165.154.169a2.594,2.594,0,0,1,.429.059c.117.024.161,0,.165-.131.016-.584.042-1.168.068-1.752q.061-1.369.128-2.738c0-.1-.023-.144-.124-.161-.258-.043-.518-.054-.777-.074-.115-.009-.148.035-.143.15q.025.572.032,1.144c.005.411,0,.822,0,1.233m-.386-5.486a.813.813,0,0,0,.141.566,1.015,1.015,0,0,1,.175.716c0,.081.007.162,0,.243s.032.11.114.107a5.079,5.079,0,0,1,.9.059c.092.013.129-.02.129-.11,0-.162,0-.324.008-.486a.669.669,0,0,1,.131-.413,1.179,1.179,0,0,0-.114-1.512.773.773,0,0,0-.7-.236,1,1,0,0,0-.794,1.065M52.762,63.5h.061c0,.307,0,.613,0,.919,0,.394.015.787.021,1.18,0,.114.013.2.17.187.118-.011.208.01.214-.17.046-1.283.108-2.566.16-3.849.014-.336.006-.337-.328-.422l-.084-.022c-.236-.054-.216-.076-.216.162q0,1.007,0,2.013m-.1-.039c0-.1,0-.155,0-.213s.026-.119-.02-.147-.106.03-.149.061a4.06,4.06,0,0,0-.936.947,2.285,2.285,0,0,0-.381.83c-.021.1-.062.221.053.283s.222-.019.3-.107a.8.8,0,0,0,.17-.339,1.355,1.355,0,0,1,.708-.879c.2-.105.329-.232.255-.437" transform="translate(-44.555 -45.648)" fill="#2b2e81"/>
    <path id="Path_3640" data-name="Path 3640" d="M397.476,58.178c-1.821,0-3.643,0-5.464,0-.164,0-.2-.047-.2-.2q.007-5.182,0-10.363c0-.252-.034-.228.236-.228q5.09,0,10.179,0c.147,0,.21.039.249.185a26.417,26.417,0,0,1,.908,7.75,24.4,24.4,0,0,1-.236,2.733c-.021.149-.11.12-.2.12h-5.481m-.415-3.576-.021-.041h-.434c-.411,0-.408,0-.531-.39a2.013,2.013,0,0,0-.167-.447c-.084.252-.168.468-.225.69-.032.125-.092.152-.207.148-.229-.007-.458,0-.729,0a3.176,3.176,0,0,0,.537.409.237.237,0,0,1,.111.339,2.885,2.885,0,0,0-.188.642c.213-.154.4-.275.564-.414a.2.2,0,0,1,.3,0c.17.139.355.26.533.389l.036-.031c-.064-.2-.12-.394-.194-.586a.236.236,0,0,1,.107-.34c.18-.108.343-.245.513-.369m.873,1.3.029.035c.191-.138.386-.271.571-.416a.165.165,0,0,1,.24,0c.185.145.379.278.574.421.009-.031.017-.044.014-.053q-.078-.256-.159-.512c-.087-.274-.086-.273.154-.446.15-.108.3-.22.447-.33a4.289,4.289,0,0,0-.733-.033.153.153,0,0,1-.18-.136c-.065-.23-.147-.456-.222-.683a2.689,2.689,0,0,0-.217.578c-.044.188-.131.266-.333.243a5.415,5.415,0,0,0-.6,0,2.747,2.747,0,0,0,.528.431.2.2,0,0,1,.092.287c-.074.205-.139.414-.209.621m-.6-6.183h-.041c-.065.2-.14.391-.191.59a.182.182,0,0,1-.221.156c-.21-.009-.42,0-.63,0l-.012.045a5.5,5.5,0,0,0,.472.339c.155.09.162.19.106.341a2.732,2.732,0,0,0-.172.588c.2-.142.364-.253.519-.38a.2.2,0,0,1,.3,0c.158.13.33.242.5.362a3.206,3.206,0,0,0-.168-.643.162.162,0,0,1,.08-.226c.178-.119.348-.252.521-.379l-.018-.043c-.212,0-.424-.007-.635,0a.172.172,0,0,1-.209-.146c-.055-.2-.129-.4-.2-.6m-2.867,3.544.031.022c.177-.127.358-.249.529-.384a.158.158,0,0,1,.236,0c.171.136.355.256.533.382a3.675,3.675,0,0,0-.178-.649.147.147,0,0,1,.065-.21c.183-.122.357-.259.535-.389A1.962,1.962,0,0,0,395.63,52c-.184.02-.256-.058-.3-.221-.047-.184-.115-.362-.173-.542a2.726,2.726,0,0,0-.23.6c-.034.14-.1.169-.232.164-.2-.009-.407,0-.611,0l-.008.047c.167.122.329.252.5.363a.185.185,0,0,1,.083.257c-.072.2-.134.4-.2.6m4.9-2.022-.037,0c-.067.2-.143.4-.2.6a.183.183,0,0,1-.221.156c-.2-.009-.41,0-.615,0l-.011.046c.166.121.329.248.5.362a.178.178,0,0,1,.086.25,3.177,3.177,0,0,0-.192.646c.208-.149.4-.274.572-.413a.13.13,0,0,1,.193,0c.181.139.369.268.555.4a2.34,2.34,0,0,0-.15-.561.247.247,0,0,1,.117-.362,2.312,2.312,0,0,0,.478-.367c-.262,0-.475,0-.688,0a.154.154,0,0,1-.184-.132c-.058-.211-.135-.417-.2-.625" transform="translate(-378.174 -45.738)" fill="#2b2e81"/>
    <path id="Path_3641" data-name="Path 3641" d="M391.788,385.852c0-.08,0-.137,0-.194q0-7.589,0-15.178c0-.181.049-.215.22-.214q5.385.008,10.77,0c.26,0,.258,0,.214.255a22.73,22.73,0,0,1-1.284,4.548,19.941,19.941,0,0,1-7.709,9.589,16.312,16.312,0,0,1-2.066,1.138c-.036.017-.075.028-.14.052m2.674-6.72c-.155-.183-.321-.225-.458-.124s-.158.266-.038.464a.943.943,0,0,0,1,.427.425.425,0,0,0,.34-.278,13.177,13.177,0,0,1,1.44-2.781c.064-.094.1-.167,0-.268a.38.38,0,0,1-.1-.338c.048-.211-.087-.262-.232-.313-.292-.1-.42-.073-.591.141a21.079,21.079,0,0,1-2.284,2.427.3.3,0,0,0-.115.168,1.346,1.346,0,0,0,.073.8,1.637,1.637,0,0,0,2.083.773.246.246,0,0,0,.133-.166c.088-.251.174-.5.271-.749a13.012,13.012,0,0,1,1.2-2.323c.025-.038.107-.094.027-.14a.132.132,0,0,0-.187.03l-.048.072a12.84,12.84,0,0,0-1.533,2.87.237.237,0,0,1-.127.151,1.28,1.28,0,0,1-1.561-.508.463.463,0,0,1,.385-.728.7.7,0,0,1,.648.49c.053.133.132.3.012.406s-.285,0-.408-.084c-.093-.063-.215-.131-.207-.259.009-.148.171-.1.272-.159m1.91-3.765c.344.062.6.363.969.258a.112.112,0,0,1,.084.013c.15.106.241.023.324-.1a.911.911,0,0,1,.081-.091c.67-.723,1.39-1.4,2.1-2.082a.2.2,0,0,0,.059-.243,1.419,1.419,0,0,0-1.414-.89.265.265,0,0,0-.228.149q-.638,1.086-1.362,2.117l-.608.864m4.191-1.983a.7.7,0,0,0-.559.167c-.565.523-1.118,1.058-1.629,1.633-.177.2-.343.407-.521.6-.074.081-.083.169-.008.225s.095-.054.134-.094c.069-.069.129-.148.195-.222a24.534,24.534,0,0,1,1.885-1.819,4.834,4.834,0,0,0,.5-.5m-3.3,2.444a.4.4,0,0,0-.007.806.4.4,0,1,0,.007-.806m.416.883a.181.181,0,0,0-.167.214q.1.311.211.622c.094.269.093.265.363.148.088-.038.119-.068.064-.161-.142-.244-.274-.494-.411-.741-.018-.033-.027-.079-.06-.081m.122-.176-.025.043c.128.092.255.185.385.275.034.024.083.067.106-.012.016-.056.075-.133,0-.169a1.328,1.328,0,0,0-.464-.138" transform="translate(-378.143 -357.374)" fill="#2b2e81"/>
    <path id="Path_3642" data-name="Path 3642" d="M199.469,260.772c-.035.076-.113.086-.183.1-.041.01-.094-.008-.077-.058.029-.08.114-.086.186-.1a.056.056,0,0,1,.074.054" transform="translate(-192.271 -251.641)" fill="#2b2e81"/>
  </g>
</svg>
