<?xml version="1.0" encoding="utf-8"?>
<!-- Generator: Adobe Illustrator 26.2.1, SVG Export Plug-In . SVG Version: 6.00 Build 0)  -->
<svg version="1.1" id="a" xmlns="http://www.w3.org/2000/svg" xmlns:xlink="http://www.w3.org/1999/xlink" x="0px" y="0px"
	 viewBox="0 0 260 60" style="enable-background:new 0 0 260 60;" xml:space="preserve">
<style type="text/css">
	.st0{fill:#707171;}
</style>
<g id="b" transform="translate(744.24 1.29)">
	<g id="c">
		<g id="d">
			<path id="e" class="st0" d="M-718.8,1.3h21.2c1.1-0.1,2.1,0.6,2.3,1.7c0.8,2.7,1.3,5.5,1.6,8.3c0.4,3.8,0.5,7.6,0.1,11.4
				c-0.4,4.5-1.5,8.8-3.1,13c-1.8,4.7-4.4,9-7.7,12.8c-3.2,3.7-7,6.7-11.3,9c-0.7,0.4-1.4,0.7-2.1,1c-0.6,0.3-1.3,0.3-1.9,0
				c-2.2-1-4.4-2.2-6.3-3.6c-2.4-1.7-4.6-3.6-6.5-5.8c-2.4-2.7-4.5-5.6-6.2-8.8c-2.1-4.1-3.7-8.5-4.6-13.1c-0.5-2.5-0.8-5.1-0.9-7.7
				c-0.1-3.1,0-6.2,0.4-9.3c0.3-2.4,0.8-4.8,1.5-7.1c0.2-1.2,1.3-2,2.5-1.9L-718.8,1.3 M-718.8,3h-20.5c-0.7-0.1-1.4,0.4-1.5,1.1
				c-0.8,2.8-1.3,5.6-1.6,8.4c-0.4,3.3-0.4,6.7-0.1,10c0.2,2.6,0.7,5.3,1.4,7.8c0.9,3.5,2.2,6.8,3.9,9.9c2.4,4.4,5.7,8.4,9.6,11.6
				c2.5,2,5.2,3.7,8.1,5c0.4,0.2,0.8,0.2,1.2,0c0.5-0.2,0.9-0.4,1.4-0.6c3-1.5,5.8-3.4,8.3-5.7c3.5-3.2,6.5-7,8.6-11.3
				c1.6-3.1,2.8-6.3,3.6-9.6c0.8-3.3,1.3-6.7,1.4-10c0.1-2.6,0-5.2-0.3-7.8c-0.3-2.6-0.8-5.1-1.5-7.6c-0.1-0.7-0.8-1.2-1.5-1.1
				L-718.8,3"/>
			<path id="f" class="st0" d="M-719.2,55.4c-1-0.4-1.9-0.9-2.8-1.4c-6.2-3.7-11.3-9.1-14.5-15.6c-1.7-3.4-3-7-3.8-10.7
				c-0.5-2.7-0.9-5.4-1-8.1c-0.1-2.1,0-4.1,0.2-6.2c0.2-2.9,0.8-5.8,1.6-8.6c0-0.2,0.2-0.3,0.4-0.3h0c3.1,0,6.2,0,9.4,0
				c3.4,0,6.7,0,10.1,0c0.3,0,0.4,0.1,0.4,0.4c0,16.7,0,33.5,0,50.2L-719.2,55.4 M-732.2,20.8c0.2-0.1,0.3-0.3,0.5-0.4
				c0.1-0.1,0.2-0.1,0.3-0.1c0.8,0.1,1.6-0.3,2.1-0.9c0.1-0.2,0.3-0.2,0.5-0.2c0.6,0,1.3,0,1.9,0.2c0.8,0.1,1.4,0.6,1.8,1.3
				c0.3,0.5,0.2,1.1-0.3,1.5c-0.3,0.3-0.6,0.5-1,0.7c-0.2,0.1-0.2,0.2-0.2,0.4c0,0.4,0,0.9-0.1,1.3c0,0.3,0.1,0.3,0.3,0.3
				c0.9-0.2,1.8-0.7,2.4-1.4c0.7-0.9,0.9-2.1,0.5-3.2c-0.2-0.9-0.8-1.7-1.7-2c-1.1-0.5-2.3-0.7-3.6-0.6c-0.2,0-0.4,0-0.6,0
				c-1.1-0.2-2.2,0.3-2.8,1.2c-0.3,0.4-0.3,1,0.1,1.3c0,0,0.1,0.1,0.1,0.1c0,0,0.1,0.1,0,0.1c-0.2,0.2-0.5,0.1-0.7,0.3
				C-732.3,20.5-732.2,20.6-732.2,20.8 M-729.3,24.6c0-0.3,0-0.5,0-0.8c0-0.2-0.1-0.2-0.2-0.2c-0.6,0.2-1.2,0.6-1.7,1
				c-1.3,1.2-1.5,3.2-0.3,4.6c0.4,0.4,0.8,0.7,1.4,0.9c0.8,0.2,1.7,0.5,2.5,0.7c0.3,0,0.7,0.2,0.9,0.4c0.6,0.6,0.9,1.4-0.1,1.9
				c-0.5,0.2-0.8,0.7-0.7,1.2c0,0.8,0,0.8,0.7,0.4c0.5-0.2,1-0.5,1.4-0.8c0.9-1.2,0.8-2.8-0.2-3.9c-0.7-0.7-1.6-1.1-2.5-1.2
				c-0.7,0-1.3-0.3-1.9-0.7c-0.9-0.7-0.9-1.4-0.1-2.2c0,0,0.1,0,0.1-0.1C-729.4,25.8-729.1,25.2-729.3,24.6
				C-729.2,24.7-729.3,24.7-729.3,24.6 M-728.9,24.3L-728.9,24.3l0,0.2c0,1.3,0.1,2.5,0.1,3.8c0,0.2,0.1,0.3,0.3,0.3
				c0.3,0,0.6,0,0.8,0.1c0.2,0,0.3,0,0.3-0.2c0-1.1,0.1-2.2,0.1-3.3c0.1-1.7,0.2-3.5,0.2-5.2c0-0.2,0-0.3-0.2-0.3
				c-0.5-0.1-1-0.1-1.5-0.1c-0.2,0-0.3,0.1-0.3,0.3c0,0.7,0,1.5,0.1,2.2C-728.9,22.7-728.9,23.5-728.9,24.3 M-729.6,13.8
				c0,0.4,0,0.8,0.3,1.1c0.3,0.4,0.4,0.9,0.3,1.4c0,0.1,0,0.3,0,0.5c0,0.1,0.1,0.2,0.2,0.2c0.6,0,1.1,0,1.7,0.1c0.2,0,0.2,0,0.2-0.2
				c0-0.3,0-0.6,0-0.9c0-0.3,0.1-0.6,0.2-0.8c0.6-0.9,0.5-2.1-0.2-2.9c-0.3-0.4-0.8-0.5-1.3-0.4C-729.1,12-729.7,12.9-729.6,13.8
				 M-728.7,35.2h0.1v1.8c0,0.8,0,1.5,0,2.2c0,0.2,0,0.4,0.3,0.4c0.2,0,0.4,0,0.4-0.3c0.1-2.4,0.2-4.9,0.3-7.3c0-0.6,0-0.6-0.6-0.8
				c0,0-0.1,0-0.2,0c-0.5-0.1-0.4-0.1-0.4,0.3V35.2 M-728.9,35.1v-0.4c0-0.1,0.1-0.2,0-0.3c-0.1-0.1-0.2,0.1-0.3,0.1
				c-0.7,0.5-1.3,1.1-1.8,1.8c-0.3,0.5-0.6,1-0.7,1.6c0,0.2-0.1,0.4,0.1,0.5c0.2,0.1,0.4,0,0.6-0.2c0.2-0.2,0.3-0.4,0.3-0.6
				c0.2-0.7,0.7-1.3,1.3-1.7C-729,35.8-728.8,35.5-728.9,35.1"/>
			<path id="g" class="st0" d="M-707.6,24.9c-3.5,0-6.9,0-10.4,0c-0.3,0-0.4-0.1-0.4-0.4c0-6.6,0-13.1,0-19.7c0-0.5-0.1-0.4,0.5-0.4
				h19.3c0.3,0,0.4,0.1,0.5,0.3c1.3,4.8,1.9,9.8,1.7,14.7c0,1.7-0.2,3.5-0.5,5.2c0,0.3-0.2,0.2-0.4,0.2H-707.6 M-708.4,18.2
				L-708.4,18.2l-0.9-0.1c-0.8,0-0.8,0-1-0.7c-0.1-0.3-0.2-0.6-0.3-0.8c-0.2,0.5-0.3,0.9-0.4,1.3c-0.1,0.2-0.2,0.3-0.4,0.3
				c-0.4,0-0.9,0-1.4,0c0.3,0.3,0.7,0.5,1,0.8c0.2,0.1,0.3,0.4,0.2,0.6c0,0,0,0,0,0c-0.2,0.4-0.3,0.8-0.4,1.2
				c0.4-0.3,0.8-0.5,1.1-0.8c0.1-0.1,0.4-0.2,0.5,0l0,0c0,0,0,0,0,0c0.3,0.3,0.7,0.5,1,0.7l0.1-0.1c-0.1-0.4-0.2-0.8-0.4-1.1
				c-0.1-0.2-0.1-0.5,0.2-0.6l0,0c0,0,0,0,0,0C-709,18.6-708.7,18.4-708.4,18.2 M-706.7,20.6L-706.7,20.6c0.4-0.2,0.8-0.4,1.1-0.7
				c0.1-0.1,0.3-0.1,0.4,0h0c0.4,0.3,0.7,0.5,1.1,0.8c0-0.1,0-0.1,0-0.1c-0.1-0.3-0.2-0.6-0.3-1c-0.1-0.3,0-0.6,0.3-0.8
				c0.3-0.2,0.6-0.4,0.8-0.6c-0.5-0.1-0.9-0.1-1.4-0.1c-0.2,0-0.3-0.1-0.3-0.2l0,0v0c-0.1-0.4-0.3-0.9-0.4-1.3
				c-0.2,0.4-0.3,0.7-0.4,1.1c-0.1,0.4-0.2,0.5-0.6,0.5c-0.4,0-0.8,0-1.1,0c0.3,0.3,0.6,0.6,1,0.8c0.2,0.1,0.3,0.3,0.2,0.5l0,0
				c0,0,0,0,0,0C-706.5,19.8-706.6,20.2-706.7,20.6 M-707.9,8.9L-707.9,8.9c-0.2,0.4-0.3,0.7-0.4,1.1c0,0.2-0.2,0.3-0.4,0.3h0
				c-0.4,0-0.8,0-1.2,0l0,0.1c0.3,0.2,0.6,0.4,0.9,0.6c0.3,0.2,0.3,0.4,0.2,0.6c-0.2,0.4-0.3,0.7-0.3,1.1c0.4-0.3,0.7-0.5,1-0.7
				c0.1-0.2,0.4-0.2,0.5,0c0,0,0,0,0,0c0.3,0.2,0.6,0.5,0.9,0.7c-0.1-0.4-0.2-0.8-0.3-1.2c-0.1-0.1,0-0.3,0.1-0.4l0,0l0,0
				c0.3-0.2,0.7-0.5,1-0.7l0-0.1c-0.4,0-0.8,0-1.2,0c-0.2,0-0.3-0.1-0.4-0.2c0,0,0,0,0,0C-707.6,9.6-707.8,9.2-707.9,8.9
				 M-713.3,15.6L-713.3,15.6c0.4-0.2,0.7-0.4,1.1-0.7c0.1-0.1,0.3-0.1,0.4,0c0,0,0,0,0,0c0.3,0.3,0.7,0.5,1,0.7
				c-0.1-0.4-0.2-0.8-0.3-1.2c-0.1-0.1,0-0.3,0.1-0.4h0c0.4-0.2,0.7-0.5,1-0.8c-0.4-0.1-0.7-0.1-1.1-0.1c-0.4,0-0.5-0.1-0.6-0.4
				c-0.1-0.4-0.2-0.7-0.3-1c-0.2,0.4-0.3,0.7-0.4,1.1c-0.1,0.3-0.2,0.3-0.4,0.3c-0.4,0-0.8,0-1.2,0l0,0.1c0.3,0.2,0.6,0.5,1,0.7
				c0.2,0.1,0.2,0.3,0.2,0.5v0C-713.1,14.8-713.2,15.2-713.3,15.6 M-704,11.8L-704,11.8c-0.2,0.4-0.3,0.8-0.4,1.1
				c0,0.2-0.2,0.3-0.4,0.3h0c-0.4,0-0.8,0-1.2,0l0,0.1c0.3,0.2,0.6,0.5,1,0.7c0.2,0.1,0.2,0.3,0.2,0.4l0,0v0
				c-0.2,0.4-0.3,0.8-0.4,1.2c0.4-0.3,0.8-0.5,1.1-0.8c0.1-0.1,0.2-0.1,0.3,0l0,0c0.3,0.3,0.7,0.5,1.1,0.8c0-0.4-0.2-0.7-0.3-1.1
				c-0.1-0.2-0.1-0.5,0.1-0.6c0,0,0.1,0,0.1,0c0.3-0.2,0.6-0.4,0.9-0.7c-0.5,0-0.9,0-1.3,0c-0.2,0-0.3-0.1-0.4-0.2v0
				C-703.8,12.5-703.9,12.2-704,11.8"/>
			<path id="h" class="st0" d="M-718.4,55.4V55c0-9.6,0-19.2,0-28.8c0-0.3,0.1-0.4,0.4-0.4c6.8,0,13.6,0,20.4,0c0.5,0,0.5,0,0.4,0.5
				c-0.5,3-1.3,5.8-2.4,8.6c-2.8,7.5-8,13.8-14.6,18.2c-1.2,0.8-2.6,1.5-3.9,2.2C-718.1,55.3-718.2,55.3-718.4,55.4 M-713.3,42.6
				c-0.3-0.3-0.6-0.4-0.9-0.2s-0.3,0.5-0.1,0.9c0.4,0.6,1.2,1,1.9,0.8c0.3,0,0.5-0.2,0.6-0.5c0.7-1.9,1.6-3.6,2.7-5.3
				c0.1-0.2,0.2-0.3,0-0.5c-0.2-0.2-0.2-0.4-0.2-0.6c0.1-0.4-0.2-0.5-0.4-0.6c-0.5-0.2-0.8-0.1-1.1,0.3c-1.3,1.7-2.8,3.2-4.3,4.6
				c-0.1,0.1-0.2,0.2-0.2,0.3c-0.1,0.5-0.1,1,0.1,1.5c0.7,1.5,2.5,2.1,4,1.5c0.1-0.1,0.2-0.2,0.2-0.3c0.2-0.5,0.3-1,0.5-1.4
				c0.6-1.5,1.4-3,2.3-4.4c0-0.1,0.2-0.2,0-0.3c-0.1-0.1-0.3-0.1-0.3,0l0,0c0,0-0.1,0.1-0.1,0.1c-1.2,1.7-2.2,3.5-2.9,5.5
				c0,0.1-0.1,0.2-0.2,0.3c-1.1,0.4-2.3,0-3-1c-0.3-0.4-0.2-1,0.2-1.2c0.2-0.1,0.3-0.2,0.5-0.2c0.6,0,1.1,0.4,1.2,0.9
				c0.1,0.2,0.2,0.6,0,0.8c-0.2,0.2-0.5,0-0.8-0.2c-0.2-0.1-0.4-0.2-0.4-0.5C-713.8,42.6-713.5,42.7-713.3,42.6 M-709.6,35.5
				c0.7,0.1,1.1,0.7,1.8,0.5c0,0,0.1,0,0.2,0c0.3,0.2,0.5,0,0.6-0.2c0.1-0.1,0.1-0.1,0.2-0.2c1.3-1.4,2.6-2.7,4-4
				c0.1-0.1,0.2-0.3,0.1-0.5c-0.4-1.1-1.5-1.8-2.7-1.7c-0.2,0-0.3,0.1-0.4,0.3c-0.8,1.4-1.7,2.7-2.6,4
				C-708.9,34.4-709.3,34.9-709.6,35.5 M-701.7,31.7c-0.4-0.1-0.8,0.1-1.1,0.3c-1.1,1-2.1,2-3.1,3.1c-0.3,0.4-0.7,0.8-1,1.2
				c-0.1,0.2-0.2,0.3,0,0.4c0.1,0.1,0.2-0.1,0.2-0.2c0.1-0.1,0.2-0.3,0.4-0.4c1.1-1.2,2.3-2.4,3.6-3.5
				C-702.3,32.4-702,32.1-701.7,31.7 M-707.9,36.4c-0.4,0-0.8,0.3-0.8,0.8c0,0.4,0.3,0.8,0.8,0.8c0.4,0,0.8-0.3,0.8-0.8
				C-707.2,36.7-707.5,36.4-707.9,36.4L-707.9,36.4 M-707.2,38c-0.2,0-0.3,0.2-0.3,0.4l0,0c0,0,0,0,0,0c0.1,0.4,0.3,0.8,0.4,1.2
				c0.2,0.5,0.2,0.5,0.7,0.3c0.2-0.1,0.2-0.1,0.1-0.3c-0.3-0.5-0.5-0.9-0.8-1.4C-707.1,38.1-707.1,38-707.2,38 M-706.9,37.7
				L-706.9,37.7c0.2,0.2,0.4,0.4,0.7,0.6c0.1,0,0.2,0.1,0.2,0c0-0.1,0.1-0.2,0-0.3C-706.3,37.8-706.6,37.7-706.9,37.7"/>
			<path id="i" class="st0" d="M-730.6,18.7c-0.1,0.1-0.2,0.2-0.3,0.2c-0.1,0-0.2,0-0.2-0.1c0-0.1,0.2-0.2,0.3-0.2
				C-730.7,18.5-730.6,18.6-730.6,18.7L-730.6,18.7C-730.6,18.6-730.6,18.6-730.6,18.7"/>
			<rect id="j" x="-679.3" y="-0.8" class="st0" width="0.6" height="60"/>
			<path id="k" class="st0" d="M-633.4,17.1c0.3,0,0.4,0,0.4-0.4c0-2.2,0-4.4,0-6.6c0-0.1,0-0.2,0-0.4c0.2,0.1,0.2,0.2,0.3,0.3
				c0.9,1.4,1.8,2.8,2.8,4.2c0.2,0.2,0.2,0.3,0.4,0c0.7-1.1,1.4-2.1,2.1-3.1c0.3-0.5,0.6-0.9,0.9-1.4l0.1,0v7.1c0,0.2,0,0.3,0.3,0.3
				c0.6,0,1.3,0,2,0c0.2,0,0.3,0,0.3-0.3c0-3.7,0-7.3,0-11c0-0.2-0.1-0.3-0.3-0.3c-0.7,0-1.5,0-2.2,0c-0.2,0-0.3,0.1-0.4,0.2
				c-0.9,1.4-1.8,2.9-2.7,4.3c-0.1,0.1-0.1,0.2-0.2,0.3c0-0.1-0.1-0.1-0.1-0.2c-0.9-1.4-1.8-2.9-2.7-4.4c-0.1-0.2-0.2-0.3-0.4-0.2
				c-0.7,0-1.4,0-2.1,0c-0.2,0-0.3,0-0.3,0.3c0,3.6,0,7.3,0,10.9c0,0.3,0.1,0.3,0.3,0.3C-634.5,17.2-633.9,17.2-633.4,17.1"/>
			<path id="l" class="st0" d="M-639.3,36.9c0.5,0,1,0,1.5,0c0.2,0,0.3,0,0.3-0.3c0-3.7,0-7.3,0-11c0-0.2-0.1-0.3-0.3-0.3
				c-0.6,0-1.2,0-1.9,0c-0.3,0-0.4,0.1-0.4,0.4c0,2.1,0,4.2,0,6.3v0.4l-0.1,0c-0.1-0.1-0.1-0.2-0.2-0.2c-1.7-2.2-3.3-4.3-5-6.5
				c-0.1-0.1-0.2-0.2-0.4-0.2c-0.6,0-1.3,0-1.9,0c-0.2,0-0.2,0.1-0.2,0.2c0,3.7,0,7.4,0,11c0,0.2,0.1,0.2,0.3,0.2c0.6,0,1.2,0,1.8,0
				c0.3,0,0.4,0,0.4-0.4c0-2.2,0-4.3,0-6.5c0-0.1,0-0.2,0-0.4c0.1,0.2,0.2,0.3,0.4,0.5c1.7,2.2,3.3,4.4,5,6.6
				C-639.7,36.8-639.5,36.9-639.3,36.9"/>
			<path id="m" class="st0" d="M-598.6,36.9c0.9,0,1.8,0,2.8,0c-0.1-0.2-0.2-0.3-0.2-0.4c-0.8-1.2-1.6-2.3-2.4-3.5
				c-0.2-0.2-0.2-0.3,0.1-0.5c1.9-0.9,2.7-3.2,1.8-5.2c-0.1-0.1-0.1-0.3-0.2-0.4c-0.7-1-1.8-1.6-3-1.6c-1.9-0.1-3.9,0-5.8,0
				c-0.2,0-0.2,0.1-0.2,0.3c0,3.7,0,7.3,0,11c0,0.2,0.1,0.3,0.3,0.3c0.6,0,1.3,0,1.9,0c0.3,0,0.3-0.1,0.3-0.3c0-1,0-2,0-3.1
				c0-0.2,0-0.3,0.3-0.3c0.5,0,1,0,1.5,0c0.2,0,0.3,0.1,0.4,0.2c0.7,1.1,1.5,2.2,2.2,3.3C-598.9,36.8-598.8,36.9-598.6,36.9
				 M-600.4,31c-0.9,0-1.8,0-2.7,0c-0.2,0-0.2-0.1-0.2-0.2c0-0.5,0-1,0-1.5s0-1,0-1.4c0-0.2,0-0.2,0.2-0.2c0.9,0,1.7,0,2.6,0
				c0.9-0.1,1.7,0.6,1.7,1.5c0,0.2,0,0.5-0.1,0.7C-599.1,30.6-599.7,31-600.4,31"/>
			<path id="n" class="st0" d="M-608.4,34.7c-1.9,0-3.7,0-5.5,0c-0.3,0-0.4-0.1-0.3-0.3c0-0.6,0-1.2,0-1.8c0-0.3,0.1-0.4,0.4-0.4
				c1.6,0,3.1,0,4.7,0c0.3,0,0.4-0.1,0.3-0.4c0-0.5,0-1,0-1.5c0-0.3-0.1-0.4-0.3-0.4c-1.6,0-3.2,0-4.8,0c-0.3,0-0.4,0-0.4-0.3
				c0-0.6,0-1.1,0-1.7c0-0.3,0.1-0.4,0.4-0.4c1.8,0,3.7,0,5.5,0c0.2,0,0.3,0,0.3-0.3c0-0.5,0-1.1,0-1.6c0-0.3-0.1-0.4-0.4-0.4
				c-2.7,0-5.3,0-8,0c-0.3,0-0.3,0.1-0.3,0.3c0,1.8,0,3.6,0,5.4l0,0v5.4c0,0.2,0,0.3,0.2,0.3c2.8,0,5.5,0,8.3,0
				c0.2,0,0.2-0.1,0.2-0.2c0-0.5,0-1.1,0-1.6C-608,34.7-608.1,34.7-608.4,34.7"/>
			<path id="o" class="st0" d="M-659.9,17.1c0.6,0,1.3,0,1.9,0c0.3,0,0.4-0.1,0.4-0.3c0-1,0-1.9,0-2.9c0-0.2,0.1-0.4,0.2-0.5
				c0.3-0.3,0.6-0.6,0.9-0.9c0.2-0.2,0.3-0.2,0.5,0c1.1,1.5,2.1,2.9,3.2,4.4c0.1,0.2,0.3,0.3,0.5,0.2c0.8,0,1.6,0,2.4,0
				c0.1,0,0.2,0,0.2-0.1c0-0.1-0.1-0.2-0.2-0.2c-1.5-2-3-4-4.4-6c-0.2-0.2-0.2-0.4,0-0.6c1.2-1.3,2.5-2.6,3.7-3.9
				c0.2-0.2,0.5-0.4,0.6-0.7h-2.8c-0.1,0-0.3,0.1-0.3,0.2l-2,2.1l-2.5,2.7l0,0l-0.1,0v-0.4c0-1.4,0-2.9,0-4.3c0-0.2-0.1-0.3-0.3-0.3
				c-0.7,0-1.3,0-2,0c-0.2,0-0.3,0.1-0.3,0.3c0,3.7,0,7.3,0,11C-660.2,17.1-660.1,17.1-659.9,17.1"/>
			<path id="p" class="st0" d="M-660.3,31.9c0,0.4,0,0.9,0.1,1.3c0.1,1.5,1,2.8,2.4,3.4c1,0.4,2.1,0.6,3.2,0.5
				c2.4,0,4.3-1.9,4.4-4.3c0.1-2.4,0-4.8,0.1-7.2c0-0.2-0.1-0.2-0.2-0.2c-0.7,0-1.3,0-2,0c-0.2,0-0.3,0.1-0.3,0.3c0,1.1,0,2.3,0,3.4
				h0c0,1.1,0,2.2,0,3.4c0,0.9-0.5,1.7-1.3,2.1c-1.2,0.7-2.7,0.2-3.4-1c-0.2-0.5-0.3-1-0.3-1.5c0-2.1,0-4.2,0-6.2
				c0-0.3,0-0.4-0.4-0.4c-0.6,0-1.2,0-1.8,0c-0.3,0-0.4,0.1-0.4,0.4C-660.3,27.8-660.3,29.8-660.3,31.9"/>
			<path id="q" class="st0" d="M-621.3,12.1c0,0.5,0,1,0.1,1.5c0.2,1.7,1.4,3.1,3.1,3.5c1.2,0.3,2.4,0.3,3.6,0
				c1.2-0.3,2.2-1.2,2.8-2.3c0.3-0.8,0.5-1.7,0.5-2.5v-3l0,0c0-1.1,0-2.2,0-3.3c0-0.3-0.1-0.3-0.3-0.3c-0.6,0-1.2,0-1.9,0
				c-0.3,0-0.4,0.1-0.4,0.4c0,2.1,0,4.2,0,6.3c0.2,1.3-0.7,2.5-2,2.6h0c-1.2,0.3-2.5-0.4-2.8-1.7c0,0,0-0.1,0-0.1
				c-0.1-0.4-0.1-0.7-0.1-1.1V6c0-0.3,0-0.4-0.3-0.3c-0.6,0-1.2,0-1.8,0c-0.3,0-0.4,0.1-0.4,0.4C-621.3,8-621.4,10.1-621.3,12.1"/>
			<path id="r" class="st0" d="M-597.2,9.3v2.6c0,0.6,0,1.1,0.1,1.7c0.2,1.4,1,2.6,2.3,3.2c1.1,0.5,2.3,0.6,3.4,0.5
				c1-0.1,2-0.5,2.8-1.2c0.9-0.9,1.4-2.2,1.4-3.5c0-2.2,0-4.4,0-6.7c0-0.2-0.1-0.3-0.3-0.3c-0.6,0-1.3,0-1.9,0
				c-0.3,0-0.4,0.1-0.4,0.3c0,2.1,0,4.1,0,6.2c0,0.2,0,0.5,0,0.8c-0.1,0.9-0.7,1.7-1.5,1.9c-1,0.4-2.1,0.1-2.8-0.6
				c-0.5-0.6-0.7-1.3-0.7-2.1c0-2.1,0-4.2,0-6.2c0-0.2,0-0.3-0.3-0.3c-0.6,0-1.3,0-1.9,0c-0.2,0-0.3,0.1-0.3,0.3
				C-597.2,7-597.2,8.1-597.2,9.3L-597.2,9.3L-597.2,9.3z"/>
			<path id="s" class="st0" d="M-608.3,14.3c-0.6,0.5-0.9,1.3-0.8,2c0,0.2,0,0.3,0,0.5c0,0.2,0.1,0.3,0.3,0.3c3,0,6.1,0,9.1,0
				c0.2,0,0.3-0.1,0.2-0.3c0-0.5,0-1.1,0-1.6c0-0.3-0.1-0.3-0.3-0.3c-1.9,0-3.7,0-5.6,0h-0.4c0-0.1,0.1-0.2,0.2-0.3l5-5.8
				c0.4-0.4,0.7-0.8,1-1.2c0.1-0.5,0.1-1.1,0.1-1.6c0,0,0,0,0-0.1c0-0.2-0.1-0.3-0.3-0.3c-2.9,0-5.9,0-8.8,0c-0.2,0-0.3,0.1-0.3,0.3
				c0,0.5,0,1.1,0,1.6c0,0.3,0.1,0.3,0.3,0.3c1.7,0,3.5,0,5.2,0h0.6c-0.1,0.1-0.1,0.2-0.2,0.3C-604.7,10.2-606.5,12.3-608.3,14.3"/>
			<path id="t" class="st0" d="M-649.2,17.1c0.7,0,1.3,0,2,0c0.2,0,0.3-0.1,0.4-0.2c0.3-0.7,0.6-1.4,0.8-2.1c0-0.2,0.2-0.3,0.4-0.3
				c1.4,0,2.9,0,4.3,0c0.2,0,0.4,0.1,0.4,0.3c0.3,0.7,0.6,1.4,0.8,2.1c0,0.1,0.1,0.2,0.2,0.2h2.5c0-0.1-0.1-0.2-0.1-0.3
				c-0.5-1.2-1-2.5-1.6-3.7c-1-2.4-2.1-4.8-3.1-7.3c0-0.2-0.2-0.3-0.3-0.2c-0.6,0-1.2,0-1.9,0c-0.1,0-0.3,0.1-0.3,0.2
				c-0.2,0.6-0.5,1.2-0.7,1.7c-1.3,3.1-2.6,6.2-4,9.4C-649.5,17.1-649.4,17.1-649.2,17.1 M-644.8,12.1c0.5-1.1,0.9-2.2,1.4-3.4
				c0,0,0-0.1,0.1-0.1l0,0c0.3,0.7,0.6,1.4,0.8,2c0.2,0.5,0.4,0.9,0.6,1.4c0.1,0.2,0.1,0.3-0.2,0.3c-0.8,0-1.7,0-2.5,0
				C-644.8,12.3-644.9,12.3-644.8,12.1"/>
			<path id="u" class="st0" d="M-587.1,30.8c-0.6-0.3-1.2-0.6-1.9-0.7c-0.7-0.1-1.5-0.4-2.2-0.7c-0.3-0.2-0.6-0.5-0.5-0.9
				c0-0.4,0.2-0.7,0.6-0.8c0.3-0.1,0.7-0.2,1-0.2c1,0.1,1.9,0.4,2.6,1c0.2,0.1,0.3,0.1,0.4-0.1c0.3-0.5,0.6-1,1-1.4
				c0.1-0.2,0.1-0.3-0.1-0.4c-1.4-1.1-3.2-1.5-5-1.2c-1.8,0.2-3.2,1.8-3.1,3.6c0,1.1,0.6,2.1,1.7,2.6c0.5,0.2,1.1,0.4,1.6,0.6
				c0.8,0.2,1.5,0.4,2.2,0.7c0.4,0.1,0.7,0.6,0.7,1c0,0.5-0.4,0.8-0.8,0.9c-0.5,0.2-1.1,0.2-1.6,0.1c-0.9-0.2-1.7-0.5-2.4-1.1
				c-0.2-0.2-0.4-0.2-0.6,0.1c-0.3,0.4-0.7,0.8-1,1.2c-0.2,0.2-0.2,0.3,0,0.4c1.3,1.1,3,1.6,4.6,1.6l0,0c0.4,0,0.7,0,1.1-0.1
				c1.6-0.1,3-1.4,3.2-3C-585.3,32.7-585.9,31.4-587.1,30.8"/>
			<path id="v" class="st0" d="M-618.9,25.4c-0.7,0-1.4,0-2.1,0c-0.2,0-0.4,0.1-0.4,0.3c-0.8,2.3-1.7,4.6-2.5,6.9
				c-0.1,0.3-0.2,0.6-0.4,0.9l0,0c0-0.1-0.1-0.2-0.1-0.3c-0.9-2.5-1.9-5-2.8-7.5c0-0.2-0.2-0.3-0.4-0.3c-0.7,0-1.4,0-2.2,0
				c-0.2,0-0.3,0-0.2,0.3c0.3,0.6,0.5,1.2,0.8,1.9c1.2,3.1,2.5,6.1,3.7,9.2c0,0.2,0.2,0.3,0.4,0.3c0.6,0,1.1,0,1.7,0
				c0.2,0,0.3-0.1,0.4-0.2c0.4-0.9,0.7-1.8,1.1-2.8c1.1-2.8,2.2-5.5,3.3-8.3C-618.6,25.4-618.7,25.4-618.9,25.4"/>
			<path id="w" class="st0" d="M-561.3,36.6c0-1.3,0-2.6,0-4c0-0.2,0-0.3,0.1-0.5c1-1.6,2-3.2,3-4.8l1.3-2h-2.8
				c-0.1,0-0.2,0.1-0.2,0.2l-1.1,1.9l-1.5,2.5l0,0c-0.1-0.1-0.2-0.2-0.2-0.3c-0.8-1.3-1.6-2.7-2.4-4c-0.1-0.2-0.3-0.3-0.5-0.3
				c-0.7,0-1.5,0-2.2,0c-0.1,0-0.2-0.1-0.3,0s0.1,0.2,0.1,0.3c1.3,2.1,2.7,4.2,4,6.3c0.1,0.2,0.2,0.4,0.2,0.7c0,1.3,0,2.6,0,3.9
				c0,0.2,0.1,0.3,0.3,0.3c0.6,0,1.2,0,1.8,0C-561.4,36.9-561.3,36.9-561.3,36.6"/>
			<path id="x" class="st0" d="M-569.4,25.4c-1.5,0-3,0-4.4,0l0,0c-1.5,0-3,0-4.5,0c-0.2,0-0.3,0.1-0.3,0.3c0,0.6,0,1.1,0,1.7
				c0,0.3,0.1,0.3,0.3,0.3c0.9,0,1.8,0,2.7,0c0.3,0,0.5,0.1,0.5,0.4c0,2.8,0,5.6,0,8.4c0,0.3,0.1,0.4,0.4,0.3c0.6,0,1.2,0,1.8,0
				c0.3,0,0.4,0,0.4-0.4c0-2.8,0-5.6,0-8.4c0-0.3,0.1-0.4,0.4-0.4c0.9,0,1.9,0,2.8,0c0.2,0,0.3-0.1,0.3-0.3c0-0.5,0-1.1,0-1.6
				C-569.1,25.5-569.1,25.4-569.4,25.4"/>
			<path id="y" class="st0" d="M-580.9,36.9c0.2,0,0.3-0.1,0.3-0.3c0-3.7,0-7.3,0-11c0-0.2-0.1-0.3-0.3-0.3c-0.6,0-1.3,0-1.9,0
				c-0.2,0-0.3,0.1-0.3,0.3c0,1.8,0,3.6,0,5.4l0,0c0,1.8,0,3.6,0,5.4c0,0.3,0.1,0.4,0.4,0.4C-582.2,36.9-581.6,36.9-580.9,36.9"/>
			<path id="a_x60_" class="st0" d="M-634.2,36.9c0.6,0,1.3,0,1.9,0c0.2,0,0.3,0,0.3-0.3c0-3.7,0-7.3,0-11c0-0.2-0.1-0.3-0.3-0.3
				c-0.6,0-1.3,0-1.9,0c-0.3,0-0.4,0.1-0.4,0.3c0,1.8,0,3.6,0,5.4c0,1.8,0,3.6,0,5.4C-634.6,36.9-634.5,36.9-634.2,36.9"/>
			<path id="aa" class="st0" d="M-571.3,44.8c-0.2,0-0.3,0.1-0.3,0.3c0,1.3,0,2.6,0,3.9c0,0.1,0,0.2-0.1,0.4
				c-0.1-0.1-0.2-0.2-0.2-0.3c-1-1.2-1.9-2.5-2.9-3.7c-0.2-0.4-0.7-0.7-1.2-0.6c-0.3,0-0.3,0.1-0.3,0.4c0,1.9,0,3.7,0,5.6
				c0,0.8,0,0.8,0.8,0.8c0.3,0,0.4-0.1,0.4-0.4c0-1.5,0-2.9,0-4.4l0,0c0.1,0.1,0.2,0.2,0.3,0.3c1,1.3,2,2.6,3,3.9
				c0.2,0.4,0.6,0.6,1.1,0.5c0.3,0,0.3-0.1,0.3-0.4c0-1.9,0-3.7,0-5.6C-570.4,44.8-570.4,44.8-571.3,44.8"/>
			<path id="ab" class="st0" d="M-656.8,44.7L-656.8,44.7c-1.9-0.1-3.5,1.4-3.6,3.3c0,0.1,0,0.1,0,0.2v0.2c0.1,1.9,1.6,3.4,3.5,3.3
				h0.1c1.9,0,3.5-1.6,3.4-3.5c0-1.9-1.5-3.5-3.3-3.5C-656.7,44.7-656.7,44.7-656.8,44.7 M-656.8,50.6h-0.1
				c-1.3-0.1-2.3-1.3-2.2-2.7c0.1-1.2,1.2-2.2,2.4-2.2c1.3,0.1,2.3,1.2,2.2,2.5c0,1.3-1,2.3-2.2,2.4
				C-656.8,50.6-656.8,50.6-656.8,50.6"/>
			<path id="ac" class="st0" d="M-630.4,50.5c-1.1,0-2.2,0-3.3,0c-0.2,0-0.3-0.1-0.3-0.3c0-0.4,0-0.8,0-1.2c0-0.2,0.1-0.3,0.3-0.3
				c0.8,0,1.6,0,2.4,0c0.7,0,0.7,0,0.7-0.7c0-0.3-0.1-0.3-0.3-0.3c-0.9,0-1.9,0-2.8,0c-0.2,0-0.3,0-0.3-0.3c0-0.4,0-0.8,0-1.2
				c0-0.2,0.1-0.3,0.3-0.3c0.9,0,1.9,0,2.8,0c0.8,0,0.8,0,0.8-0.8c0-0.2-0.1-0.3-0.3-0.3c-1.5,0-3,0-4.5,0c-0.3,0-0.3,0.1-0.3,0.3
				c0,1,0,2,0,3.1l0,0c0,1,0,2,0,3.1c0,0.3,0.1,0.3,0.3,0.3c1.3,0,2.7,0,4,0c0.7,0,0.7,0,0.7-0.7C-630,50.5-630.1,50.5-630.4,50.5"
				/>
			<path id="ad" class="st0" d="M-556.7,50.5c-1.1,0-2.2,0-3.3,0c-0.2,0-0.3-0.1-0.3-0.3c0-0.4,0-0.9,0-1.3c0-0.2,0.1-0.3,0.3-0.3
				c0.8,0,1.6,0,2.4,0c0.7,0,0.7,0,0.7-0.7c0-0.2-0.1-0.3-0.3-0.3c-0.9,0-1.9,0-2.8,0c-0.2,0-0.3-0.1-0.3-0.3c0-0.4,0-0.8,0-1.2
				c0-0.2,0.1-0.3,0.3-0.3c0.9,0,1.8,0,2.8,0c0.8,0,0.8,0,0.8-0.8c0-0.2-0.1-0.3-0.3-0.3c-1.5,0-3,0-4.4,0c-0.2,0-0.3,0.1-0.3,0.3
				c0,1,0,2.1,0,3.1s0,2,0,3.1c0,0.2,0.1,0.3,0.3,0.3c1.3,0,2.7,0,4,0c0.7,0,0.7,0,0.7-0.7C-556.4,50.5-556.5,50.5-556.7,50.5"/>
			<path id="ae" class="st0" d="M-578.1,50.5c-1.1,0-2.2,0-3.3,0c-0.2,0-0.3,0-0.3-0.3c0-0.4,0-0.9,0-1.3c0-0.2,0.1-0.3,0.3-0.3
				c0.8,0,1.6,0,2.4,0c0.7,0,0.7,0,0.7-0.7c0-0.3-0.1-0.3-0.3-0.3c-0.9,0-1.9,0-2.8,0c-0.2,0-0.3,0-0.3-0.3c0-0.4,0-0.8,0-1.2
				c0-0.2,0.1-0.3,0.3-0.3c0.9,0,1.8,0,2.8,0c0.8,0,0.8,0,0.8-0.8c0-0.2-0.1-0.2-0.3-0.2c-1.5,0-3,0-4.5,0c-0.2,0-0.3,0.1-0.3,0.3
				c0,1,0,2.1,0,3.1l0,0c0,1,0,2,0,3.1c0,0.3,0.1,0.3,0.3,0.3c1.3,0,2.7,0,4,0c0.7,0,0.7,0,0.7-0.7
				C-577.7,50.5-577.8,50.5-578.1,50.5"/>
			<path id="af" class="st0" d="M-604,48.2v-2.6c0-0.9,0-0.9-0.9-0.9c-0.2,0-0.3,0.1-0.3,0.3c0,0.8,0,1.5,0,2.3c0,0.2,0,0.2-0.2,0.2
				c-0.9,0-1.8,0-2.8,0c-0.2,0-0.2-0.1-0.2-0.3c0-0.5,0-1.1,0-1.7c0-0.3,0.1-0.7-0.1-0.8c-0.2-0.2-0.6,0-0.9-0.1
				c-0.2,0-0.2,0.1-0.2,0.3c0,2.1,0,4.2,0,6.2c0,0.2,0,0.3,0.3,0.3c0.2,0,0.4,0,0.7,0c0.2,0,0.3-0.1,0.3-0.3c0-0.8,0-1.6,0-2.3
				c0-0.2,0.1-0.2,0.2-0.2c0.9,0,1.8,0,2.8,0c0.2,0,0.2,0.1,0.2,0.3c0,0.6,0,1.1,0,1.7c0,0.9,0,0.9,0.9,0.9c0.2,0,0.3-0.1,0.3-0.3
				C-604,50.2-604,49.2-604,48.2L-604,48.2z"/>
			<path id="ag" class="st0" d="M-636.9,44.8c-0.2-0.2-0.5,0-0.8-0.1c-0.2,0-0.3,0-0.3,0.3c0,0.8,0,1.5,0,2.3c0,0.2,0,0.3-0.2,0.2
				c-0.9,0-1.9,0-2.8,0c-0.2,0-0.2-0.1-0.2-0.2c0-0.6,0-1.1,0-1.7c0-0.3,0.1-0.7-0.1-0.8s-0.5,0-0.8-0.1c-0.2,0-0.3,0.1-0.3,0.3
				c0,1,0,2,0,3.1v2.5c0,0.9,0,0.9,0.9,0.9c0.2,0,0.3-0.1,0.3-0.3c0-0.8,0-1.5,0-2.3c0-0.2,0-0.3,0.3-0.3c0.9,0,1.8,0,2.7,0
				c0.2,0,0.3,0.1,0.3,0.3c0,0.6,0,1.1,0,1.7c0,0.9,0,0.9,0.9,0.9c0.3,0,0.3-0.1,0.3-0.3c0-1.9,0-3.7,0-5.6
				C-636.9,45.4-636.8,45-636.9,44.8"/>
			<path id="ah" class="st0" d="M-624.8,45.5c-0.3-0.8-0.3-0.8-1.1-0.8c-0.2,0-0.4,0.1-0.4,0.3c-0.5,1.2-1.1,2.5-1.6,3.7
				c-0.4,0.9-0.8,1.7-1.1,2.6c-0.1,0.2-0.1,0.3,0.2,0.3c0.2,0,0.5,0,0.7,0c0.1,0,0.3-0.1,0.3-0.2c0.2-0.4,0.3-0.8,0.5-1.2
				c0-0.2,0.2-0.2,0.3-0.2c0.9,0,1.8,0,2.7,0c0.2,0,0.3,0.1,0.3,0.2c0.2,0.4,0.3,0.8,0.5,1.2c0,0.1,0.1,0.2,0.2,0.2c0.3,0,0.7,0,1,0
				l0,0c0-0.1,0-0.2-0.1-0.3C-623.1,49.3-624,47.4-624.8,45.5 M-624.7,48.9h-1.9c-0.1,0-0.2,0-0.2-0.2c0.4-0.8,0.7-1.7,1.1-2.6l0,0
				c0.3,0.7,0.6,1.3,0.8,1.9c0.1,0.2,0.2,0.4,0.3,0.6S-624.6,48.9-624.7,48.9"/>
			<path id="ai" class="st0" d="M-595.5,48c-0.3-0.1-0.6-0.2-0.9-0.3c-0.5-0.1-1-0.2-1.5-0.4c-0.4-0.2-0.6-0.4-0.5-0.8
				c0-0.3,0.3-0.6,0.6-0.7c0.6-0.1,1.2,0,1.7,0.2c0.2,0.1,0.4,0.4,0.7,0.3c0.2-0.1,0.3-0.4,0.5-0.6c0.1-0.1,0.1-0.2,0-0.3
				c-0.7-0.5-1.5-0.7-2.4-0.7l0,0c-0.2,0-0.4,0-0.6,0.1c-0.8,0.2-1.5,0.8-1.6,1.7c-0.1,0.9,0.4,1.8,1.3,2c0.2,0.1,0.4,0.1,0.6,0.2
				c0.5,0.1,0.9,0.2,1.4,0.4c0.3,0.1,0.5,0.4,0.5,0.7c0,0.4-0.3,0.8-0.7,0.9c-0.8,0.2-1.7,0-2.3-0.6c-0.3-0.2-0.4-0.2-0.6,0.1
				c-0.5,0.6-0.5,0.6,0.2,1c1.1,0.7,2.5,0.8,3.7,0.3c0.6-0.3,1-1,1-1.7C-594.5,48.9-594.9,48.3-595.5,48"/>
			<path id="aj" class="st0" d="M-563.2,50c-0.2-0.2-0.3-0.2-0.5,0c-0.9,0.9-2.4,0.9-3.3,0c-0.5-0.5-0.7-1.2-0.7-1.8
				c0-0.8,0.4-1.6,1.2-2s1.6-0.4,2.4,0.1c0.2,0.1,0.4,0.5,0.7,0.4s0.4-0.4,0.6-0.6c0.1-0.1,0.1-0.2,0-0.3c-0.7-0.6-1.6-0.9-2.5-0.9
				l0,0c-0.5,0-1,0.1-1.4,0.3c-1.2,0.5-2.1,1.7-2.1,3c-0.2,1.4,0.5,2.7,1.8,3.3c1.2,0.7,2.8,0.6,3.9-0.3
				C-562.7,50.5-562.7,50.5-563.2,50C-563.2,50-563.2,50-563.2,50"/>
			<path id="ak" class="st0" d="M-588.3,50c-1,0.8-2.4,0.7-3.2-0.2c-0.2-0.2-0.3-0.5-0.4-0.7c-0.4-1-0.1-2.1,0.7-2.8
				c0.8-0.6,1.8-0.7,2.7-0.1c0.2,0.1,0.4,0.5,0.6,0.4c0.2-0.1,0.4-0.4,0.6-0.6c0.2-0.2,0.1-0.2,0-0.4c-0.7-0.6-1.5-0.9-2.4-0.9l0,0
				c-0.5,0-1,0.1-1.4,0.3c-1.3,0.5-2.1,1.7-2.1,3.1c-0.1,1.4,0.6,2.7,1.9,3.3c1.2,0.7,2.8,0.5,3.9-0.4c0.5-0.4,0.5-0.4,0.1-0.8
				C-587.8,49.8-588.1,49.8-588.3,50"/>
			<path id="al" class="st0" d="M-647,44.8c-1.5,0-3,0-4.5,0c-0.2,0-0.3,0.1-0.3,0.3c0,1,0,2,0,3.1c0,0.8,0,1.7,0,2.5
				c0,0.3-0.1,0.7,0.1,0.8s0.6,0,0.9,0.1c0.2,0,0.3-0.1,0.3-0.3c0-0.7,0-1.4,0-2.2c0-0.3,0.1-0.4,0.4-0.4c0.8,0,1.5,0,2.3,0
				c0.8,0,0.8,0,0.8-0.8c0-0.2-0.1-0.3-0.3-0.3c-0.9,0-1.8,0-2.8,0c-0.3,0-0.4-0.1-0.4-0.4c0-0.4,0-0.8,0-1.2c0-0.3,0.1-0.4,0.4-0.4
				c0.9,0,1.8,0,2.8,0c0.8,0,0.8,0,0.8-0.8C-646.8,44.8-646.8,44.7-647,44.8"/>
			<path id="am" class="st0" d="M-611.2,44.8c-1.5,0-2.9,0-4.4,0c-0.8,0-0.8,0-0.8,0.8c0,0.2,0.1,0.2,0.3,0.2c0.4,0,0.9,0,1.3,0
				c0.6,0,0.5-0.1,0.5,0.5v4.3c0,0.9,0,0.9,0.9,0.9c0.2,0,0.3-0.1,0.3-0.3c0-0.9,0-1.7,0-2.6l0,0c0-0.8,0-1.7,0-2.5
				c0-0.3,0.1-0.3,0.3-0.3c0.3,0,0.7,0,1,0c0.8,0,0.8,0,0.8-0.8C-610.9,44.8-610.9,44.7-611.2,44.8"/>
			<path id="an" class="st0" d="M-616.5,50.5c-1,0-2,0-2.9,0c-0.3,0-0.4-0.1-0.4-0.3c0-1.5,0-3,0-4.5c0-0.9,0-0.9-0.9-0.9
				c-0.2,0-0.3,0.1-0.3,0.3c0,1,0,2.1,0,3.1l0,0v2.9c0,0.5-0.1,0.5,0.5,0.5h3.6c0.7,0,0.7,0,0.7-0.7
				C-616.2,50.5-616.2,50.5-616.5,50.5"/>
			<path id="ao" class="st0" d="M-584.7,44.8c-0.2-0.2-0.5,0-0.8-0.1c-0.2,0-0.3,0.1-0.3,0.3c0,1.9,0,3.7,0,5.6c0,0.9,0,0.9,0.9,0.9
				c0.2,0,0.3-0.1,0.3-0.3c0-1,0-2.1,0-3.1v-2.5C-584.7,45.3-584.5,45-584.7,44.8"/>
			<path id="ap" class="st0" d="M-550.6,48.5c0,0-0.1-0.1-0.1-0.1c0,0-0.1,0-0.1-0.1c-0.3-0.2-0.7-0.4-1-0.5
				c-0.7-0.1-1.3-0.3-1.9-0.7c-0.5-0.3-0.1-1-0.1-1c0.7-0.8,2.2-0.1,2.2-0.1c0.1,0,0.2,0.1,0.3,0.2l0.1,0.1c0.1,0,0.2,0,0.3,0
				c0.2-0.1,0.3-0.4,0.5-0.6c0.2-0.2,0.1-0.3-0.1-0.4c-0.6-0.4-1.3-0.7-2.1-0.7c-0.1,0-0.2,0-0.3,0c-0.1,0-0.2,0-0.4,0l0,0
				c-0.1,0-0.2,0-0.3,0.1c0,0-0.1,0-0.2,0s-0.1,0-0.2,0.1s-0.1,0-0.1,0.1c0,0-0.1,0-0.2,0.1c-0.5,0.3-0.8,0.8-0.8,1.3l0,0
				c0,0.2,0,0.3,0,0.5c0,0.6,0.4,1.1,1,1.4c0.3,0.1,0.5,0.2,0.8,0.3c0.4,0.1,0.9,0.2,1.4,0.4c0.5,0.2,0.6,0.4,0.6,0.9
				c0,0.4-0.4,0.7-0.8,0.7c-0.7,0.1-1.4,0-2-0.4c-0.2-0.1-0.4-0.5-0.7-0.4c-0.2,0.1-0.3,0.4-0.5,0.6c-0.2,0.2-0.1,0.3,0,0.4
				c0.2,0.2,0.5,0.3,0.7,0.5c1,0.6,2.2,0.6,3.3,0.1c0.7-0.3,1.1-1,1-1.8C-550.2,49.1-550.3,48.7-550.6,48.5"/>
		</g>
	</g>
</g>
</svg>
