<svg xmlns="http://www.w3.org/2000/svg" xmlns:xlink="http://www.w3.org/1999/xlink" width="841.38" height="278.725" viewBox="0 0 841.38 278.725"><defs><clipPath id="a"><rect width="841.379" height="278.724" fill="none"/></clipPath></defs><g clip-path="url(#a)"><path d="M997.62,0c-.02.535-.057,1.07-.057,1.605q-.006,136.634-.007,273.268c0,.976-.043,1.953,0,2.927.034.717-.255.914-.936.924-.718.011-.938-.265-.911-.945.036-.925,0-1.854,0-2.781q0-136.78,0-273.561A2.924,2.924,0,0,0,995.569,0Z" transform="translate(-703.804)" fill="#fd8f05"/><path d="M112.944,50.165q46.871,0,93.743,0c5.426,0,8.86,2.484,10.377,7.671a220.2,220.2,0,0,1,7.26,36.838,234.743,234.743,0,0,1,.385,50.518,217.664,217.664,0,0,1-13.845,57.7,190.172,190.172,0,0,1-34.2,56.71,175.056,175.056,0,0,1-50.139,39.818c-3.063,1.616-6.2,3.09-9.387,4.445a10.311,10.311,0,0,1-8.514-.05,157.19,157.19,0,0,1-28.067-15.947,179.219,179.219,0,0,1-28.878-25.549A185.548,185.548,0,0,1,24.4,223.361,210.775,210.775,0,0,1,4.178,165.443a229.323,229.323,0,0,1-3.97-34.11A237.564,237.564,0,0,1,2.115,90.177,225.943,225.943,0,0,1,8.582,58.542c1.642-5.881,4.965-8.365,11.059-8.366l78.071-.012h15.233m.1,7.543v.006H22.224c-3.672,0-5.76,1.558-6.755,5.034A218.212,218.212,0,0,0,8.337,100.2a223.541,223.541,0,0,0-.274,44.253,209.267,209.267,0,0,0,6.213,34.658,196.29,196.29,0,0,0,17.478,43.923,173.563,173.563,0,0,0,42.331,51.243,153.72,153.72,0,0,0,35.966,22.283,6.667,6.667,0,0,0,5.54.1c2.056-.9,4.109-1.809,6.117-2.808a160.919,160.919,0,0,0,36.642-25.232,174.964,174.964,0,0,0,38.195-50.11,199.862,199.862,0,0,0,15.961-42.79,212.237,212.237,0,0,0,6.19-44.527,222.934,222.934,0,0,0-1.559-34.751,216.982,216.982,0,0,0-6.71-33.66c-1.024-3.562-3.052-5.067-6.712-5.067H113.043" transform="translate(0 -35.463)" fill="#fd8f05"/><path d="M1620.511,128.133c-1.4,2.1-2.8,4.19-4.191,6.294-3.06,4.637-6.149,9.255-9.141,13.935-.79,1.235-1.1,1.009-1.788-.055-4.037-6.21-8.134-12.382-12.225-18.557-.307-.464-.5-1.048-1.214-1.383-.026.585-.067,1.093-.067,1.6,0,9.8-.032,19.609.031,29.412.009,1.34-.391,1.63-1.644,1.584-2.632-.1-5.272-.074-7.906-.01-1.032.025-1.435-.181-1.432-1.341q.06-24.218.005-48.436c0-1.086.391-1.277,1.357-1.261,3.172.052,6.346.057,9.518-.007a1.866,1.866,0,0,1,1.832,1.079q5.986,9.7,12.036,19.364c.2.326.431.636.648.953.617-.236.773-.787,1.045-1.224q5.956-9.551,11.877-19.124a1.854,1.854,0,0,1,1.84-1.045c3.22.062,6.443.053,9.664.006.893-.013,1.277.127,1.275,1.163q-.052,24.364-.006,48.728c0,.916-.276,1.16-1.161,1.145-2.879-.049-5.761-.075-8.638.008-1.14.033-1.361-.359-1.357-1.414.038-9.8.021-19.608.021-29.412v-1.86l-.377-.142" transform="translate(-1117.62 -77.699)" fill="#2b2e81"/><path d="M1429.8,439.906v-1.579c0-9.266.027-18.533-.033-27.8-.008-1.305.341-1.658,1.629-1.61,2.73.1,5.466.06,8.2.013.934-.016,1.25.246,1.248,1.233q-.047,24.288,0,48.576c0,1.1-.4,1.281-1.355,1.256q-3.439-.088-6.88,0a2.228,2.228,0,0,1-2.068-1q-11.041-14.566-22.147-29.081c-.5-.658-1.008-1.312-1.572-2.046-.41.515-.244,1.051-.244,1.531-.012,9.608-.053,19.216.034,28.823.014,1.558-.46,1.846-1.87,1.788-2.679-.111-5.367-.055-8.051-.018-.813.011-1.222-.1-1.22-1.088q.044-24.434.006-48.868c0-.825.239-1.109,1.071-1.1,2.781.038,5.564.047,8.345-.006.9-.017,1.28.512,1.732,1.106q10.974,14.435,21.969,28.854c.288.378.6.739.9,1.107l.312-.094" transform="translate(-986.507 -289.076)" fill="#2b2e81"/><path d="M2074.07,459.891c-4.266,0-8.26-.018-12.253.016-.735.006-1.013-.431-1.342-.922-3.227-4.819-6.477-9.622-9.675-14.46a1.938,1.938,0,0,0-1.893-1.005c-2.145.062-4.3.082-6.44-.007-1.072-.045-1.272.328-1.261,1.316.052,4.535-.009,9.071.046,13.606.013,1.085-.179,1.533-1.4,1.49-2.827-.1-5.661-.059-8.49-.018-.881.013-1.3-.131-1.3-1.176q.049-24.36.014-48.719c0-.741.1-1.181,1.01-1.166,8.536.138,17.084-.336,25.607.241,5.409.366,10.143,2.395,13.3,7.109,4.416,6.589,4.181,20.11-6.92,24.818-1.275.541-1.251.964-.532,1.993,3.545,5.073,7.02,10.194,10.516,15.3.3.436.569.89,1.011,1.585M2041.231,426.3c0,2.146.022,4.293-.013,6.439-.011.672.16.954.884.947,3.953-.043,7.915.1,11.859-.11,3.082-.161,5.72-1.439,6.882-4.579,1.916-5.178-1.438-9.878-7.157-10.016-3.806-.092-7.615,0-11.423-.047-.846-.01-1.073.253-1.052,1.073.054,2.1.018,4.195.02,6.293" transform="translate(-1435.124 -288.99)" fill="#2b2e81"/><path d="M1863.126,434.451c0-8,.025-16-.028-24-.009-1.233.362-1.531,1.562-1.527q17.646.066,35.293,0c1.276-.006,1.684.278,1.617,1.6-.12,2.335-.087,4.683-.008,7.022.036,1.058-.328,1.284-1.325,1.28-8.152-.038-16.3,0-24.456-.05-1.251-.009-1.725.268-1.669,1.6.105,2.483.1,4.977,0,7.461-.049,1.26.4,1.51,1.575,1.5,7.029-.053,14.059.008,21.087-.054,1.247-.011,1.551.359,1.5,1.55-.1,2.289-.092,4.587,0,6.876.048,1.185-.245,1.572-1.505,1.56-6.98-.064-13.961,0-20.941-.06-1.319-.012-1.78.3-1.72,1.68.113,2.58.082,5.171,0,7.754-.036,1.178.375,1.464,1.509,1.458,8.2-.046,16.4.011,24.6-.061,1.386-.012,1.721.4,1.665,1.707-.1,2.386-.06,4.78-.016,7.169.016.831-.253,1.086-1.086,1.085q-18.306-.034-36.611.005c-1.188,0-1.054-.664-1.053-1.408q.007-12.073,0-24.146" transform="translate(-1317.091 -289.081)" fill="#2b2e81"/><path d="M1218.583,131.907l10.941-11.784,8.756-9.433a1.868,1.868,0,0,1,1.476-.774c4.094.037,8.189.018,12.451.018a14.61,14.61,0,0,1-2.812,3.208q-8.227,8.628-16.538,17.175c-.99,1.012-.961,1.631-.13,2.741,6.6,8.818,13.132,17.692,19.681,26.551.256.346.491.709.732,1.059-.336.42-.753.256-1.12.256-3.563.009-7.127-.03-10.69.029a2.324,2.324,0,0,1-2.169-1.1c-4.678-6.482-9.424-12.915-14.092-19.4-.73-1.015-1.164-1.14-2.018-.158-1.279,1.47-2.677,2.839-4.056,4.219a2.672,2.672,0,0,0-.806,2.08c.039,4.292-.032,8.586.05,12.878.024,1.262-.379,1.547-1.566,1.509-2.829-.091-5.662-.071-8.493-.029-.876.013-1.179-.223-1.178-1.139q.036-24.366,0-48.733c0-.873.214-1.182,1.14-1.163,2.928.058,5.859.062,8.786-.006,1.034-.024,1.309.292,1.3,1.311-.044,6.341-.021,12.683-.02,19.025v1.55l.372.114" transform="translate(-853.274 -77.696)" fill="#2b2e81"/><path d="M1237.554,425.315c0-5.025.025-10.051-.021-15.075-.009-1.012.274-1.357,1.313-1.336,2.928.06,5.859.04,8.787,0,.812-.011,1.135.236,1.123,1.078-.151,10.582.348,21.173-.258,31.745-.619,10.818-8.53,18.365-19.384,18.9-4.836.237-9.583-.023-14.008-2.145-6.313-3.028-9.353-8.393-10.446-15.087a35.082,35.082,0,0,1-.36-5.681c0-9.074.033-18.149-.031-27.224-.009-1.33.376-1.639,1.635-1.593,2.633.1,5.276.121,7.906-.01,1.433-.072,1.656.456,1.649,1.729-.049,9.221-.078,18.442,0,27.662.032,3.791.791,7.457,4.035,9.93,3.77,2.875,8.022,2.935,12.2,1.184,3.92-1.644,5.565-5.122,5.722-9.154.193-4.967.046-9.948.046-14.923h.093" transform="translate(-851.342 -289.052)" fill="#2b2e81"/><path d="M1838.822,126.01c0,4.39.017,8.78,0,13.17a27.591,27.591,0,0,1-2.2,11.244,17.851,17.851,0,0,1-12.189,10.3,29.444,29.444,0,0,1-15.9,0c-7.8-2.186-12.126-7.575-13.62-15.384a35.51,35.51,0,0,1-.594-6.834c.036-8.975.054-17.95-.026-26.925-.013-1.471.42-1.773,1.785-1.715,2.631.112,5.273.1,7.9,0,1.267-.05,1.507.391,1.5,1.561-.047,8.975-.029,17.95-.023,26.925a21.376,21.376,0,0,0,.541,4.926c1.557,6.562,6.729,8.892,12.478,8.03,6.072-.91,9.166-5.026,9.183-11.735.023-9.365.033-18.731-.025-28.1-.008-1.289.306-1.665,1.612-1.613,2.729.109,5.467.082,8.2.007,1.066-.029,1.42.215,1.4,1.352-.067,4.926-.029,9.853-.028,14.779" transform="translate(-1268.449 -77.668)" fill="#2b2e81"/><path d="M2159.26,126.151c0-4.975.027-9.951-.021-14.925-.01-1,.235-1.351,1.29-1.325,2.878.071,5.76.077,8.638,0,1.105-.031,1.251.4,1.248,1.351-.03,9.218-.048,18.437,0,27.656.017,3.363.535,6.672,2.925,9.259,3.425,3.708,7.771,3.991,12.278,2.689,4.194-1.212,6.039-4.51,6.731-8.566a20.273,20.273,0,0,0,.239-3.349c.018-9.17.034-18.34-.017-27.51-.007-1.213.319-1.568,1.536-1.529,2.828.091,5.661.063,8.491.008.9-.018,1.159.249,1.156,1.152-.042,9.853.073,19.707-.095,29.557-.1,5.9-1.751,11.353-6.162,15.624a20.125,20.125,0,0,1-12.24,5.3c-5.256.583-10.444.246-15.292-2.1-5.919-2.869-8.951-7.876-10.148-14.156a39.005,39.005,0,0,1-.556-7.423c.009-3.9,0-7.8,0-11.706" transform="translate(-1526.444 -77.688)" fill="#2b2e81"/><path d="M2007.926,119.775h-2.784c-7.662,0-15.323-.019-22.985.023-1.055.006-1.457-.215-1.412-1.36.094-2.386.069-4.779.011-7.167-.023-.96.168-1.358,1.257-1.355q19.618.055,39.236.006c.894,0,1.281.249,1.15,1.15a2.221,2.221,0,0,0,0,.292c-.027,2.387.536,4.994-.249,7.1s-2.906,3.718-4.463,5.529q-11.063,12.863-22.132,25.722a2.874,2.874,0,0,0-.923,1.472h1.581c8.247,0,16.495.022,24.742-.023,1.125-.006,1.523.244,1.474,1.435-.1,2.386-.059,4.778-.014,7.167.016.849-.176,1.2-1.122,1.195q-20.13-.044-40.26-.006c-.886,0-1.24-.246-1.156-1.154a8.591,8.591,0,0,0-.005-2.19c-.622-3.683.927-6.356,3.347-9.073,8.073-9.063,15.9-18.348,23.811-27.551.247-.287.454-.608.9-1.21" transform="translate(-1399.544 -77.704)" fill="#2b2e81"/><path d="M1423.785,160.11c-3.795,0-7.444,0-11.094,0-.677,0-.724-.549-.9-.976-1.259-3.06-2.546-6.111-3.738-9.2a1.644,1.644,0,0,0-1.8-1.259q-9.589.064-19.179,0a1.57,1.57,0,0,0-1.711,1.174c-1.206,3.08-2.509,6.123-3.715,9.2a1.444,1.444,0,0,1-1.6,1.083q-4.464-.084-8.93-.008c-1.012.015-1.258-.147-.812-1.189q8.876-20.729,17.682-41.489c1.086-2.551,2.2-5.088,3.244-7.658a1.342,1.342,0,0,1,1.473-1.037c2.732.057,5.467.063,8.2,0a1.448,1.448,0,0,1,1.574,1.1q6.831,16.128,13.713,32.236,3.516,8.26,7.022,16.524c.186.439.347.888.583,1.5m-26.991-37.66c-.224.247-.359.337-.41.462-2.05,4.98-4.077,9.969-6.146,14.942-.412.99.064,1.049.835,1.046,3.749-.015,7.5-.029,11.248.011,1.057.011,1.127-.35.759-1.207-.9-2.1-1.738-4.219-2.606-6.329-1.212-2.945-2.428-5.889-3.68-8.923" transform="translate(-968.561 -76.883)" fill="#2b2e81"/><path d="M2220.579,458.922a32.751,32.751,0,0,1-20.54-7.252c-.894-.715-.867-1.144-.155-1.944,1.588-1.782,3.14-3.606,4.589-5.5.806-1.055,1.37-1.24,2.493-.337a22.73,22.73,0,0,0,10.472,4.9,14.954,14.954,0,0,0,7.238-.245c2-.647,3.443-1.835,3.648-4.083.182-1.992-.77-3.41-3.037-4.505-3.092-1.494-6.456-2.142-9.73-3.064a41.954,41.954,0,0,1-7.119-2.6c-4.808-2.35-7.151-6.211-7.364-11.518-.344-8.586,5.109-14.566,13.572-15.936a29.086,29.086,0,0,1,22.185,5.244c.931.662.924,1.094.295,1.948q-2.251,3.058-4.316,6.252c-.555.861-.945.939-1.8.37-3.531-2.336-7.27-4.17-11.629-4.3a9.564,9.564,0,0,0-4.575.7,4.137,4.137,0,0,0-2.632,3.717,4.07,4.07,0,0,0,2.358,4.033c3,1.6,6.324,2.206,9.552,3.107a38.093,38.093,0,0,1,8.434,3.226c5.235,2.92,7.587,8.054,6.816,14.018-1.07,8.287-7.226,12.321-14.086,13.417a28.575,28.575,0,0,1-4.664.352" transform="translate(-1554.806 -287.319)" fill="#2b2e81"/><path d="M1687.462,444.646a17.063,17.063,0,0,0,1.617-3.854q5.7-15.242,11.325-30.516a1.65,1.65,0,0,1,1.857-1.334q4.61.108,9.225,0c1.171-.025,1.424.2.952,1.358q-7.456,18.4-14.831,36.829c-1.634,4.064-3.294,8.118-4.873,12.2a1.425,1.425,0,0,1-1.635,1.023c-2.489-.043-4.98-.062-7.468.006a1.514,1.514,0,0,1-1.683-1.175q-8.142-20.406-16.353-40.785c-1.107-2.755-2.2-5.513-3.358-8.248-.406-.963-.22-1.226.839-1.207,3.221.057,6.444.062,9.665-.006a1.667,1.667,0,0,1,1.891,1.31q6.117,16.643,12.332,33.249c.131.352.3.69.5,1.144" transform="translate(-1174.957 -289.095)" fill="#2b2e81"/><path d="M2623.293,429.175q3.36-5.54,6.727-11.092,2.5-4.125,4.993-8.251c.246-.405.421-.93,1.022-.931,3.981-.007,7.962,0,12.219,0-1.972,3.094-3.793,5.955-5.619,8.812q-6.727,10.527-13.468,21.045a3.579,3.579,0,0,0-.563,2.056c.02,5.852-.04,11.705.049,17.556.02,1.357-.4,1.617-1.641,1.575-2.729-.093-5.466-.076-8.2-.006-1.034.026-1.314-.285-1.305-1.309.047-5.754,0-11.509.042-17.264a5,5,0,0,0-.838-2.864q-8.965-14.048-17.876-28.13c-.25-.4-.8-.808-.576-1.258.238-.484.883-.217,1.347-.219,3.27-.016,6.541.042,9.809-.04a2.257,2.257,0,0,1,2.306,1.292c3.487,5.97,7.039,11.9,10.577,17.841a2.452,2.452,0,0,0,.993,1.19" transform="translate(-1836.769 -289.01)" fill="#2b2e81"/><path d="M2462.058,408.952c6.542,0,13.085.033,19.626-.03,1.257-.012,1.56.387,1.518,1.573-.086,2.436-.077,4.88,0,7.317.033,1.077-.256,1.424-1.377,1.406-4.149-.067-8.3.032-12.449-.061-1.385-.031-1.806.3-1.8,1.752.061,12.441,0,24.882.077,37.323.01,1.557-.459,1.845-1.867,1.784-2.583-.112-5.176-.1-7.76,0-1.231.046-1.537-.325-1.532-1.539.044-12.441.026-24.882.025-37.323,0-1.956,0-1.957-1.977-1.959-4.052,0-8.1-.04-12.156.017-1.1.015-1.543-.212-1.494-1.427.1-2.484.088-4.977,0-7.463-.037-1.1.287-1.4,1.388-1.391,6.591.051,13.182.025,19.773.025" transform="translate(-1725.553 -289.081)" fill="#2b2e81"/><path d="M2371.227,434.463c0-8.043.021-16.085-.026-24.128-.006-1.089.267-1.426,1.376-1.4,2.876.076,5.756.055,8.633.006.929-.016,1.272.228,1.271,1.221q-.042,24.347,0,48.694c0,.9-.262,1.171-1.16,1.155-2.828-.052-5.66-.085-8.486.009-1.251.042-1.652-.239-1.64-1.579.071-7.993.035-15.987.035-23.981" transform="translate(-1676.282 -289.092)" fill="#2b2e81"/><path d="M1594.191,434.438c0-8,.028-16-.029-23.993-.009-1.235.344-1.561,1.549-1.522,2.779.089,5.563.057,8.344.012.913-.015,1.264.2,1.262,1.212q-.051,24.359-.006,48.718c0,.93-.3,1.151-1.176,1.135-2.781-.049-5.566-.085-8.344.012-1.256.044-1.647-.244-1.635-1.581.071-8,.035-16,.036-23.993" transform="translate(-1126.966 -289.08)" fill="#2b2e81"/><path d="M2480.784,710.573c0,6.611-.035,13.043.03,19.474.013,1.251-.237,1.666-1.581,1.628-3.532-.1-3.536-.025-3.534-3.62,0-8.293.033-16.587-.008-24.88-.006-1.152.223-1.49,1.478-1.62,2.47-.256,3.968.663,5.422,2.648,4.092,5.583,8.432,10.983,12.677,16.455.347.446.7.883,1.1,1.375.467-.585.274-1.136.276-1.636.016-5.805.041-11.611-.02-17.416-.012-1.121.327-1.388,1.4-1.386,3.82.009,3.819-.028,3.819,3.751,0,8.245-.023,16.49.025,24.734.006,1.15-.215,1.518-1.475,1.618a4.808,4.808,0,0,1-4.721-2.261c-4.392-5.908-8.977-11.673-13.5-17.481a3.6,3.6,0,0,0-1.379-1.382" transform="translate(-1750.156 -495.925)" fill="#2b2e81"/><path d="M1220.2,700.216c8.946.022,15.609,6.643,15.584,15.487a15.4,15.4,0,0,1-15.774,15.557,15.217,15.217,0,0,1-15.635-15.611c.005-8.826,6.8-15.455,15.825-15.433m-.269,26.2c5.73.2,10.2-4.3,10.408-10.484a10.566,10.566,0,0,0-9.982-11.02c-5.744-.21-10.294,4.28-10.532,10.392a10.353,10.353,0,0,0,10.106,11.112" transform="translate(-851.419 -495.008)" fill="#2b2e81"/><path d="M1585.8,716.807c0-4.534.03-9.069-.022-13.6-.012-1.047.207-1.434,1.356-1.424,6.586.057,13.173.048,19.759.008.992-.006,1.331.223,1.325,1.277-.02,3.4.027,3.393-3.438,3.392-4.147,0-8.295.025-12.441-.017-.937-.01-1.294.248-1.26,1.222.064,1.85.069,3.707,0,5.557-.037,1.006.375,1.213,1.286,1.2,4.1-.039,8.2.015,12.295-.038,1.077-.014,1.535.176,1.508,1.41-.068,3.141,0,3.143-3.11,3.144-3.513,0-7.027.052-10.538-.026-1.2-.027-1.5.382-1.447,1.5.083,1.849.065,3.706,0,5.557-.033.952.278,1.242,1.235,1.233,4.878-.043,9.758.011,14.636-.045,1.063-.012,1.432.224,1.421,1.358-.034,3.3.02,3.3-3.253,3.3-5.952,0-11.9-.027-17.857.024-1.118.01-1.506-.251-1.487-1.44.071-4.533.029-9.068.029-13.6" transform="translate(-1121.042 -496.114)" fill="#2b2e81"/><path d="M2700.12,716.855c0-4.585.032-9.171-.023-13.756-.013-1.045.321-1.3,1.325-1.3q9.812.06,19.623,0c1.034-.007,1.3.293,1.3,1.308-.022,3.365.02,3.365-3.326,3.365-4.1,0-8.2.045-12.3-.031-1.186-.022-1.5.355-1.437,1.48a49.459,49.459,0,0,1,0,5.12c-.056,1.082.253,1.428,1.374,1.41,4.148-.067,8.3.005,12.447-.056,1.091-.016,1.417.287,1.4,1.394-.042,3.165.01,3.165-3.118,3.165-3.612,0-7.225.026-10.836-.015-.913-.01-1.308.192-1.267,1.206.079,1.948.075,3.9,0,5.852-.037.975.291,1.233,1.233,1.225,4.881-.04,9.763.012,14.644-.044,1.107-.013,1.51.217,1.481,1.424-.077,3.232-.014,3.234-3.3,3.235-5.956,0-11.911-.028-17.866.029-1.117.011-1.392-.318-1.378-1.4.059-4.536.025-9.073.025-13.61" transform="translate(-1908.795 -496.126)" fill="#2b2e81"/><path d="M2377.109,716.824c0-4.586.023-9.173-.021-13.759-.009-.937.232-1.258,1.21-1.253,6.64.038,13.281.028,19.921.007.769,0,1.107.155,1.135,1.037.115,3.622.148,3.622-3.5,3.623-4.1,0-8.2.025-12.3-.018-.928-.01-1.3.215-1.264,1.21.072,1.851.073,3.71,0,5.561-.042,1.01.366,1.223,1.276,1.215,4.1-.036,8.2.014,12.3-.039,1.085-.014,1.538.2,1.514,1.425-.062,3.13,0,3.131-3.146,3.131-3.564,0-7.129.029-10.693-.016-.944-.012-1.291.254-1.255,1.236.07,1.949.08,3.905,0,5.853-.042,1.027.378,1.2,1.277,1.193,4.882-.035,9.765.024,14.647-.049,1.192-.018,1.454.353,1.435,1.475-.052,3.188,0,3.189-3.205,3.189-5.957,0-11.914-.025-17.87.025-1.111.009-1.5-.234-1.483-1.434.076-4.536.031-9.075.03-13.612" transform="translate(-1680.443 -496.137)" fill="#2b2e81"/><path d="M1997,716.826c0,4.536-.027,9.072.019,13.607.01.958-.258,1.233-1.229,1.24-3.974.025-3.973.06-3.973-3.891,0-2.536-.026-5.073.011-7.608.012-.812-.1-1.215-1.089-1.2-4.1.058-8.2.047-12.3.007-.831-.008-1.077.229-1.067,1.061.043,3.462-.011,6.926.039,10.388.014.945-.241,1.318-1.224,1.236a19.015,19.015,0,0,0-2.926,0c-.934.067-1.141-.323-1.138-1.187q.038-13.827,0-27.653c0-.848.165-1.272,1.121-1.2,1.307.095,2.986-.392,3.834.253.906.689.27,2.449.3,3.737.056,2.437.041,4.877,0,7.315-.014.815.1,1.223,1.087,1.209,4.1-.057,8.2-.045,12.3-.01.839.007,1.081-.272,1.071-1.091-.038-3.365.02-6.731-.037-10.1-.017-1,.238-1.33,1.286-1.331,3.917,0,3.917-.044,3.917,3.806q0,5.706,0,11.412" transform="translate(-1394.163 -495.938)" fill="#2b2e81"/><path d="M1474.235,716.437c0-4.534.027-9.068-.021-13.6-.011-1.005.253-1.424,1.3-1.318,1.254.127,2.861-.5,3.687.247.842.758.255,2.384.278,3.627.046,2.534.035,5.07,0,7.6-.01.736.18,1.033.976,1.027q6.22-.05,12.44,0c.873.008,1.051-.347,1.043-1.128-.032-3.363.026-6.728-.038-10.091-.02-1.048.323-1.381,1.328-1.284,1.254.122,2.893-.511,3.675.262s.232,2.4.235,3.657c.019,8.239-.009,16.478.033,24.716.005,1.046-.194,1.43-1.342,1.423-3.9-.023-3.9.026-3.9-3.818,0-2.535-.027-5.071.018-7.605.015-.875-.117-1.3-1.167-1.281q-6.072.1-12.147,0c-1.053-.017-1.165.408-1.155,1.278.04,3.363-.02,6.728.039,10.091.018,1.008-.254,1.33-1.294,1.335-3.984.022-3.985.059-3.986-3.878q0-5.63,0-11.261" transform="translate(-1042.175 -495.838)" fill="#2b2e81"/><path d="M1707.45,731.357c-1.5,0-3.006-.029-4.512.013-.7.02-.906-.4-1.121-.919-.742-1.8-1.536-3.58-2.243-5.393a1.391,1.391,0,0,0-1.511-1.037c-4.051.037-8.1.045-12.153,0a1.392,1.392,0,0,0-1.48,1.064c-.736,1.8-1.559,3.57-2.272,5.381a1.241,1.241,0,0,1-1.421.908,26.49,26.49,0,0,0-3.073,0c-1.028.064-1.162-.266-.765-1.16,1.7-3.824,3.352-7.67,5.031-11.5,2.381-5.44,4.789-10.868,7.14-16.321a1.664,1.664,0,0,1,1.786-1.264c3.634.048,3.631,0,5.1,3.353q5.587,12.773,11.18,25.544a2.054,2.054,0,0,1,.317,1.339m-15.476-24.023c-1.725,4.011-3.318,7.705-4.9,11.4-.349.814.266.771.75.773,2.776.011,5.553,0,8.33.017.767.005,1.107-.147.685-.991-.455-.91-.8-1.877-1.2-2.812-1.173-2.7-2.355-5.4-3.66-8.39" transform="translate(-1185.315 -495.647)" fill="#2b2e81"/><path d="M2804.373,700.281a17,17,0,0,1,9.306,3.026c.766.528.968.93.317,1.7-.721.854-1.147,2.2-2.034,2.606-.974.444-1.862-.883-2.841-1.337-2.452-1.137-4.949-1.815-7.631-1.024a3.423,3.423,0,0,0-2.748,3.052c-.158,1.617.522,2.656,2.278,3.523,2.119,1.046,4.475,1.322,6.693,2.046a27.036,27.036,0,0,1,3.271,1.247,7.222,7.222,0,0,1,4.56,6.873c.031,3.5-1.317,6.23-4.461,7.771-4.93,2.416-9.857,1.7-14.647-.546a28.113,28.113,0,0,1-3.21-2.024c-.665-.431-.971-.856-.236-1.582.83-.818,1.381-2.213,2.333-2.535,1.023-.346,1.879,1.08,2.871,1.636a12.18,12.18,0,0,0,8.691,1.672c2.05-.43,3.294-1.652,3.419-3.289.146-1.9-.58-2.918-2.7-3.826-1.939-.829-4.031-1.122-6.024-1.756a27.39,27.39,0,0,1-3.568-1.281,7.044,7.044,0,0,1-4.426-6.05c-.27-3.445.806-6.253,3.784-8.154a12.359,12.359,0,0,1,7.006-1.747" transform="translate(-1974.165 -495.054)" fill="#2b2e81"/><path d="M2133.31,700.1a17.947,17.947,0,0,1,10.435,3.223c.609.441.738.746.246,1.359-.731.911-1.188,2.264-2.115,2.738-1.045.535-1.925-.878-2.936-1.326-2.418-1.071-4.868-1.76-7.5-1.013a3.4,3.4,0,0,0-2.8,2.992c-.18,1.77.431,2.742,2.3,3.642a39.317,39.317,0,0,0,6.421,1.94,20.1,20.1,0,0,1,3.812,1.459,7.2,7.2,0,0,1,4.251,6.779c.009,3.354-1.213,6.092-4.24,7.6-5.558,2.776-10.991,1.8-16.172-1.145-3.045-1.731-2.937-1.775-.84-4.469.836-1.075,1.335-1.212,2.476-.328a12,12,0,0,0,10.263,2.65,3.724,3.724,0,0,0,3.276-3.86c-.028-1.617-1.037-2.438-2.332-3.055a44.207,44.207,0,0,0-6.139-1.851c-.835-.259-1.687-.471-2.5-.784-4.463-1.722-6.062-4.125-5.8-8.657.2-3.474,3.069-6.548,7.012-7.462a9.665,9.665,0,0,1,2.893-.435" transform="translate(-1500.575 -494.908)" fill="#2b2e81"/><path d="M2602.685,700.164a15.68,15.68,0,0,1,11.009,3.9c.613.527.706.867.1,1.474-.9.891-1.531,2.338-2.572,2.7s-1.884-1.185-2.911-1.76c-3.441-1.927-6.961-2.314-10.434-.315-3.434,1.978-5,5.112-5.174,9.081-.228,5.058,2.768,9.348,6.865,10.626a10.468,10.468,0,0,0,10.6-2.406c1.009-.9,1.585-.767,2.268.195a2.683,2.683,0,0,0,.3.323c2.071,2.091,2.117,2.153-.327,3.952-5.42,3.988-11.311,4.485-17.2,1.436-5.876-3.04-8.343-8.325-7.933-14.806a14.613,14.613,0,0,1,9.282-13.255,13.277,13.277,0,0,1,6.137-1.143" transform="translate(-1829.001 -494.953)" fill="#2b2e81"/><path d="M2233.085,700.171a15.556,15.556,0,0,1,10.812,3.789c.73.619.789,1.04.1,1.716-.864.853-1.486,2.259-2.486,2.582s-1.844-1.149-2.825-1.741a10.194,10.194,0,0,0-11.9.58c-3.433,2.79-4.75,8.082-3.124,12.544,2.476,6.793,10.3,8.885,16.228,4.34,1.794-1.376,1.794-1.376,3.35.173,1.855,1.847,1.9,1.906-.261,3.576a15.38,15.38,0,0,1-17.163,1.779c-5.917-2.885-8.5-8.056-8.252-14.473.243-6.381,3.33-11.093,9.287-13.712a13.389,13.389,0,0,1,6.229-1.153" transform="translate(-1567.669 -494.958)" fill="#2b2e81"/><path d="M1333.1,716.716c0-4.537.03-9.076-.025-13.612-.012-1.024.277-1.315,1.3-1.308q9.96.066,19.92,0c1.014-.006,1.321.261,1.315,1.3-.02,3.466.023,3.466-3.371,3.466-4.1,0-8.2.061-12.3-.035-1.345-.031-1.668.4-1.59,1.655a45.349,45.349,0,0,1,.006,5.12c-.06,1.183.274,1.609,1.532,1.585,4.1-.078,8.2.011,12.3-.057,1.1-.018,1.406.289,1.393,1.386-.042,3.321.006,3.323-3.375,3.325-3.418,0-6.837.067-10.252-.03-1.345-.038-1.637.426-1.605,1.671.082,3.169,0,6.342.047,9.513.013.9-.263,1.22-1.166,1.157-1.308-.09-3,.4-3.831-.251-.885-.7-.265-2.465-.281-3.761-.045-3.708-.016-7.416-.016-11.124" transform="translate(-942.29 -496.125)" fill="#2b2e81"/><path d="M1884.255,719.191c0,3.8-.027,7.61.019,11.415.011.929-.214,1.251-1.205,1.262-4.083.046-4.084.081-4.084-3.94,0-6.342.01-12.683-.005-19.025-.006-2.679.285-2.269-2.367-2.295-2-.02-4-.04-6,.007-.833.019-1.2-.141-1.224-1.1-.079-3.687-.116-3.687,3.615-3.687,6.493,0,12.985.021,19.478-.022,1-.007,1.335.233,1.335,1.284,0,3.514.043,3.514-3.487,3.514-1.513,0-3.032.077-4.538-.025-1.184-.081-1.6.223-1.565,1.491.09,3.705.032,7.414.032,11.121" transform="translate(-1321.522 -496.132)" fill="#2b2e81"/><path d="M1800.352,716.8c0-4.583.018-9.166-.016-13.748-.007-.878.139-1.279,1.166-1.3,4.069-.067,4.069-.106,4.069,3.937,0,6.631.027,13.261-.027,19.891-.01,1.2.3,1.584,1.539,1.563,4.341-.072,8.684.013,13.025-.055,1.134-.018,1.382.346,1.37,1.413-.038,3.289.006,3.29-3.262,3.291-5.269,0-10.538.01-15.807,0-2.491,0-2.04.157-2.051-1.979-.021-4.339-.006-8.678-.006-13.017" transform="translate(-1272.72 -496.085)" fill="#2b2e81"/><path d="M2336.493,716.6c0,4.581-.024,9.163.019,13.744.009.943-.248,1.238-1.222,1.245-4.053.028-4.054.061-4.055-3.964,0-8.237.021-16.474-.028-24.711-.007-1.106.3-1.492,1.389-1.378,1.251.131,2.866-.508,3.673.273.745.721.206,2.321.214,3.532.026,3.753.01,7.506.009,11.259" transform="translate(-1648.015 -495.856)" fill="#2b2e81"/><path d="M143.649,323.343a111.176,111.176,0,0,1-12.273-6.236c-28.328-16.581-49.391-39.91-64.2-69.049A191.928,191.928,0,0,1,50.56,200.424,209.948,209.948,0,0,1,46.3,164.648a218.585,218.585,0,0,1,.764-27.459A207.442,207.442,0,0,1,53.98,98.916a1.586,1.586,0,0,1,1.871-1.4q20.725.06,41.45.025,22.336-.013,44.671-.076c1.317-.006,1.715.3,1.714,1.678q-.057,111.236-.037,222.472v1.732M85.947,170c.662-.624,1.311-1.263,1.991-1.866a1.734,1.734,0,0,1,1.435-.577c3.9.525,6.754-1.409,9.181-4.1a3.009,3.009,0,0,1,2.359-1.125,34.077,34.077,0,0,1,8.555.9c3.429.79,6.251,2.426,7.75,5.814a5.489,5.489,0,0,1-1.206,6.677,16.443,16.443,0,0,1-4.388,3.124,1.608,1.608,0,0,0-1.009,1.588c-.037,1.949-.029,3.906-.23,5.84-.121,1.163.27,1.405,1.252,1.168,4.172-1.009,7.954-2.841,10.68-6.19,3.475-4.268,3.482-9.25,2.1-14.292-1.131-4.129-3.394-7.43-7.546-9.086a36.918,36.918,0,0,0-15.823-2.882,9.417,9.417,0,0,1-2.466-.016,11.507,11.507,0,0,0-12.262,5.43c-1.406,2.367-1.459,4.669,1.134,6.33.164.1.278.262.212.408-.807.859-2.085.411-3.114,1.334,1.123.071,1.683.433,1.393,1.523m13.21,16.925c0-1.337-.037-2.458.011-3.577.042-.974-.308-1.035-1.125-.709a26.415,26.415,0,0,0-7.4,4.617c-8.191,7.031-5.511,21.311,4.909,24.368,3.736,1.1,7.472,2.166,11.266,3.033a7.845,7.845,0,0,1,4.043,1.913c2.827,2.895,3.989,6.395-.45,8.3-2.633,1.132-3.048,2.864-3.056,5.281-.011,3.434-.082,3.465,3.072,1.952,2.144-1.028,4.479-1.831,6.088-3.676,3.855-4.419,3.543-12.96-.668-17.087a18.453,18.453,0,0,0-11.207-5.15,15.212,15.212,0,0,1-8.3-3.209c-3.962-3.227-4.092-6.294-.3-9.708a1.814,1.814,0,0,1,.336-.28c2.575-1.357,3.849-3.31,2.791-6.07m1.664-1.534h.23c0,.292-.005.583,0,.875.117,5.6.255,11.2.334,16.8.014.964.244,1.39,1.3,1.422a21.837,21.837,0,0,1,3.612.5c.982.2,1.359.027,1.389-1.1.131-4.916.352-9.831.571-14.744q.512-11.525,1.077-23.048c.042-.837-.194-1.21-1.046-1.351-2.169-.359-4.357-.454-6.541-.621-.971-.074-1.247.3-1.2,1.261q.215,4.813.271,9.633c.044,3.458.01,6.917.01,10.376m-3.251-46.177a6.842,6.842,0,0,0,1.187,4.766c1.524,1.843,1.483,3.9,1.476,6.026,0,.682.056,1.365.037,2.046-.02.7.27.925.962.9a42.758,42.758,0,0,1,7.578.5c.773.113,1.085-.17,1.089-.923.008-1.365.04-2.729.063-4.094a5.627,5.627,0,0,1,1.1-3.481,9.925,9.925,0,0,0-.96-12.728,6.508,6.508,0,0,0-5.854-1.983c-4.035.706-6.679,4.251-6.68,8.968m4.153,94.638h.517c0,2.58-.024,5.16.006,7.74.038,3.313.126,6.624.178,9.936.015.962.107,1.7,1.43,1.578,1-.1,1.748.086,1.8-1.434.387-10.8.91-21.6,1.35-32.4.115-2.831.052-2.834-2.758-3.553-.235-.06-.469-.128-.706-.183-1.983-.459-1.819-.641-1.819,1.367q0,8.475,0,16.949m-.844-.328c0-.816.021-1.3-.006-1.79-.024-.424.217-1-.165-1.236-.5-.306-.892.249-1.258.516a34.175,34.175,0,0,0-7.882,7.968,19.237,19.237,0,0,0-3.209,6.984c-.179.823-.525,1.864.447,2.381,1.035.55,1.868-.161,2.542-.9a6.737,6.737,0,0,0,1.428-2.851,11.4,11.4,0,0,1,5.957-7.4c1.694-.884,2.768-1.951,2.148-3.676" transform="translate(-32.633 -68.899)" fill="#2b2e81"/><path d="M439.469,188.379c-15.331,0-30.662-.019-45.993.034-1.378,0-1.663-.4-1.661-1.7q.056-43.619.033-87.238c0-2.123-.283-1.917,1.987-1.916q42.843.017,85.687.016c1.233,0,1.764.33,2.1,1.555a222.351,222.351,0,0,1,7.644,65.236,205.475,205.475,0,0,1-1.989,23c-.18,1.252-.928,1.007-1.665,1.007q-23.07.007-46.14,0m-3.491-30.1-.179-.349h-3.65c-3.456,0-3.437-.008-4.473-3.28a16.969,16.969,0,0,0-1.4-3.762c-.706,2.121-1.411,3.936-1.893,5.809-.27,1.049-.775,1.277-1.741,1.247-1.925-.059-3.854-.017-6.139-.017a26.743,26.743,0,0,0,4.519,3.445,2,2,0,0,1,.933,2.852,24.268,24.268,0,0,0-1.585,5.405c1.793-1.3,3.338-2.312,4.751-3.483a1.649,1.649,0,0,1,2.487.015c1.433,1.169,2.986,2.192,4.488,3.277l.3-.257c-.539-1.647-1.012-3.318-1.636-4.932a1.99,1.99,0,0,1,.9-2.865c1.514-.911,2.884-2.06,4.316-3.106m7.352,10.92.246.294c1.607-1.161,3.247-2.279,4.806-3.5a1.386,1.386,0,0,1,2.017-.017c1.558,1.217,3.186,2.343,4.836,3.543.074-.264.142-.369.118-.446q-.657-2.159-1.335-4.312c-.73-2.306-.727-2.3,1.3-3.758,1.264-.911,2.508-1.85,3.76-2.776a36.117,36.117,0,0,0-6.168-.282A1.292,1.292,0,0,1,451.4,156.8c-.547-1.939-1.236-3.837-1.868-5.753a22.664,22.664,0,0,0-1.827,4.868c-.373,1.583-1.1,2.237-2.8,2.047a45.562,45.562,0,0,0-5.032-.04,23.1,23.1,0,0,0,4.444,3.63,1.72,1.72,0,0,1,.773,2.414c-.622,1.729-1.174,3.484-1.756,5.228m-5.091-52.049-.347.011c-.547,1.654-1.175,3.288-1.612,4.971a1.535,1.535,0,0,1-1.859,1.316c-1.764-.073-3.534-.02-5.3-.02l-.1.379a46.3,46.3,0,0,0,3.97,2.857c1.307.758,1.361,1.6.892,2.875a22.988,22.988,0,0,0-1.446,4.947c1.644-1.192,3.064-2.128,4.372-3.2a1.668,1.668,0,0,1,2.5-.027c1.326,1.1,2.78,2.038,4.18,3.046a26.992,26.992,0,0,0-1.417-5.416,1.365,1.365,0,0,1,.674-1.906c1.5-1.005,2.929-2.122,4.387-3.192l-.152-.366c-1.782,0-3.566-.059-5.344.023a1.447,1.447,0,0,1-1.755-1.23c-.465-1.712-1.087-3.381-1.643-5.069m-24.131,29.836.265.182c1.488-1.071,3.015-2.094,4.449-3.233a1.326,1.326,0,0,1,1.986,0c1.438,1.146,2.987,2.153,4.489,3.218a30.96,30.96,0,0,0-1.5-5.462,1.239,1.239,0,0,1,.55-1.764c1.544-1.027,3.005-2.178,4.5-3.279a16.514,16.514,0,0,0-4.918-.294c-1.548.169-2.152-.489-2.5-1.86-.395-1.545-.965-3.046-1.459-4.567a22.934,22.934,0,0,0-1.934,5.03c-.283,1.18-.878,1.425-1.954,1.379-1.712-.073-3.43-.02-5.146-.02l-.07.394c1.4,1.026,2.767,2.117,4.229,3.054a1.553,1.553,0,0,1,.7,2.165c-.609,1.668-1.127,3.369-1.682,5.056m41.234-17.022-.313-.028c-.564,1.694-1.2,3.368-1.665,5.09a1.539,1.539,0,0,1-1.861,1.314c-1.721-.079-3.449-.021-5.174-.021l-.1.386c1.4,1.022,2.768,2.086,4.206,3.048a1.5,1.5,0,0,1,.725,2.1,26.756,26.756,0,0,0-1.617,5.441c1.752-1.252,3.326-2.31,4.817-3.474a1.1,1.1,0,0,1,1.625-.025c1.522,1.173,3.11,2.259,4.672,3.379a19.73,19.73,0,0,0-1.263-4.719,2.079,2.079,0,0,1,.986-3.051,19.463,19.463,0,0,0,4.024-3.09c-2.21,0-4-.036-5.791.016a1.3,1.3,0,0,1-1.55-1.108c-.49-1.777-1.141-3.51-1.725-5.261" transform="translate(-276.988 -68.964)" fill="#2b2e81"/><path d="M391.822,551.638c0-.671,0-1.152,0-1.634q0-63.885-.039-127.77c0-1.524.415-1.806,1.854-1.8q45.329.066,90.659.033c2.192,0,2.172,0,1.8,2.151A191.326,191.326,0,0,1,475.287,460.9c-13.38,33.523-34.485,60.86-64.891,80.718A137.3,137.3,0,0,1,393,551.2c-.3.14-.628.234-1.183.437m22.511-56.572c-1.307-1.54-2.7-1.892-3.86-1.041-1.216.893-1.326,2.238-.32,3.91a7.943,7.943,0,0,0,8.447,3.592,3.579,3.579,0,0,0,2.863-2.343,110.946,110.946,0,0,1,12.125-23.414c.538-.788.846-1.4.024-2.254a3.2,3.2,0,0,1-.879-2.846c.406-1.774-.734-2.2-1.949-2.632-2.456-.869-3.536-.614-4.977,1.186a177.484,177.484,0,0,1-19.227,20.428,2.551,2.551,0,0,0-.966,1.415,11.323,11.323,0,0,0,.611,6.73c2.763,6.243,11.33,9.4,17.537,6.509a2.071,2.071,0,0,0,1.121-1.4c.74-2.11,1.467-4.226,2.282-6.307a109.493,109.493,0,0,1,10.113-19.555c.207-.32.9-.789.225-1.175a1.109,1.109,0,0,0-1.571.256c-.133.2-.267.406-.406.606a108.081,108.081,0,0,0-12.906,24.159,2,2,0,0,1-1.065,1.275c-4.368,2.087-10.865-.012-13.142-4.28-1.6-3-.111-5.823,3.244-6.129,2.129-.195,4.425,1.5,5.459,4.121.444,1.123,1.112,2.538.1,3.42-1.116.974-2.4,0-3.436-.708-.785-.534-1.807-1.1-1.739-2.182.078-1.246,1.439-.856,2.291-1.342m16.074-31.692c2.893.522,5.045,3.054,8.16,2.17a.944.944,0,0,1,.71.111c1.266.891,2.025.19,2.726-.8a7.714,7.714,0,0,1,.678-.763c5.641-6.083,11.7-11.744,17.638-17.529a1.693,1.693,0,0,0,.5-2.046,11.941,11.941,0,0,0-11.9-7.492,2.233,2.233,0,0,0-1.923,1.253q-5.373,9.141-11.463,17.824c-1.673,2.385-3.353,4.766-5.119,7.274m35.276-16.692a5.857,5.857,0,0,0-4.708,1.409c-4.758,4.4-9.408,8.9-13.713,13.75-1.487,1.675-2.885,3.43-4.387,5.09-.621.685-.7,1.422-.066,1.9.557.419.8-.456,1.128-.788.584-.584,1.09-1.245,1.638-1.866,4.883-5.523,10.435-10.353,15.864-15.313a40.677,40.677,0,0,0,4.245-4.178M437.9,467.254a3.392,3.392,0,0,0-.055,6.783,3.392,3.392,0,1,0,.055-6.783m3.5,7.43a1.527,1.527,0,0,0-1.406,1.8q.876,2.621,1.779,5.234c.789,2.268.782,2.231,3.056,1.245.739-.321,1-.569.54-1.359-1.193-2.057-2.306-4.16-3.463-6.238-.154-.278-.227-.665-.505-.685m1.03-1.483-.214.363c1.078.775,2.148,1.56,3.239,2.317.29.2.7.563.891-.1.135-.469.632-1.118-.007-1.419a11.167,11.167,0,0,0-3.909-1.163" transform="translate(-276.966 -297.218)" fill="#2b2e81"/><path d="M201.425,311.346c-.3.644-.954.724-1.544.866-.348.084-.8-.069-.645-.489.241-.672.96-.723,1.564-.828a.475.475,0,0,1,.625.451" transform="translate(-140.826 -219.774)" fill="#2b2e81"/></g></svg>