<?xml version="1.0" encoding="utf-8"?>
<!-- Generator: Adobe Illustrator 26.2.1, SVG Export Plug-In . SVG Version: 6.00 Build 0)  -->
<svg version="1.1" id="a" xmlns="http://www.w3.org/2000/svg" xmlns:xlink="http://www.w3.org/1999/xlink" x="0px" y="0px"
	 viewBox="0 0 260 60" style="enable-background:new 0 0 260 60;" xml:space="preserve">
<style type="text/css">
	.st0{fill:#707171;}
</style>
<g id="b" transform="translate(363 0.001)">
	<g id="c" transform="translate(0 0)">
		<path id="d" class="st0" d="M-349.5,30.5c-0.1,1-1,1.8-2,1.8l0,0c-1-0.1-1.8-1-1.8-2s1-1.8,2-1.8S-349.4,29.5-349.5,30.5
			L-349.5,30.5"/>
		<path id="e" class="st0" d="M-336,14.7c0.1,1-0.7,1.9-1.8,2l0,0c-1,0.1-1.9-0.7-2-1.8s0.7-1.9,1.8-2
			C-336.9,12.9-336,13.6-336,14.7L-336,14.7"/>
		<path id="f" class="st0" d="M-335.2,33.6c0,0.9-0.6,1.7-1.5,1.7c-0.9,0-1.7-0.6-1.7-1.5c0-0.9,0.6-1.7,1.5-1.7
			C-336,32.1-335.2,32.7-335.2,33.6"/>
		<path id="g" class="st0" d="M-336.2,46.4c0,0.8-0.6,1.5-1.4,1.5l0,0c-0.8,0-1.5-0.6-1.6-1.4c0-0.8,0.6-1.5,1.4-1.5
			S-336.3,45.6-336.2,46.4"/>
		<path id="h" class="st0" d="M-342.1,53.7c0,1.1-0.9,1.9-1.9,1.9s-1.9-0.9-1.9-1.9c0-1.1,0.9-1.9,1.9-1.9l0,0
			C-342.9,51.7-342.1,52.6-342.1,53.7"/>
		<path id="i" class="st0" d="M-331.1,18.6v-1.4c0-0.1,0-0.1,0-0.2l-0.1-5.9c0-1,0-2.4,0-4.2c0-6.8-4-6-4-6
			c-3.3,0.6-4.5,0.7-6.3,1.7c-1.7,0.9-3.2,2.1-4.4,3.6c-0.6,0.8-0.4,2,0.5,2.6c0,0,0,0,0.1,0.1l3.3,2.6c0.7,0.3,1.4,0.4,2.2,0.1l0,0
			c1.8-1.1,4.1-0.6,5.2,1.2c1.1,1.8,0.6,4.1-1.2,5.2c-1.8,1.1-4.1,0.6-5.2-1.2c-0.3-0.5-0.5-1.1-0.6-1.8c0-0.2,0-0.5,0-0.7
			c-0.1-0.7-0.4-1.4-0.9-1.9l-3.6-2.6c-1.6-1-2.6-0.3-2.9,0.1c-2.8,2.3-5.3,5.1-7.4,8.1c-0.7,1-1.6,10.2-0.9,10.4
			c0.6,0.1,1.4,0.4,2.3,0.6h0.1c0.4,0.1,0.8,0,1-0.3c0.9-1.4,2.8-1.8,4.2-0.9c0.9,0.6,1.4,1.6,1.4,2.7v0c-0.1,1.7-1.5,2.9-3.2,2.8
			c-1.3-0.1-2.4-1-2.7-2.2c0,0,0,0,0-0.1c-0.1-0.5-0.8-0.8-0.8-0.8c-0.7-0.2-1.5-0.4-1.5-0.4s-1.8-0.7-2.1,0.5
			c-1,3.6-2.2,7.4-1.9,8.6c0.9,2.7,2.2,5.3,3.7,7.7c1,1.7,3.1-0.1,3.1-0.1s12.6-10.7,13.8-12.2c-0.1-0.2-0.1-0.5-0.1-0.8
			c-0.1-1.8,1.3-3.4,3.1-3.5c1.9-0.1,3.4,1.3,3.6,3.1c0.1,1-0.4,2.1-1.2,2.7c-0.1,0.1-0.1,0.1-0.2,0.2h0c-1.2,0.9-3,0.9-4.1-0.1
			c-1.5,1.4-10.5,9.5-11.6,10.4c-0.9,0.7-1.8,1.5-2.5,2.4c-0.6,0.8,0.8,3.7,1.9,5c1,1,2.2,1.7,3.6,2c0.1,0,0.1,0,0.2,0
			c0.7-0.2,0.4-1,0.4-1.1c-0.2-0.4-0.3-0.8-0.3-1.3c0-1.8,1.5-3.3,3.3-3.3l0,0c1.8,0,3.3,1.5,3.3,3.3l0,0c0,0.8-0.3,1.6-0.9,2.2
			c0,0-1.2,1.1-1,1.2c0.2,0.2,0.5,0.3,0.7,0.3c0.6,0.2,3.6,1.3,4.1,1.3c1.6-0.4,3.1-1.2,4.3-2.4c1.3-1.3-0.6-3.1-1.8-5.1
			c-0.3-0.5-0.3-0.6-0.7-1c-0.3-0.4-0.8-0.6-1.3-0.5c-0.1,0-0.2,0-0.3,0c-1.8,0.1-3.3-1.3-3.4-3c-0.1-1.8,1.3-3.3,3.1-3.4
			c1.8-0.1,3.3,1.3,3.4,3c0,0.4,0,0.8-0.1,1.1c-0.4,1.8,2.4,4.6,3,5.5c0.6,0.7,0.4-2.2,0.4-2.2s0-25.3,0-27.1
			C-331.1,22.6-331.1,20.3-331.1,18.6L-331.1,18.6L-331.1,18.6z"/>
		<path id="j" class="st0" d="M-328,26.8c0.1-0.1,0.2-0.6,0.8-0.5c0.6,0.1,1.6,0.3,1.3,1.1s-0.7,1.5-1.5,1.4c-0.8-0.1-1.2-0.6-1.1-1
			C-328.4,27.5-328.2,27.1-328,26.8"/>
		<path id="k" class="st0" d="M-302.3,38.3c0.1-0.1,0.3-1,1-0.9s1.9,0.5,1.5,2c-0.4,1.4-0.8,2.5-1.7,2.4c-0.8-0.2-1.4-0.8-1.3-1.7
			C-302.7,39.5-302.5,38.9-302.3,38.3"/>
		<path id="l" class="st0" d="M-308.1,50.5c0,0,0.1-0.4,0.3-0.3s0.6,0.2,0.5,0.7s-0.2,0.7-0.5,0.7c-0.3,0-0.6-0.2-0.5-0.4
			C-308.2,50.9-308.2,50.7-308.1,50.5"/>
		<path id="m" class="st0" d="M-326.8,51.2c0,0-1.1-2.3,0.5-2.7s2.5-0.5,3.2,0.1c0.9,1,1.4,2.3,1.3,3.6c-0.1,1.6-1.6,5-3.7,3.8
			C-327.7,54.9-327.4,52.3-326.8,51.2"/>
		<path id="n" class="st0" d="M-305.6,41c-1-0.6-2.7,0.2-4.9,0.5c-1.3,0-2.5-0.1-3.8-0.2c-1.9,0-1.5,1.3-1.7,2
			c-0.1,0.6-0.8,1.2-3.5,1.3c-0.5,0-1,0-1.5-0.1c-1,0-1.8,0.7-1.9,1.7c0,0.3,0.1,0.5,0.3,0.7c1.2,0.7,2,1.8,2.4,3.1
			c0.5,1.7,0.2,3.5-0.8,5c-0.5,0.6-1,1.2-1.5,1.7c-0.4,0.4-0.2,1,0.3,1.8c0.2,0.3,0.9,0.7,2.8,0.7c3.2,0,6-2.7,6-3.5s-2-2.7-2.3-2.9
			c-0.5-0.4-1-0.8-1.4-1.2c-0.6-0.6-0.8-1.5-0.7-2.3l0-0.2c0.5-0.7,1.5-0.8,2.2-0.2l0,0c0.9,0.9,0.5,1.8,1.3,2.8
			c0.6,0.7,0.8,1.6,2.2,1.9c1.3,0.3,1.4-0.8,1.7-1.3c0.2-1,0.4-2.1,0.5-3.1c0.2-0.8,1.8-0.4,2.8-0.6s2.2-1.3,2.7-3.8
			C-303.8,43.4-304.4,41.9-305.6,41"/>
		<path id="o" class="st0" d="M-302.6,31.1c-1,0.4-2.8,1-2.8,1c0,0,0,0,0,0c-1,0.2-0.4-0.1-0.6-0.8c-0.2-0.7,0.4-0.4,0.9-1.4
			s-0.3-0.8-1-1.5s-1.3,0.2-1.6,0.3c-0.3,0.1-1.6,1-2.2,0.7s-1.4,0.4-1.9,0.6s-0.7-0.4-0.6-0.8c0.2-0.4,0.2-0.8,0.1-1.2
			c-0.2-0.6,0.5-0.7,1.2-1.2c0.2-0.1,0.4-0.2,0.5-0.4c1-1.4,1.7,0,1.7,0h0c0,0.2,0.1,0.5,0.2,0.8c0.3,0.7,0.7,0,1.1-0.4
			c0.4-0.4,1.4-0.1,2.1-0.6s0.8-1.5,1.1-2c0.3-0.5,0.8-0.3,1.9-0.9s0.8-1.1,0.8-1.9c0-0.8-1.7-1.1-2.4-1.4c-0.7-0.3-1.1,0.1-1.7,0.5
			c-0.7,0.3-0.6,0.2-1.5,0c-0.9-0.2-0.4-1.2-0.3-1.5c0-0.1,0-0.2,0-0.3c-0.1-0.2-0.1-0.5-0.2-0.6c-0.7-0.8-1.3-1.6-1.9-2.4
			c-0.7-1.3-2.7-1.3-3.6-1.2c-1.9,0.1-1.5,1.3-3.1,1.6s-1.9-0.6-1.8-1.5c0.1-0.7,1.6-1.7,2.6-1.8c0.9-0.2,1.9-0.1,2.8,0.1
			c1.4,0.3,2.8,0.8,4,1.5h0c0.7,0.4,1.6,0.2,2.1-0.4c0.4-0.6,0.7-1.2,1-1.9c0.1-0.5,0.9-0.4,1.6-0.5c0.7-0.1,0.6-0.3,1-0.3
			s0.8-0.3,0.5-0.8c-0.3-0.5-0.7-0.2-1-0.1c-0.4,0.3-0.9,0.6-1.3,0.8c-0.3,0.1-0.6-0.1-0.7-0.4c0,0,0-0.8,0.1-1.4
			c-0.1-0.7-0.3-1.4-0.6-2c-0.2-0.5-1-0.8-1.5-1c-0.8-0.3-1.7-0.3-2.5,0c-1,0.2-1.3,1-1.7,1.2c0,0-0.5,0.1-0.4-0.7
			c0.1-0.8,0-1.2-0.8-1.3s-2.5,0.9-2.2,1.4c0.2,0.2,0.3,0.4,0.4,0.5c0,0,0.8,1,0.5,1.6c-0.2,0.6-1-0.2-1.1-0.4
			c-0.8-1.3,1.2-4.7,0.4-5.8s-2.2-0.3-3.1-1s-2.7-0.7-4.2-0.7c-1.7,0.2-3.3,0.6-4.8,1.4c-1.1,0.6-1.6,1.9-1.2,3.1
			c0.5,1.2,1.4,2.3,2.4,3.1c1,0.7,1.1,1.4,0.5,3.3c-0.4,1.1,0.1,2.3,1.1,2.8c0.4,0.3,0.5,0.4,0.3,1c-0.2,0.6-1.9,0.6-3.1,1.4
			c-0.9,0.8-1.2,2-0.8,3.1c0.2,0.8,0.8,1,1,1.4c0.2,0.5,0.4,1,0.4,1.6c0,0.4,0.1,0.8,0.3,1.1c0.5,0.6,1.2,0.9,2,0.9
			c0.9-0.2,1.8-0.7,2.3-1.4l0.1-0.1c1-1.1,2.4-1.7,3.9-1.8h0.5c0.4,0,0.8,0.1,1,0.4c0.2,0.6,0,1.1-0.8,1.1c-1.3-0.2-2.6,0.1-3.6,1
			c0,0-2.9,3.8,1.5,6c0.4,0.4,0.5,1.1,0.2,1.6c-0.3,0.5-0.9,0.8-1.5,0.8c-0.5,0-1-0.3-1.2-0.8c0-0.1-0.1-0.2-0.1-0.2c0,0,0,0,0-0.1
			c0,0,0,0,0,0v0c-0.2-0.7-0.8-1.3-1.5-1.5c-0.1,0-0.3-0.1-0.4-0.1c-0.8-0.2-1.5-0.2-2.3,0c-0.8,0.2-1.5,0.1-2.1,2.2
			c0,0.7,0,1.4,0.2,2c0,1-0.2,2.1-0.5,3c-0.1,0.8,1.3,2,1.7,2.2s1.1,0.8,2.9,1.9c1.8,1.1,5.4,0.3,6.2,0c0.8-0.3,0.8-0.8,0.8-1.4
			c-0.2-1-0.7-2-1.4-2.8c-0.8-0.7-1.2-1.7-1.3-2.7c0.1-0.5,0.9-0.5,1.2-0.5c0.5,0.1,1,0.3,1.5,0.5c0.8,0.5,1.3,1.3,1.5,2.2
			c1,3.3,6.6,2.4,6.6,2.4c1.2-0.2,2.3-0.7,3.3-1.3c1.3-1,2.5-2,3.6-3.1C-301.5,34.1-301,31.2-302.6,31.1"/>
		<path id="p" class="st0" d="M-260.6,27.3h-3.4v5.9h-6.3V11h10.1c6,0,9.8,3.1,9.8,8.2c0.1,3-1.6,5.8-4.3,7l4.8,7h-6.7L-260.6,27.3
			L-260.6,27.3z M-260.6,15.9h-3.5v6.5h3.5c2.6,0,3.9-1.2,3.9-3.2S-258,15.9-260.6,15.9"/>
		<path id="q" class="st0" d="M-249.5,24.5c0-5.1,4.1-8.8,9.7-8.8s9.7,3.7,9.7,8.8s-4,8.9-9.7,8.9S-249.5,29.7-249.5,24.5
			 M-236.3,24.5c0-2.6-1.6-4-3.6-4c-2,0-3.6,1.5-3.6,4s1.6,4.1,3.6,4.1S-236.3,27.2-236.3,24.5"/>
		<path id="r" class="st0" d="M-217.2,15.7v5.4c-0.4-0.1-0.9-0.1-1.4-0.1c-2.4,0-4.1,1.2-4.1,4.2v7.9h-6V16h5.7v2
			C-221.5,16.4-219.4,15.6-217.2,15.7"/>
		<path id="s" class="st0" d="M-216.7,31.6l1.8-4.1c1.8,1,3.9,1.6,6,1.6c2,0,2.7-0.4,2.7-1.2c0-2.3-10.1,0.3-10.1-6.5
			c0-3.2,3-5.7,8.4-5.7c2.3-0.1,4.6,0.5,6.8,1.5l-1.8,4.1c-1.5-0.8-3.2-1.3-4.9-1.3c-2,0-2.8,0.6-2.8,1.2c0,2.4,10.1-0.2,10.1,6.6
			c0,3.2-2.9,5.6-8.5,5.6C-211.7,33.5-214.3,32.9-216.7,31.6"/>
		<path id="t" class="st0" d="M-199.8,24.5c0-5.1,4.1-8.8,9.8-8.8c3.9,0,6.9,1.7,8,4.7l-4.6,2.4c-0.6-1.4-1.9-2.3-3.4-2.3
			c-2,0-3.7,1.6-3.7,3.6c0,0.1,0,0.3,0,0.5c0,2.7,1.6,4.1,3.7,4.1c1.5,0,2.9-0.9,3.4-2.3l4.6,2.4c-1.2,3-4.1,4.7-8,4.7
			C-195.7,33.4-199.7,29.7-199.8,24.5"/>
		<path id="u" class="st0" d="M-162.1,23.3v9.8h-6v-8.8c0-2.5-1.1-3.5-2.8-3.5c-1.9,0-3.4,1.2-3.4,4v8.3h-6V9.7h6v7.9
			c1.4-1.2,3.3-1.9,5.1-1.9C-165.1,15.7-162.1,18-162.1,23.3"/>
		<path id="v" class="st0" d="M-143.5,23.6v9.5h-5.6v-2.2c-0.9,1.6-2.6,2.5-5.1,2.5c-4.1,0-6.4-2.3-6.4-5.3c0-3.2,2.3-5.1,7.6-5.1
			h3.4c-0.1-1.7-1.3-2.7-3.6-2.7c-1.7,0-3.3,0.5-4.6,1.5l-2-4.1c2.3-1.4,4.9-2,7.6-2C-146.7,15.7-143.5,18.2-143.5,23.6
			 M-149.5,27.6v-1.5h-2.6c-1.9,0-2.6,0.7-2.6,1.7s0.8,1.7,2.2,1.7C-151.2,29.7-150,28.9-149.5,27.6"/>
		<path id="w" class="st0" d="M-142.4,24.5c0-5.1,4.1-8.8,9.8-8.8c3.9,0,6.9,1.7,8,4.7l-4.6,2.4c-0.6-1.4-1.9-2.3-3.4-2.3
			c-2,0-3.7,1.6-3.7,3.6l0,0c0,0.1,0,0.3,0,0.4c0,2.7,1.6,4.1,3.7,4.1c1.5,0,2.8-0.9,3.4-2.3l4.6,2.4c-1.2,3-4.1,4.7-8,4.7
			C-138.4,33.4-142.4,29.8-142.4,24.5"/>
		<path id="x" class="st0" d="M-105.4,23.3v9.8h-6v-8.8c0-2.5-1.1-3.5-2.8-3.5c-1.9,0-3.4,1.2-3.4,4v8.3h-6V9.7h6v7.9
			c1.4-1.3,3.3-1.9,5.1-1.9C-108.5,15.7-105.4,18-105.4,23.3"/>
		<rect id="y" x="-270.5" y="43.7" class="st0" width="1.6" height="7.5"/>
		<path id="a_x60_" class="st0" d="M-257.7,51.2h-2l-3.3-5.7h-0.1c0.1,1,0.1,1.7,0.1,2.1v3.5h-1.4v-7.5h2l3.2,5.6h0
			c-0.1-1-0.1-1.7-0.1-2.1v-3.5h1.4C-257.7,43.7-257.7,51.2-257.7,51.2z"/>
		<path id="aa" class="st0" d="M-246.6,51.2h-2l-3.3-5.7h-0.1c0.1,1,0.1,1.7,0.1,2.1v3.5h-1.4v-7.5h2l3.2,5.6h0
			c-0.1-1-0.1-1.7-0.1-2.1v-3.5h1.4C-246.6,43.7-246.6,51.2-246.6,51.2z"/>
		<path id="ab" class="st0" d="M-235.3,47.4c0.1,1-0.3,2.1-0.9,2.9c-1.5,1.3-3.8,1.3-5.3,0c-0.7-0.8-1-1.8-0.9-2.9
			c-0.1-1,0.3-2.1,0.9-2.9c0.7-0.7,1.7-1,2.7-1c1-0.1,1.9,0.3,2.6,1C-235.5,45.3-235.2,46.4-235.3,47.4 M-240.8,47.4
			c-0.1,0.7,0.1,1.3,0.5,1.9c0.3,0.4,0.9,0.7,1.4,0.6c1.3,0,1.9-0.8,1.9-2.5c0-1.7-0.6-2.5-1.9-2.5c-0.6,0-1.1,0.2-1.4,0.6
			C-240.6,46.1-240.8,46.7-240.8,47.4"/>
		<path id="ac" class="st0" d="M-226.8,43.7h1.6l-2.6,7.5h-1.7l-2.5-7.5h1.6l1.4,4.5c0.1,0.3,0.2,0.6,0.2,0.9s0.1,0.6,0.2,0.7
			c0.1-0.6,0.2-1.1,0.4-1.7L-226.8,43.7L-226.8,43.7z"/>
		<path id="ad" class="st0" d="M-217.1,51.2l-0.5-1.8h-2.7l-0.5,1.8h-1.7l2.6-7.5h1.9l2.6,7.5H-217.1z M-218,48
			c-0.5-1.6-0.8-2.5-0.9-2.7c-0.1-0.2-0.1-0.4-0.1-0.5c-0.1,0.4-0.4,1.5-1,3.2H-218L-218,48z"/>
		<path id="ae" class="st0" d="M-208.9,51.2h-1.6V45h-2v-1.3h5.7V45h-2L-208.9,51.2L-208.9,51.2z"/>
		<rect id="af" x="-203.1" y="43.7" class="st0" width="1.6" height="7.5"/>
		<path id="ag" class="st0" d="M-190.2,47.4c0.1,1-0.3,2.1-0.9,2.9c-1.5,1.3-3.8,1.3-5.3,0c-0.7-0.8-1-1.8-0.9-2.9
			c-0.1-1,0.3-2.1,0.9-2.9c0.7-0.7,1.7-1,2.6-1c1-0.1,1.9,0.3,2.6,1C-190.5,45.3-190.1,46.4-190.2,47.4 M-195.7,47.4
			c-0.1,0.7,0.1,1.3,0.5,1.9c0.3,0.4,0.9,0.7,1.4,0.6c1.3,0,1.9-0.8,1.9-2.5s-0.6-2.5-1.9-2.5c-0.6,0-1.1,0.2-1.4,0.6
			C-195.5,46.1-195.7,46.7-195.7,47.4"/>
		<path id="ah" class="st0" d="M-179.4,51.2h-2l-3.3-5.7h-0.1c0.1,1,0.1,1.7,0.1,2.1v3.5h-1.4v-7.5h2l3.2,5.6h0
			c-0.1-1-0.1-1.7-0.1-2.1v-3.5h1.4L-179.4,51.2L-179.4,51.2z"/>
		<path id="ai" class="st0" d="M-165.1,49.1c0,0.6-0.2,1.2-0.7,1.6c-0.6,0.4-1.3,0.6-2,0.6c-0.7,0-1.5-0.1-2.1-0.5v-1.5
			c0.4,0.2,0.8,0.3,1.3,0.5c0.3,0.1,0.6,0.1,1,0.1c0.3,0,0.6,0,0.8-0.2c0.2-0.1,0.3-0.4,0.3-0.6c0-0.1,0-0.3-0.1-0.4
			c-0.1-0.1-0.2-0.2-0.4-0.3c-0.3-0.2-0.6-0.4-1-0.5c-0.4-0.2-0.7-0.4-1-0.6c-0.2-0.2-0.4-0.4-0.6-0.7c-0.1-0.3-0.2-0.6-0.2-0.9
			c0-0.6,0.2-1.2,0.7-1.6c0.5-0.4,1.2-0.6,1.9-0.6c0.4,0,0.8,0,1.1,0.1c0.4,0.1,0.8,0.2,1.1,0.4l-0.5,1.2c-0.3-0.1-0.6-0.2-1-0.3
			c-0.2-0.1-0.5-0.1-0.8-0.1c-0.2,0-0.5,0.1-0.7,0.2c-0.2,0.1-0.2,0.3-0.2,0.5c0,0.1,0,0.3,0.1,0.4c0.1,0.1,0.2,0.2,0.3,0.3
			c0.3,0.2,0.7,0.4,1,0.5c0.6,0.2,1,0.6,1.4,1C-165.2,48.2-165.1,48.6-165.1,49.1"/>
		<path id="aj" class="st0" d="M-156.8,51.2h-4.3v-7.5h4.3V45h-2.7v1.6h2.5v1.3h-2.5v1.9h2.7V51.2L-156.8,51.2z"/>
		<path id="ak" class="st0" d="M-151,48.3v2.9h-1.6v-7.5h2.2c0.8-0.1,1.6,0.1,2.3,0.6c0.8,0.7,1,2,0.4,2.9c-0.3,0.4-0.6,0.6-1,0.8
			c1.1,1.7,1.9,2.8,2.2,3.3h-1.8l-1.8-2.9L-151,48.3L-151,48.3z M-151,47h0.5c0.4,0,0.8-0.1,1.1-0.2c0.2-0.2,0.4-0.5,0.4-0.8
			c0-0.3-0.1-0.6-0.4-0.8c-0.4-0.2-0.7-0.2-1.1-0.2h-0.5L-151,47L-151,47z"/>
		<path id="al" class="st0" d="M-138.8,43.7h1.6l-2.6,7.5h-1.7l-2.5-7.5h1.6l1.4,4.5c0.1,0.3,0.2,0.6,0.2,0.9s0.1,0.6,0.2,0.7
			c0.1-0.6,0.2-1.1,0.4-1.7L-138.8,43.7L-138.8,43.7z"/>
		<rect id="am" x="-133.6" y="43.7" class="st0" width="1.6" height="7.5"/>
		<path id="an" class="st0" d="M-124.4,44.9c-0.6,0-1.1,0.2-1.4,0.7c-0.4,0.6-0.5,1.2-0.5,1.9c0,1.7,0.6,2.5,1.9,2.5
			c0.6,0,1.3-0.2,1.9-0.4v1.3c-0.6,0.3-1.4,0.4-2.1,0.4c-0.9,0.1-1.9-0.3-2.5-1c-0.6-0.8-0.9-1.8-0.9-2.8c0-0.7,0.1-1.4,0.4-2
			c0.3-0.6,0.7-1,1.2-1.3c0.6-0.3,1.2-0.5,1.9-0.5c0.8,0,1.5,0.2,2.2,0.5l-0.5,1.3c-0.3-0.1-0.6-0.2-0.9-0.3
			C-123.8,44.9-124.1,44.9-124.4,44.9"/>
		<path id="ao" class="st0" d="M-113.9,51.2h-4.3v-7.5h4.3V45h-2.7v1.6h2.5v1.3h-2.5v1.9h2.7V51.2L-113.9,51.2z"/>
		<path id="ap" class="st0" d="M-105.3,49.1c0,0.6-0.2,1.2-0.7,1.6c-0.6,0.4-1.3,0.6-2,0.6c-0.7,0-1.5-0.1-2.1-0.5v-1.5
			c0.4,0.2,0.8,0.3,1.3,0.5c0.3,0.1,0.6,0.1,1,0.1c0.3,0,0.6,0,0.8-0.2c0.2-0.1,0.3-0.4,0.3-0.6c0-0.1,0-0.3-0.1-0.4
			c-0.1-0.1-0.2-0.2-0.4-0.3c-0.3-0.2-0.6-0.4-1-0.5c-0.4-0.2-0.7-0.4-1-0.6c-0.2-0.2-0.4-0.4-0.6-0.7c-0.4-0.8-0.2-1.8,0.5-2.5
			c0.5-0.4,1.2-0.6,1.9-0.6c0.4,0,0.8,0,1.1,0.1c0.4,0.1,0.8,0.2,1.1,0.4l-0.5,1.2c-0.3-0.1-0.6-0.2-1-0.3c-0.2-0.1-0.5-0.1-0.8-0.1
			c-0.2,0-0.5,0.1-0.7,0.2c-0.2,0.1-0.2,0.3-0.2,0.5c0,0.1,0,0.3,0.1,0.4c0.1,0.1,0.2,0.2,0.3,0.3c0.3,0.2,0.7,0.4,1,0.5
			c0.5,0.2,1,0.6,1.4,1C-105.4,48.2-105.3,48.6-105.3,49.1"/>
	</g>
</g>
</svg>
